<svg width="8" height="11" viewBox="0 0 8 11" fill="none" xmlns="http://www.w3.org/2000/svg">
<path d="M6.875 6.05902L2.625 10.309C2.47917 10.4549 2.30208 10.5278 2.09375 10.5278C1.88542 10.5278 1.70833 10.4549 1.5625 10.309L0.875 9.59027C0.729167 9.44444 0.65625 9.26735 0.65625 9.05902C0.65625 8.85069 0.729167 8.6736 0.875 8.52777L3.875 5.52777L0.875 2.52777C0.729167 2.38194 0.65625 2.20485 0.65625 1.99652C0.65625 1.78819 0.729167 1.6111 0.875 1.46527L1.5625 0.746521C1.70833 0.600688 1.88542 0.527771 2.09375 0.527771C2.30208 0.527771 2.47917 0.600688 2.625 0.746521L6.875 4.99652C7.02083 5.14235 7.09375 5.31944 7.09375 5.52777C7.09375 5.7361 7.02083 5.91319 6.875 6.05902Z" fill="#808E9B"/>
</svg>
