<svg width="10" height="7" viewBox="0 0 10 7" fill="none" xmlns="http://www.w3.org/2000/svg">
<path d="M4.46875 6.71429L0.21875 2.46429C0.0729167 2.31846 0 2.14138 0 1.93304C0 1.72471 0.0729167 1.54763 0.21875 1.40179L0.9375 0.714294C1.08333 0.568461 1.26042 0.495544 1.46875 0.495544C1.67708 0.495544 1.85417 0.568461 2 0.714294L5 3.71429L8 0.714294C8.14583 0.568461 8.32292 0.495544 8.53125 0.495544C8.73958 0.495544 8.91667 0.568461 9.0625 0.714294L9.78125 1.40179C9.92708 1.54763 10 1.72471 10 1.93304C10 2.14138 9.92708 2.31846 9.78125 2.46429L5.53125 6.71429C5.38542 6.86013 5.20833 6.93304 5 6.93304C4.79167 6.93304 4.61458 6.86013 4.46875 6.71429Z" fill="#939393"/>
</svg>
