<svg width="10" height="8" viewBox="0 0 10 8" fill="none" xmlns="http://www.w3.org/2000/svg">
<path d="M4.46875 7L0.21875 2.75C0.0729167 2.60417 0 2.42708 0 2.21875C0 2.01042 0.0729167 1.83333 0.21875 1.6875L0.9375 1C1.08333 0.854167 1.26042 0.78125 1.46875 0.78125C1.67708 0.78125 1.85417 0.854167 2 1L5 4L8 1C8.14583 0.854167 8.32292 0.78125 8.53125 0.78125C8.73958 0.78125 8.91667 0.854167 9.0625 1L9.78125 1.6875C9.92708 1.83333 10 2.01042 10 2.21875C10 2.42708 9.92708 2.60417 9.78125 2.75L5.53125 7C5.38542 7.14583 5.20833 7.21875 5 7.21875C4.79167 7.21875 4.61458 7.14583 4.46875 7Z" fill="#808E9B"/>
</svg>
