<svg width="12" height="8" viewBox="0 0 12 8" fill="none" xmlns="http://www.w3.org/2000/svg">
<path d="M5.02734 7.625L0.246094 2.84375C0.0820313 2.67969 0 2.48047 0 2.24609C0 2.01172 0.0820313 1.8125 0.246094 1.64844L1.05469 0.875C1.21875 0.710937 1.41797 0.628906 1.65234 0.628906C1.88672 0.628906 2.08594 0.710937 2.25 0.875L5.625 4.25L9 0.875C9.16406 0.710937 9.36328 0.628906 9.59766 0.628906C9.83203 0.628906 10.0312 0.710937 10.1953 0.875L11.0039 1.64844C11.168 1.8125 11.25 2.01172 11.25 2.24609C11.25 2.48047 11.168 2.67969 11.0039 2.84375L6.22266 7.625C6.05859 7.78906 5.85938 7.87109 5.625 7.87109C5.39062 7.87109 5.19141 7.78906 5.02734 7.625Z" fill="#808E9B"/>
</svg>
