<svg width="8" height="10" viewBox="0 0 8 10" fill="none" xmlns="http://www.w3.org/2000/svg">
<path d="M7 5.53125L2.75 9.78125C2.60417 9.92708 2.42708 10 2.21875 10C2.01042 10 1.83333 9.92708 1.6875 9.78125L1 9.0625C0.854167 8.91667 0.78125 8.73958 0.78125 8.53125C0.78125 8.32292 0.854167 8.14583 1 8L4 5L1 2C0.854167 1.85417 0.78125 1.67708 0.78125 1.46875C0.78125 1.26042 0.854167 1.08333 1 0.9375L1.6875 0.21875C1.83333 0.0729167 2.01042 0 2.21875 0C2.42708 0 2.60417 0.0729167 2.75 0.21875L7 4.46875C7.14583 4.61458 7.21875 4.79167 7.21875 5C7.21875 5.20833 7.14583 5.38542 7 5.53125Z" fill="#808E9B"/>
</svg>
