<svg width="12" height="8" viewBox="0 0 12 8" fill="none" xmlns="http://www.w3.org/2000/svg">
<path d="M5.02734 0.375L0.246094 5.15625C0.0820313 5.32031 0 5.51953 0 5.75391C0 5.98828 0.0820313 6.1875 0.246094 6.35156L1.05469 7.125C1.21875 7.28906 1.41797 7.37109 1.65234 7.37109C1.88672 7.37109 2.08594 7.28906 2.25 7.125L5.625 3.75L9 7.125C9.16406 7.28906 9.36328 7.37109 9.59766 7.37109C9.83203 7.37109 10.0312 7.28906 10.1953 7.125L11.0039 6.35156C11.168 6.1875 11.25 5.98828 11.25 5.75391C11.25 5.51953 11.168 5.32031 11.0039 5.15625L6.22266 0.375C6.05859 0.210938 5.85938 0.128906 5.625 0.128906C5.39062 0.128906 5.19141 0.210938 5.02734 0.375Z" fill="#57606F"/>
</svg>
