<svg width="14" height="10" viewBox="0 0 14 10" fill="none" xmlns="http://www.w3.org/2000/svg">
<path d="M13.0547 2.3503C13.0547 2.15498 12.9766 1.95967 12.8359 1.81905L11.7734 0.756546C11.6328 0.615921 11.4375 0.537796 11.2422 0.537796C11.0469 0.537796 10.8516 0.615921 10.7109 0.756546L5.58594 5.88936L3.28906 3.58467C3.14844 3.44405 2.95313 3.36592 2.75781 3.36592C2.5625 3.36592 2.36719 3.44405 2.22656 3.58467L1.16406 4.64717C1.02344 4.7878 0.945313 4.98311 0.945313 5.17842C0.945313 5.37373 1.02344 5.56905 1.16406 5.70967L3.99219 8.5378L5.05469 9.6003C5.19531 9.74092 5.39063 9.81905 5.58594 9.81905C5.78125 9.81905 5.97656 9.74092 6.11719 9.6003L7.17969 8.5378L12.8359 2.88155C12.9766 2.74092 13.0547 2.54561 13.0547 2.3503Z" fill="#57606F"/>
</svg>
