<svg width="14" height="11" viewBox="0 0 14 11" fill="none" xmlns="http://www.w3.org/2000/svg">
<path d="M13.6696 1.73214C13.8363 1.89881 13.9196 2.10119 13.9196 2.33928C13.9196 2.57738 13.8363 2.77976 13.6696 2.94643L7.20536 9.41071L5.99107 10.625C5.82441 10.7917 5.62202 10.875 5.38393 10.875C5.14583 10.875 4.94345 10.7917 4.77679 10.625L3.5625 9.41071L0.330357 6.17857C0.163691 6.0119 0.0803572 5.80952 0.0803572 5.57143C0.0803572 5.33333 0.163691 5.13095 0.330357 4.96429L1.54464 3.75C1.71131 3.58333 1.91369 3.5 2.15179 3.5C2.38988 3.5 2.59226 3.58333 2.75893 3.75L5.38393 6.38393L11.2411 0.517857C11.4077 0.35119 11.6101 0.267857 11.8482 0.267857C12.0863 0.267857 12.2887 0.35119 12.4554 0.517857L13.6696 1.73214Z" fill="white"/>
</svg>
