<svg width="16" height="16" viewBox="0 0 16 16" fill="none" xmlns="http://www.w3.org/2000/svg">
<path d="M15.3718 5.10961L11.6679 1.40615C11.2619 1.00007 10.7222 0.776611 10.1485 0.776611C9.57485 0.776611 9.0352 1.00042 8.62947 1.40615L1.764 8.27127L0.628464 9.4068C-0.209488 10.2444 -0.209488 11.6077 0.628464 12.4453L3.19603 15.0128C3.22898 15.0461 3.26551 15.0759 3.30454 15.102C3.31421 15.1085 3.32495 15.1124 3.33462 15.1185C3.3647 15.1367 3.39478 15.1543 3.42737 15.1679C3.44097 15.1736 3.45566 15.1761 3.46962 15.1811C3.4997 15.1915 3.52907 15.2026 3.56094 15.2087C3.60749 15.2184 3.65476 15.2234 3.70274 15.2234H7.99993H12.6552C13.0506 15.2234 13.3714 14.9025 13.3714 14.5072C13.3714 14.1119 13.0506 13.791 12.6552 13.791H9.72884L15.3721 8.14808C16.2094 7.31049 16.2094 5.9472 15.3718 5.10961ZM14.3591 7.13573L7.70307 13.791H3.99961L1.64117 11.4329C1.36185 11.1536 1.36185 10.6992 1.64117 10.4199L2.27035 9.79032L4.98689 12.5069C5.12655 12.6469 5.30989 12.7167 5.49324 12.7167C5.67659 12.7167 5.85993 12.6469 5.99959 12.5069C6.27927 12.2272 6.27927 11.7738 5.99959 11.4942L3.28305 8.77762L9.64253 2.4185C9.91254 2.14813 10.3842 2.14813 10.6549 2.4185L14.3587 6.12196C14.638 6.40163 14.638 6.85646 14.3591 7.13573Z" fill="#2D9CDB"/>
</svg>
