<svg width="8" height="8" viewBox="0 0 8 8" fill="none" xmlns="http://www.w3.org/2000/svg">
<path d="M5.2 4L7.875 6.7C7.95 6.775 8 6.875 8 6.975C8 7.1 7.95 7.2 7.875 7.25L7.25 7.875C7.175 7.975 7.075 8 6.975 8C6.85 8 6.75 7.975 6.7 7.875L4 5.2L1.3 7.875C1.225 7.975 1.125 8 1.025 8C0.9 8 0.8 7.975 0.75 7.875L0.125 7.25C0.025 7.2 0 7.1 0 6.975C0 6.875 0.025 6.775 0.125 6.7L2.8 4L0.125 1.3C0.025 1.25 0 1.15 0 1.025C0 0.925 0.025 0.825 0.125 0.75L0.75 0.125C0.8 0.05 0.9 0 1.025 0C1.125 0 1.225 0.05 1.3 0.125L4 2.8L6.7 0.125C6.75 0.05 6.85 0 6.975 0C7.075 0 7.175 0.05 7.25 0.125L7.875 0.75C7.95 0.825 8 0.925 8 1.025C8 1.15 7.95 1.25 7.875 1.3L5.2 4Z" fill="#C3CAD0"/>
</svg>
