<svg width="12" height="16" viewBox="0 0 12 16" fill="none" xmlns="http://www.w3.org/2000/svg">
<path d="M9 7.75C9 7.65625 8.9375 7.5625 8.875 7.5C8.8125 7.4375 8.71875 7.375 8.625 7.375H3.375C3.25 7.375 3.15625 7.4375 3.09375 7.5C3.03125 7.5625 3 7.65625 3 7.75V8.625C3 8.75 3.03125 8.84375 3.09375 8.90625C3.15625 8.96875 3.25 9 3.375 9H8.625C8.71875 9 8.8125 8.96875 8.875 8.90625C8.9375 8.84375 9 8.75 9 8.625V7.75ZM8.625 10C8.71875 10 8.8125 10.0625 8.875 10.125C8.9375 10.1875 9 10.2812 9 10.375V11.25C9 11.375 8.9375 11.4688 8.875 11.5312C8.8125 11.5938 8.71875 11.625 8.625 11.625H3.375C3.25 11.625 3.15625 11.5938 3.09375 11.5312C3.03125 11.4688 3 11.375 3 11.25V10.375C3 10.2812 3.03125 10.1875 3.09375 10.125C3.15625 10.0625 3.25 10 3.375 10H8.625ZM12 4.125C12 3.71875 11.8438 3.375 11.5625 3.0625L8.9375 0.4375C8.625 0.15625 8.28125 0 7.875 0H1.5C1.0625 0 0.71875 0.15625 0.4375 0.4375C0.125 0.75 0 1.09375 0 1.5V14.5C0 14.9375 0.125 15.2812 0.4375 15.5625C0.71875 15.875 1.0625 16 1.5 16H10.5C10.9062 16 11.25 15.875 11.5625 15.5625C11.8438 15.2812 12 14.9375 12 14.5V4.125ZM8 1.625L10.375 4H8V1.625ZM10.5 14.5H1.5V1.5H6.5V4.75C6.5 4.96875 6.5625 5.15625 6.71875 5.28125C6.84375 5.4375 7.03125 5.5 7.25 5.5H10.5V14.5Z" fill="#57606F"/>
</svg>
