<svg width="14" height="10" viewBox="0 0 14 10" fill="none" xmlns="http://www.w3.org/2000/svg">
<path d="M7 5.53125C7.125 5.40625 7.21875 5.21875 7.21875 5C7.21875 4.8125 7.125 4.625 7 4.46875L2.75 0.21875C2.59375 0.09375 2.40625 0 2.21875 0C2 0 1.8125 0.09375 1.6875 0.21875L1 0.9375C0.84375 1.09375 0.78125 1.28125 0.78125 1.46875C0.78125 1.6875 0.84375 1.875 1 2L4 5L1 8C0.84375 8.15625 0.78125 8.34375 0.78125 8.53125C0.78125 8.75 0.84375 8.9375 1 9.0625L1.6875 9.78125C1.8125 9.9375 2 10 2.21875 10C2.40625 10 2.59375 9.9375 2.75 9.78125L7 5.53125ZM13 4.46875C13.125 4.625 13.2188 4.8125 13.2188 5C13.2188 5.21875 13.125 5.40625 13 5.53125L8.75 9.78125C8.59375 9.9375 8.40625 10 8.21875 10C8 10 7.8125 9.9375 7.6875 9.78125L7 9.0625C6.84375 8.9375 6.78125 8.75 6.78125 8.53125C6.78125 8.34375 6.84375 8.15625 7 8L10 5L7 1.96875C6.84375 1.84375 6.78125 1.6875 6.78125 1.46875C6.78125 1.28125 6.84375 1.09375 7 0.9375L7.6875 0.21875C7.8125 0.09375 8 0 8.21875 0C8.40625 0 8.59375 0.09375 8.75 0.21875L13 4.46875Z" fill="#808E9B"/>
</svg>
