<svg width="19" height="17" viewBox="0 0 19 17" fill="none" xmlns="http://www.w3.org/2000/svg">
<path d="M12.946 7.59416L9.546 5.11496C9.37713 4.99199 9.1414 4.96522 8.94307 5.04653C8.7436 5.12785 8.61667 5.30338 8.61667 5.49577V6.98328H0.566667C0.253867 6.98328 0 7.20542 0 7.47912V8.4708C0 8.74451 0.253867 8.96664 0.566667 8.96664H8.61667V10.4542C8.61667 10.6465 8.7436 10.8211 8.94307 10.9034C9.019 10.9341 9.10173 10.95 9.18333 10.95C9.31367 10.95 9.44287 10.9113 9.546 10.835L12.946 8.35577C13.0763 8.26156 13.15 8.12173 13.15 7.97496C13.15 7.82819 13.0763 7.68837 12.946 7.59416Z" fill="#939393"/>
<path d="M17.0879 0H6.21289C5.62639 0 5.15039 0.476 5.15039 1.0625V5.525H7.27539V2.125H16.0254V14.875H7.27539V10.625H5.15039V15.9375C5.15039 16.5251 5.62639 17 6.21289 17H17.0879C17.6755 17 18.1504 16.5251 18.1504 15.9375V1.0625C18.1504 0.476 17.6755 0 17.0879 0Z" fill="#939393"/>
</svg>
