<svg width="18" height="19" viewBox="0 0 18 19" fill="none" xmlns="http://www.w3.org/2000/svg">
<path d="M16.3125 0.25C16.8047 0.25 17.1914 0.425781 17.5078 0.742188C17.8242 1.09375 18 1.48047 18 1.9375C18 2.39453 17.8242 2.78125 17.5078 3.13281L11.8125 8.82812V16.5977C11.8125 17.0547 11.6367 17.4414 11.3555 17.7227C11.0742 18.0391 10.6875 18.2148 10.2656 18.25C9.84375 18.3203 9.45703 18.2148 9.10547 17.9336L6.85547 16.2812C6.39844 15.8945 6.1875 15.4375 6.1875 14.875V8.82812L0.492188 3.13281C0.140625 2.78125 0 2.39453 0 1.9375C0 1.48047 0.140625 1.09375 0.457031 0.742188C0.773438 0.425781 1.19531 0.25 1.6875 0.25H16.3125ZM10.125 8.125L16.3125 1.9375H1.6875L7.875 8.125V14.875L10.125 16.5625V8.125Z" fill="#98A2BD"/>
</svg>
