<svg width="16" height="16" viewBox="0 0 16 16" fill="none" xmlns="http://www.w3.org/2000/svg">
<path d="M14.483 0C14.92 0 15.2634 0.156067 15.5443 0.436988C15.8252 0.749122 15.9813 1.09247 15.9813 1.49824C15.9813 1.90402 15.8252 2.24737 15.5443 2.5595L10.4877 7.61608V14.5142C10.4877 14.92 10.3316 15.2634 10.0819 15.5131C9.83223 15.794 9.48888 15.9501 9.11432 15.9813C8.73976 16.0437 8.39641 15.9501 8.08428 15.7004L6.08662 14.2333C5.68084 13.89 5.49356 13.4842 5.49356 12.9848V7.61608L0.436988 2.5595C0.124854 2.24737 0 1.90402 0 1.49824C0 1.09247 0.124854 0.749122 0.405775 0.436988C0.686695 0.156067 1.06126 0 1.49824 0H14.483ZM8.98947 6.99181L14.483 1.49824H1.49824L6.99181 6.99181V12.9848L8.98947 14.483V6.99181Z" fill="#57606F"/>
</svg>
