<?xml version="1.0" encoding="utf-8"?>
<!-- Generator: Adobe Illustrator 19.2.0, SVG Export Plug-In . SVG Version: 6.00 Build 0)  -->
<svg version="1.1" id="Capa_1" xmlns="http://www.w3.org/2000/svg" xmlns:xlink="http://www.w3.org/1999/xlink" x="0px" y="0px"
	 viewBox="0 0 22 22" style="enable-background:new 0 0 22 22;" xml:space="preserve">
<style type="text/css">
	.st0{fill:#FFFFFF;}
</style>
<g id="Settings">
	<g>
		<path class="st0" d="M21.9,9.8c0-0.3-0.4-0.5-0.7-0.5c-1,0-1.9-0.6-2.3-1.5c-0.4-0.9-0.1-2,0.6-2.7c0.2-0.2,0.3-0.6,0.1-0.8
			c-0.5-0.7-1.1-1.2-1.7-1.8c-0.3-0.2-0.6-0.2-0.8,0.1c-0.7,0.7-1.8,1-2.7,0.6c-0.9-0.4-1.5-1.4-1.5-2.4c0-0.3-0.2-0.6-0.5-0.6
			C11.5,0,10.6,0,9.8,0.1c-0.3,0-0.6,0.3-0.5,0.6c0,1-0.6,2-1.5,2.3C6.9,3.4,5.7,3.1,5,2.4C4.8,2.2,4.5,2.2,4.2,2.4
			C3.5,2.9,2.9,3.5,2.4,4.1C2.2,4.4,2.2,4.7,2.5,4.9c0.8,0.7,1,1.8,0.6,2.7C2.7,8.6,1.8,9.2,0.7,9.2c-0.3,0-0.6,0.2-0.6,0.5
			c-0.1,0.8-0.1,1.7,0,2.5c0,0.3,0.4,0.5,0.7,0.5c1,0,1.9,0.6,2.3,1.5c0.4,0.9,0.1,2-0.6,2.7c-0.2,0.2-0.3,0.6-0.1,0.8
			c0.5,0.7,1.1,1.2,1.7,1.8c0.3,0.2,0.6,0.2,0.8-0.1c0.7-0.7,1.8-1,2.7-0.6c0.9,0.4,1.5,1.4,1.5,2.4c0,0.3,0.2,0.6,0.5,0.6
			c0.4,0,0.8,0.1,1.3,0.1c0.4,0,0.8,0,1.2-0.1c0.3,0,0.6-0.3,0.5-0.6c0-1,0.6-2,1.5-2.3c0.9-0.4,2.1-0.1,2.7,0.6
			c0.2,0.2,0.6,0.3,0.8,0.1c0.7-0.5,1.3-1.1,1.8-1.8c0.2-0.3,0.2-0.6-0.1-0.8c-0.8-0.7-1-1.8-0.6-2.7c0.4-0.9,1.3-1.5,2.3-1.5l0.1,0
			c0.3,0,0.6-0.2,0.6-0.5C22,11.5,22,10.6,21.9,9.8z M11,14.7c-2,0-3.7-1.6-3.7-3.7C7.3,9,9,7.4,11,7.4c2,0,3.7,1.6,3.7,3.7
			C14.7,13,13,14.7,11,14.7z"/>
	</g>
</g>
</svg>
