<svg width="19" height="17" viewBox="0 0 19 17" fill="none" xmlns="http://www.w3.org/2000/svg">
<path d="M18.7974 7.59416L15.424 5.11496C15.2565 4.99199 15.0226 4.96522 14.8258 5.04653C14.6279 5.12785 14.502 5.30338 14.502 5.49577V6.98328H6.51487C6.20452 6.98328 5.95264 7.20542 5.95264 7.47912V8.4708C5.95264 8.74451 6.20452 8.96664 6.51487 8.96664H14.502V10.4542C14.502 10.6465 14.6279 10.8211 14.8258 10.9034C14.9011 10.9341 14.9832 10.95 15.0642 10.95C15.1935 10.95 15.3217 10.9113 15.424 10.835L18.7974 8.35577C18.9268 8.26156 18.9998 8.12173 18.9998 7.97496C18.9998 7.82819 18.9268 7.68837 18.7974 7.59416Z" fill="#939393"/>
<path d="M1.05425 0H11.8442C12.4262 0 12.8984 0.476 12.8984 1.0625V5.525H10.79V2.125H2.10844V14.875H10.79V10.625H12.8984V15.9375C12.8984 16.5251 12.4262 17 11.8442 17H1.05425C0.471278 17 5.24521e-05 16.5251 5.24521e-05 15.9375V1.0625C5.24521e-05 0.476 0.471278 0 1.05425 0Z" fill="#939393"/>
</svg>
