<svg width="11" height="11" viewBox="0 0 11 11" fill="none" xmlns="http://www.w3.org/2000/svg">
<path d="M10.3125 4.875C10.4219 4.875 10.5312 4.92969 10.6133 5.01172C10.6953 5.09375 10.75 5.20312 10.75 5.3125V6.1875C10.75 6.32422 10.6953 6.43359 10.6133 6.51562C10.5312 6.59766 10.4219 6.625 10.3125 6.625H6.375V10.5625C6.375 10.6992 6.32031 10.8086 6.23828 10.8906C6.15625 10.9727 6.04688 11 5.9375 11H5.0625C4.92578 11 4.81641 10.9727 4.73438 10.8906C4.65234 10.8086 4.625 10.6992 4.625 10.5625V6.625H0.6875C0.550781 6.625 0.441406 6.59766 0.359375 6.51562C0.277344 6.43359 0.25 6.32422 0.25 6.1875V5.3125C0.25 5.20312 0.277344 5.09375 0.359375 5.01172C0.441406 4.92969 0.550781 4.875 0.6875 4.875H4.625V0.9375C4.625 0.828125 4.65234 0.71875 4.73438 0.636719C4.81641 0.554688 4.92578 0.5 5.0625 0.5H5.9375C6.04688 0.5 6.15625 0.554688 6.23828 0.636719C6.32031 0.71875 6.375 0.828125 6.375 0.9375V4.875H10.3125Z" fill="white"/>
</svg>
