<svg width="74" height="26" viewBox="0 0 74 26" fill="none" xmlns="http://www.w3.org/2000/svg">
<path d="M14 5.03774C14 4.83566 13.843 4.71008 13.5287 4.66088L9.30532 4.063L7.41232 0.335805C7.30581 0.111897 7.16828 0 7.00004 0C6.83183 0 6.69439 0.111897 6.5878 0.335805L4.69471 4.063L0.471092 4.66088C0.15707 4.71008 0 4.83566 0 5.03774C0 5.15248 0.0701363 5.28354 0.210379 5.43098L3.27292 8.33078L2.54937 12.4265C2.53814 12.5029 2.53257 12.5577 2.53257 12.5903C2.53257 12.705 2.56198 12.8019 2.62086 12.8812C2.67971 12.9605 2.768 13 2.88584 13C2.98686 13 3.09899 12.9674 3.22238 12.9018L6.99996 10.9684L10.7778 12.9018C10.8958 12.9674 11.0079 13 11.1142 13C11.2268 13 11.3121 12.9605 11.371 12.8812C11.4297 12.802 11.4591 12.705 11.4591 12.5903C11.4591 12.5194 11.4563 12.4648 11.4507 12.4265L10.7271 8.33078L13.7811 5.43098C13.9272 5.28899 14 5.15787 14 5.03774Z" fill="#FFBB37"/>
<path d="M14 18.022C14 17.8199 13.843 17.6943 13.5287 17.6451L9.30532 17.0473L7.41232 13.3201C7.30581 13.0961 7.16828 12.9843 7.00004 12.9843C6.83183 12.9843 6.69439 13.0961 6.5878 13.3201L4.69471 17.0473L0.471092 17.6451C0.15707 17.6943 0 17.8199 0 18.022C0 18.1367 0.0701363 18.2678 0.210379 18.4152L3.27292 21.315L2.54937 25.4107C2.53814 25.4872 2.53257 25.542 2.53257 25.5746C2.53257 25.6893 2.56198 25.7862 2.62086 25.8654C2.67971 25.9448 2.768 25.9843 2.88584 25.9843C2.98686 25.9843 3.09899 25.9516 3.22238 25.886L6.99996 23.9526L10.7777 25.8858C10.8956 25.9514 11.0077 25.9843 11.1141 25.9843C11.3443 25.9843 11.4593 25.848 11.4593 25.5748C11.4593 25.5039 11.4565 25.4493 11.4509 25.4108L10.7274 21.3153L13.7814 18.4154C13.9272 18.2732 14 18.1421 14 18.022ZM9.56621 20.9464L10.1718 24.3951L6.99996 22.7649L3.8196 24.3951L4.43382 20.9464L1.85926 18.5134L5.40981 18.0056L6.99993 14.8764L8.58999 18.0056L12.1408 18.5134L9.56621 20.9464Z" fill="#FFBB37"/>
<path d="M29 5.03774C29 4.83566 28.843 4.71008 28.5287 4.66088L24.3053 4.063L22.4123 0.335805C22.3058 0.111897 22.1683 0 22 0C21.8318 0 21.6944 0.111897 21.5878 0.335805L19.6947 4.063L15.4711 4.66088C15.1571 4.71008 15 4.83566 15 5.03774C15 5.15248 15.0701 5.28354 15.2104 5.43098L18.2729 8.33078L17.5494 12.4265C17.5381 12.5029 17.5326 12.5577 17.5326 12.5903C17.5326 12.705 17.562 12.8019 17.6209 12.8812C17.6797 12.9605 17.768 13 17.8858 13C17.9869 13 18.099 12.9674 18.2224 12.9018L22 10.9684L25.7778 12.9018C25.8958 12.9674 26.0079 13 26.1142 13C26.2268 13 26.3121 12.9605 26.371 12.8812C26.4297 12.802 26.4591 12.705 26.4591 12.5903C26.4591 12.5194 26.4563 12.4648 26.4507 12.4265L25.7271 8.33078L28.7811 5.43098C28.9272 5.28899 29 5.15787 29 5.03774Z" fill="#FFBB37"/>
<path d="M29 18.022C29 17.8199 28.843 17.6943 28.5287 17.6451L24.3053 17.0473L22.4123 13.3201C22.3058 13.0961 22.1683 12.9843 22 12.9843C21.8318 12.9843 21.6944 13.0961 21.5878 13.3201L19.6947 17.0473L15.4711 17.6451C15.1571 17.6943 15 17.8199 15 18.022C15 18.1367 15.0701 18.2678 15.2104 18.4152L18.2729 21.315L17.5494 25.4107C17.5381 25.4872 17.5326 25.542 17.5326 25.5746C17.5326 25.6893 17.562 25.7862 17.6209 25.8654C17.6797 25.9448 17.768 25.9843 17.8858 25.9843C17.9869 25.9843 18.099 25.9516 18.2224 25.886L22 23.9526L25.7777 25.8858C25.8956 25.9514 26.0077 25.9843 26.1141 25.9843C26.3443 25.9843 26.4593 25.848 26.4593 25.5748C26.4593 25.5039 26.4565 25.4493 26.4509 25.4108L25.7274 21.3153L28.7814 18.4154C28.9272 18.2732 29 18.1421 29 18.022ZM24.5662 20.9464L25.1718 24.3951L22 22.7649L18.8196 24.3951L19.4338 20.9464L16.8593 18.5134L20.4098 18.0056L21.9999 14.8764L23.59 18.0056L27.1408 18.5134L24.5662 20.9464Z" fill="#FFBB37"/>
<path d="M44 5.03774C44 4.83566 43.843 4.71008 43.5287 4.66088L39.3053 4.063L37.4123 0.335805C37.3058 0.111897 37.1683 0 37 0C36.8318 0 36.6944 0.111897 36.5878 0.335805L34.6947 4.063L30.4711 4.66088C30.1571 4.71008 30 4.83566 30 5.03774C30 5.15248 30.0701 5.28354 30.2104 5.43098L33.2729 8.33078L32.5494 12.4265C32.5381 12.5029 32.5326 12.5577 32.5326 12.5903C32.5326 12.705 32.562 12.8019 32.6209 12.8812C32.6797 12.9605 32.768 13 32.8858 13C32.9869 13 33.099 12.9674 33.2224 12.9018L37 10.9684L40.7778 12.9018C40.8958 12.9674 41.0079 13 41.1142 13C41.2268 13 41.3121 12.9605 41.371 12.8812C41.4297 12.802 41.4591 12.705 41.4591 12.5903C41.4591 12.5194 41.4563 12.4648 41.4507 12.4265L40.7271 8.33078L43.7811 5.43098C43.9272 5.28899 44 5.15787 44 5.03774Z" fill="#FFBB37"/>
<path d="M44 18.022C44 17.8199 43.843 17.6943 43.5287 17.6451L39.3053 17.0473L37.4123 13.3201C37.3058 13.0961 37.1683 12.9843 37 12.9843C36.8318 12.9843 36.6944 13.0961 36.5878 13.3201L34.6947 17.0473L30.4711 17.6451C30.1571 17.6943 30 17.8199 30 18.022C30 18.1367 30.0701 18.2678 30.2104 18.4152L33.2729 21.315L32.5494 25.4107C32.5381 25.4872 32.5326 25.542 32.5326 25.5746C32.5326 25.6893 32.562 25.7862 32.6209 25.8654C32.6797 25.9448 32.768 25.9843 32.8858 25.9843C32.9869 25.9843 33.099 25.9516 33.2224 25.886L37 23.9526L40.7777 25.8858C40.8956 25.9514 41.0077 25.9843 41.1141 25.9843C41.3443 25.9843 41.4593 25.848 41.4593 25.5748C41.4593 25.5039 41.4565 25.4493 41.4509 25.4108L40.7274 21.3153L43.7814 18.4154C43.9272 18.2732 44 18.1421 44 18.022ZM39.5662 20.9464L40.1718 24.3951L37 22.7649L33.8196 24.3951L34.4338 20.9464L31.8593 18.5134L35.4098 18.0056L36.9999 14.8764L38.59 18.0056L42.1408 18.5134L39.5662 20.9464Z" fill="#FFBB37"/>
<path d="M59 5.03774C59 4.83566 58.843 4.71008 58.5287 4.66088L54.3053 4.063L52.4123 0.335805C52.3058 0.111897 52.1683 0 52 0C51.8318 0 51.6944 0.111897 51.5878 0.335805L49.6947 4.063L45.4711 4.66088C45.1571 4.71008 45 4.83566 45 5.03774C45 5.15248 45.0701 5.28354 45.2104 5.43098L48.2729 8.33078L47.5494 12.4265C47.5381 12.5029 47.5326 12.5577 47.5326 12.5903C47.5326 12.705 47.562 12.8019 47.6209 12.8812C47.6797 12.9605 47.768 13 47.8858 13C47.9869 13 48.099 12.9674 48.2224 12.9018L52 10.9684L55.7778 12.9018C55.8958 12.9674 56.0079 13 56.1142 13C56.2268 13 56.3121 12.9605 56.371 12.8812C56.4297 12.802 56.4591 12.705 56.4591 12.5903C56.4591 12.5194 56.4563 12.4648 56.4507 12.4265L55.7271 8.33078L58.7811 5.43098C58.9272 5.28899 59 5.15787 59 5.03774Z" fill="#FFBB37"/>
<path d="M59 18.022C59 17.8199 58.843 17.6943 58.5287 17.6451L54.3053 17.0473L52.4123 13.3201C52.3058 13.0961 52.1683 12.9843 52 12.9843C51.8318 12.9843 51.6944 13.0961 51.5878 13.3201L49.6947 17.0473L45.4711 17.6451C45.1571 17.6943 45 17.8199 45 18.022C45 18.1367 45.0701 18.2678 45.2104 18.4152L48.2729 21.315L47.5494 25.4107C47.5381 25.4872 47.5326 25.542 47.5326 25.5746C47.5326 25.6893 47.562 25.7862 47.6209 25.8654C47.6797 25.9448 47.768 25.9843 47.8858 25.9843C47.9869 25.9843 48.099 25.9516 48.2224 25.886L52 23.9526L55.7777 25.8858C55.8956 25.9514 56.0077 25.9843 56.1141 25.9843C56.3443 25.9843 56.4593 25.848 56.4593 25.5748C56.4593 25.5039 56.4565 25.4493 56.4509 25.4108L55.7274 21.3153L58.7814 18.4154C58.9272 18.2732 59 18.1421 59 18.022ZM54.5662 20.9464L55.1718 24.3951L52 22.7649L48.8196 24.3951L49.4338 20.9464L46.8593 18.5134L50.4098 18.0056L51.9999 14.8764L53.59 18.0056L57.1408 18.5134L54.5662 20.9464Z" fill="#FFBB37"/>
<path d="M74 5.03774C74 4.83566 73.843 4.71008 73.5287 4.66088L69.3053 4.063L67.4123 0.335805C67.3058 0.111897 67.1683 0 67 0C66.8318 0 66.6944 0.111897 66.5878 0.335805L64.6947 4.063L60.4711 4.66088C60.1571 4.71008 60 4.83566 60 5.03774C60 5.15248 60.0701 5.28354 60.2104 5.43098L63.2729 8.33078L62.5494 12.4265C62.5381 12.5029 62.5326 12.5577 62.5326 12.5903C62.5326 12.705 62.562 12.8019 62.6209 12.8812C62.6797 12.9605 62.768 13 62.8858 13C62.9869 13 63.099 12.9674 63.2224 12.9018L67 10.9684L70.7778 12.9018C70.8958 12.9674 71.0079 13 71.1142 13C71.2268 13 71.3121 12.9605 71.371 12.8812C71.4297 12.802 71.4591 12.705 71.4591 12.5903C71.4591 12.5194 71.4563 12.4648 71.4507 12.4265L70.7271 8.33078L73.7811 5.43098C73.9272 5.28899 74 5.15787 74 5.03774Z" fill="#FFBB37"/>
<path d="M74 18.022C74 17.8199 73.843 17.6943 73.5287 17.6451L69.3053 17.0473L67.4123 13.3201C67.3058 13.0961 67.1683 12.9843 67 12.9843C66.8318 12.9843 66.6944 13.0961 66.5878 13.3201L64.6947 17.0473L60.4711 17.6451C60.1571 17.6943 60 17.8199 60 18.022C60 18.1367 60.0701 18.2678 60.2104 18.4152L63.2729 21.315L62.5494 25.4107C62.5381 25.4872 62.5326 25.542 62.5326 25.5746C62.5326 25.6893 62.562 25.7862 62.6209 25.8654C62.6797 25.9448 62.768 25.9843 62.8858 25.9843C62.9869 25.9843 63.099 25.9516 63.2224 25.886L67 23.9526L70.7777 25.8858C70.8956 25.9514 71.0077 25.9843 71.1141 25.9843C71.3443 25.9843 71.4593 25.848 71.4593 25.5748C71.4593 25.5039 71.4565 25.4493 71.4509 25.4108L70.7274 21.3153L73.7814 18.4154C73.9272 18.2732 74 18.1421 74 18.022ZM69.5662 20.9464L70.1718 24.3951L67 22.7649L63.8196 24.3951L64.4338 20.9464L61.8593 18.5134L65.4098 18.0056L66.9999 14.8764L68.59 18.0056L72.1408 18.5134L69.5662 20.9464Z" fill="#FFBB37"/>
</svg>
