<svg width="16" height="16" viewBox="0 0 16 16" fill="none" xmlns="http://www.w3.org/2000/svg">
<path d="M14 0C14.5312 0 15 0.21875 15.4062 0.59375C15.7812 1 16 1.46875 16 2V11C16 11.5625 15.7812 12.0312 15.4062 12.4062C15 12.8125 14.5312 13 14 13H9.5L5.59375 15.9375C5.53125 16 5.4375 16 5.34375 16C5.25 16 5.15625 15.9688 5.09375 15.9062C5.03125 15.8438 5 15.75 5 15.625V13H2C1.4375 13 0.96875 12.8125 0.59375 12.4062C0.1875 12.0312 0 11.5625 0 11V2C0 1.46875 0.1875 1 0.59375 0.59375C0.96875 0.21875 1.4375 0 2 0H14ZM14.5 11V2C14.5 1.875 14.4375 1.75 14.3438 1.65625C14.25 1.5625 14.125 1.5 14 1.5H2C1.84375 1.5 1.71875 1.5625 1.625 1.65625C1.53125 1.75 1.5 1.875 1.5 2V11C1.5 11.1562 1.53125 11.2812 1.625 11.375C1.71875 11.4688 1.84375 11.5 2 11.5H6.5V13.375L9 11.5H14C14.125 11.5 14.25 11.4688 14.3438 11.375C14.4375 11.2812 14.5 11.1562 14.5 11ZM10.1875 7.5C10.3125 7.375 10.4688 7.28125 10.6875 7.25C10.875 7.25 11.0625 7.3125 11.2188 7.4375C11.375 7.5625 11.4688 7.75 11.5 7.9375C11.5 8.15625 11.4375 8.34375 11.3125 8.46875C10.875 8.96875 10.375 9.34375 9.8125 9.59375C9.25 9.875 8.625 10 8 10C7.34375 10 6.71875 9.875 6.15625 9.625C5.59375 9.375 5.09375 8.96875 4.6875 8.46875C4.53125 8.34375 4.46875 8.15625 4.5 7.9375C4.5 7.75 4.59375 7.5625 4.75 7.4375C4.90625 7.3125 5.09375 7.25 5.3125 7.25C5.5 7.28125 5.6875 7.375 5.8125 7.5C6.0625 7.8125 6.40625 8.0625 6.78125 8.25C7.15625 8.4375 7.5625 8.5 8 8.5C8.40625 8.5 8.8125 8.4375 9.1875 8.25C9.5625 8.0625 9.90625 7.8125 10.1875 7.5ZM6 6C5.71875 6 5.46875 5.90625 5.28125 5.71875C5.09375 5.53125 5 5.28125 5 5C5 4.75 5.09375 4.5 5.28125 4.3125C5.46875 4.125 5.71875 4 6 4C6.25 4 6.5 4.125 6.6875 4.3125C6.875 4.5 7 4.75 7 5C7 5.28125 6.875 5.53125 6.6875 5.71875C6.5 5.90625 6.25 6 6 6ZM10 6C9.71875 6 9.46875 5.90625 9.28125 5.71875C9.09375 5.53125 9 5.28125 9 5C9 4.75 9.09375 4.5 9.28125 4.3125C9.46875 4.125 9.71875 4 10 4C10.25 4 10.5 4.125 10.6875 4.3125C10.875 4.5 11 4.75 11 5C11 5.28125 10.875 5.53125 10.6875 5.71875C10.5 5.90625 10.25 6 10 6Z" fill="#57606F"/>
</svg>
