<svg width="15" height="15" viewBox="0 0 15 15" fill="none" xmlns="http://www.w3.org/2000/svg">
<path d="M13.2155 6.91554C13.2155 7.30769 13.2155 7.69985 13.2155 8.06184L14.1506 8.60483C14.2713 8.69532 14.392 8.81599 14.4523 8.96682C14.5126 9.14781 14.5428 9.29864 14.5126 9.41931C14.1506 10.7164 13.487 11.8326 12.5518 12.7677C12.4312 12.8884 12.3105 12.9789 12.1597 12.9789C11.9787 13.009 11.8279 12.9789 11.677 12.8884L10.7419 12.3454C10.4101 12.5867 10.0782 12.7677 9.74642 12.9186V14.0045C9.74642 14.1855 9.68609 14.3665 9.59559 14.4872C9.47492 14.6078 9.35426 14.6983 9.20343 14.7285C7.9063 15.0905 6.60916 15.0905 5.34219 14.7285C5.1612 14.6983 5.04054 14.6078 4.95004 14.4872C4.82937 14.3665 4.79921 14.1855 4.79921 14.0045V12.9186C4.43722 12.7677 4.10539 12.5867 3.80373 12.3454L2.86859 12.8884C2.68759 12.9789 2.53676 13.009 2.38594 12.9789C2.20494 12.9789 2.08428 12.8884 1.99378 12.7677C1.02847 11.8326 0.394985 10.7164 0.032994 9.41931C-0.0273379 9.29864 0.00282805 9.14781 0.0631599 8.96682C0.123492 8.81599 0.244155 8.69532 0.394985 8.60483L1.33013 8.06184C1.29996 7.69985 1.29996 7.30769 1.33013 6.91554L0.394985 6.37255C0.244155 6.31222 0.123492 6.19155 0.0631599 6.01056C0.00282805 5.85973 -0.0273379 5.7089 0.032994 5.55807C0.394985 4.2911 1.02847 3.17496 1.99378 2.20965C2.08428 2.08899 2.20494 2.02866 2.38594 1.99849C2.53676 1.99849 2.68759 2.02866 2.86859 2.08899L3.80373 2.63198C4.10539 2.42081 4.43722 2.23982 4.79921 2.05882V0.972851C4.79921 0.791855 4.82937 0.641026 4.95004 0.520362C5.04054 0.399698 5.1612 0.309201 5.34219 0.248869C6.60916 -0.0829563 7.9063 -0.0829563 9.20343 0.248869C9.35426 0.309201 9.47492 0.399698 9.59559 0.520362C9.68609 0.641026 9.74642 0.791855 9.74642 0.972851V2.05882C10.0782 2.23982 10.4101 2.42081 10.7419 2.63198L11.677 2.08899C11.8279 2.02866 11.9787 1.99849 12.1597 1.99849C12.3105 2.02866 12.4312 2.08899 12.5518 2.20965C13.487 3.17496 14.1506 4.2911 14.5126 5.55807C14.5428 5.7089 14.5126 5.85973 14.4523 6.01056C14.392 6.19155 14.2713 6.31222 14.1506 6.37255L13.2155 6.91554ZM11.6167 8.81599C11.7374 8.21267 11.7977 7.76018 11.7977 7.48869C11.7977 7.24736 11.7374 6.79487 11.6167 6.16139L12.944 5.40724C12.7027 4.77376 12.3407 4.17044 11.9184 3.62745L10.5911 4.3816C10.1084 3.98944 9.74642 3.71795 9.50509 3.59729C9.26376 3.47662 8.87161 3.29563 8.29845 3.0543V1.546C7.60464 1.42534 6.91082 1.42534 6.24717 1.546V3.0543C5.64385 3.29563 5.2517 3.47662 5.01037 3.59729C4.76904 3.71795 4.43722 3.98944 3.95456 4.3816L2.62726 3.62745C2.17477 4.17044 1.84295 4.77376 1.60162 5.40724L2.92892 6.16139C2.80826 6.79487 2.74793 7.24736 2.74793 7.48869C2.74793 7.76018 2.80826 8.21267 2.92892 8.81599L1.60162 9.57014C1.84295 10.2338 2.17477 10.8069 2.62726 11.3499L3.95456 10.5958C4.43722 11.0181 4.76904 11.2896 5.01037 11.4103C5.2517 11.5309 5.64385 11.7119 6.24717 11.9231V13.4314C6.91082 13.552 7.60464 13.552 8.29845 13.4314V11.9231C8.87161 11.7119 9.26376 11.5309 9.50509 11.4103C9.74642 11.2896 10.1084 11.0181 10.5911 10.5958L11.9184 11.3499C12.3407 10.8069 12.7027 10.2338 12.944 9.57014L11.6167 8.81599ZM7.27281 4.59276C8.05713 4.59276 8.75094 4.89442 9.3241 5.43741C9.86708 6.01056 10.1687 6.70437 10.1687 7.48869C10.1687 8.30317 9.86708 8.99698 9.3241 9.53997C8.75094 10.1131 8.05713 10.3846 7.27281 10.3846C6.45833 10.3846 5.76452 10.1131 5.22153 9.53997C4.64838 8.99698 4.37689 8.30317 4.37689 7.48869C4.37689 6.70437 4.64838 6.01056 5.22153 5.43741C5.76452 4.89442 6.45833 4.59276 7.27281 4.59276ZM7.27281 8.93665C7.66497 8.93665 7.99679 8.81599 8.29845 8.51433C8.56995 8.24284 8.72078 7.91101 8.72078 7.48869C8.72078 7.09653 8.56995 6.76471 8.29845 6.46305C7.99679 6.19155 7.66497 6.04072 7.27281 6.04072C6.85049 6.04072 6.51867 6.19155 6.24717 6.46305C5.94551 6.76471 5.82485 7.09653 5.82485 7.48869C5.82485 7.91101 5.94551 8.24284 6.24717 8.51433C6.51867 8.81599 6.85049 8.93665 7.27281 8.93665Z" fill="#57606F"/>
</svg>
