<svg width="20" height="21" viewBox="0 0 20 21" fill="none" xmlns="http://www.w3.org/2000/svg">
<path d="M17.6953 9.75781C17.6953 10.2656 17.6953 10.7734 17.6953 11.2422L18.9062 11.9453C19.0625 12.0625 19.2188 12.2188 19.2969 12.4141C19.375 12.6484 19.4141 12.8438 19.375 13C18.9062 14.6797 18.0469 16.125 16.8359 17.3359C16.6797 17.4922 16.5234 17.6094 16.3281 17.6094C16.0938 17.6484 15.8984 17.6094 15.7031 17.4922L14.4922 16.7891C14.0625 17.1016 13.6328 17.3359 13.2031 17.5312V18.9375C13.2031 19.1719 13.125 19.4062 13.0078 19.5625C12.8516 19.7188 12.6953 19.8359 12.5 19.875C10.8203 20.3438 9.14062 20.3438 7.5 19.875C7.26562 19.8359 7.10938 19.7188 6.99219 19.5625C6.83594 19.4062 6.79688 19.1719 6.79688 18.9375V17.5312C6.32812 17.3359 5.89844 17.1016 5.50781 16.7891L4.29688 17.4922C4.0625 17.6094 3.86719 17.6484 3.67188 17.6094C3.4375 17.6094 3.28125 17.4922 3.16406 17.3359C1.91406 16.125 1.09375 14.6797 0.625 13C0.546875 12.8438 0.585938 12.6484 0.664062 12.4141C0.742188 12.2188 0.898438 12.0625 1.09375 11.9453L2.30469 11.2422C2.26562 10.7734 2.26562 10.2656 2.30469 9.75781L1.09375 9.05469C0.898438 8.97656 0.742188 8.82031 0.664062 8.58594C0.585938 8.39062 0.546875 8.19531 0.625 8C1.09375 6.35938 1.91406 4.91406 3.16406 3.66406C3.28125 3.50781 3.4375 3.42969 3.67188 3.39062C3.86719 3.39062 4.0625 3.42969 4.29688 3.50781L5.50781 4.21094C5.89844 3.9375 6.32812 3.70312 6.79688 3.46875V2.0625C6.79688 1.82812 6.83594 1.63281 6.99219 1.47656C7.10938 1.32031 7.26562 1.20312 7.5 1.125C9.14062 0.695312 10.8203 0.695312 12.5 1.125C12.6953 1.20312 12.8516 1.32031 13.0078 1.47656C13.125 1.63281 13.2031 1.82812 13.2031 2.0625V3.46875C13.6328 3.70312 14.0625 3.9375 14.4922 4.21094L15.7031 3.50781C15.8984 3.42969 16.0938 3.39062 16.3281 3.39062C16.5234 3.42969 16.6797 3.50781 16.8359 3.66406C18.0469 4.91406 18.9062 6.35938 19.375 8C19.4141 8.19531 19.375 8.39062 19.2969 8.58594C19.2188 8.82031 19.0625 8.97656 18.9062 9.05469L17.6953 9.75781ZM15.625 12.2188C15.7812 11.4375 15.8594 10.8516 15.8594 10.5C15.8594 10.1875 15.7812 9.60156 15.625 8.78125L17.3438 7.80469C17.0312 6.98438 16.5625 6.20312 16.0156 5.5L14.2969 6.47656C13.6719 5.96875 13.2031 5.61719 12.8906 5.46094C12.5781 5.30469 12.0703 5.07031 11.3281 4.75781V2.80469C10.4297 2.64844 9.53125 2.64844 8.67188 2.80469V4.75781C7.89062 5.07031 7.38281 5.30469 7.07031 5.46094C6.75781 5.61719 6.32812 5.96875 5.70312 6.47656L3.98438 5.5C3.39844 6.20312 2.96875 6.98438 2.65625 7.80469L4.375 8.78125C4.21875 9.60156 4.14062 10.1875 4.14062 10.5C4.14062 10.8516 4.21875 11.4375 4.375 12.2188L2.65625 13.1953C2.96875 14.0547 3.39844 14.7969 3.98438 15.5L5.70312 14.5234C6.32812 15.0703 6.75781 15.4219 7.07031 15.5781C7.38281 15.7344 7.89062 15.9688 8.67188 16.2422V18.1953C9.53125 18.3516 10.4297 18.3516 11.3281 18.1953V16.2422C12.0703 15.9688 12.5781 15.7344 12.8906 15.5781C13.2031 15.4219 13.6719 15.0703 14.2969 14.5234L16.0156 15.5C16.5625 14.7969 17.0312 14.0547 17.3438 13.1953L15.625 12.2188ZM10 6.75C11.0156 6.75 11.9141 7.14062 12.6562 7.84375C13.3594 8.58594 13.75 9.48438 13.75 10.5C13.75 11.5547 13.3594 12.4531 12.6562 13.1562C11.9141 13.8984 11.0156 14.25 10 14.25C8.94531 14.25 8.04688 13.8984 7.34375 13.1562C6.60156 12.4531 6.25 11.5547 6.25 10.5C6.25 9.48438 6.60156 8.58594 7.34375 7.84375C8.04688 7.14062 8.94531 6.75 10 6.75ZM10 12.375C10.5078 12.375 10.9375 12.2188 11.3281 11.8281C11.6797 11.4766 11.875 11.0469 11.875 10.5C11.875 9.99219 11.6797 9.5625 11.3281 9.17188C10.9375 8.82031 10.5078 8.625 10 8.625C9.45312 8.625 9.02344 8.82031 8.67188 9.17188C8.28125 9.5625 8.125 9.99219 8.125 10.5C8.125 11.0469 8.28125 11.4766 8.67188 11.8281C9.02344 12.2188 9.45312 12.375 10 12.375Z" fill="#98A2BD"/>
</svg>
