<svg width="20" height="16" viewBox="0 0 20 16" fill="none" xmlns="http://www.w3.org/2000/svg">
<path d="M19.5 11.5C19.625 11.5 19.75 11.5625 19.8438 11.6562C19.9375 11.75 20 11.875 20 12V12.5C20 12.6562 19.9375 12.7812 19.8438 12.875C19.75 12.9688 19.625 13 19.5 13H18C18 13.8438 17.6875 14.5625 17.125 15.125C16.5312 15.7188 15.8125 16 15 16C14.1562 16 13.4375 15.7188 12.875 15.125C12.2812 14.5625 12 13.8438 12 13H8C8 13.8438 7.6875 14.5625 7.125 15.125C6.53125 15.7188 5.8125 16 5 16C4.15625 16 3.4375 15.7188 2.875 15.125C2.28125 14.5625 2 13.8438 2 13V9H3.5V10.4062C3.96875 10.1562 4.46875 10 5 10C5.53125 10 6.03125 10.1562 6.5 10.4062C6.9375 10.6875 7.3125 11.0625 7.59375 11.5H11.5V1.75C11.5 1.6875 11.4688 1.65625 11.4062 1.59375C11.3438 1.53125 11.3125 1.5 11.25 1.5H3.75C3.6875 1.5 3.625 1.53125 3.5625 1.59375C3.5 1.65625 3.5 1.6875 3.5 1.75V3H7.75C7.8125 3 7.84375 3.03125 7.90625 3.09375C7.96875 3.15625 8 3.1875 8 3.25V3.75C8 3.8125 7.96875 3.875 7.90625 3.9375C7.84375 4 7.8125 4 7.75 4H0.25C0.1875 4 0.125 4 0.0625 3.9375C0 3.875 0 3.8125 0 3.75V3.25C0 3.1875 0 3.15625 0.0625 3.09375C0.125 3.03125 0.1875 3 0.25 3H2V1.75C2 1.28125 2.15625 0.875 2.5 0.53125C2.84375 0.1875 3.25 0 3.75 0H11.25C11.7188 0 12.125 0.1875 12.4688 0.53125C12.8125 0.875 13 1.28125 13 1.75V3H14.125C14.75 3 15.2812 3.21875 15.7188 3.65625L18.3438 6.28125C18.7812 6.71875 19 7.25 19 7.875V11.5H19.5ZM5 14.5C5.40625 14.5 5.75 14.375 6.0625 14.0625C6.34375 13.7812 6.5 13.4375 6.5 13C6.5 12.5938 6.34375 12.25 6.0625 11.9375C5.75 11.6562 5.40625 11.5 5 11.5C4.5625 11.5 4.21875 11.6562 3.9375 11.9375C3.625 12.25 3.5 12.5938 3.5 13C3.5 13.4375 3.625 13.7812 3.9375 14.0625C4.21875 14.375 4.5625 14.5 5 14.5ZM13 4.5V7H16.9375L14.6562 4.71875C14.5 4.59375 14.3125 4.5 14.125 4.5H13ZM15 14.5C15.4062 14.5 15.75 14.375 16.0625 14.0625C16.3438 13.7812 16.5 13.4375 16.5 13C16.5 12.5938 16.3438 12.25 16.0625 11.9375C15.75 11.6562 15.4062 11.5 15 11.5C14.5625 11.5 14.2188 11.6562 13.9375 11.9375C13.625 12.25 13.5 12.5938 13.5 13C13.5 13.4375 13.625 13.7812 13.9375 14.0625C14.2188 14.375 14.5625 14.5 15 14.5ZM17.5 11.3438V8.5H13V10.7812C13.5625 10.2812 14.25 10 15 10C15.5 10 16 10.125 16.4375 10.375C16.875 10.625 17.2188 10.9375 17.5 11.3438ZM8 7.75C8 7.8125 7.96875 7.875 7.90625 7.9375C7.84375 8 7.8125 8 7.75 8H0.25C0.1875 8 0.125 8 0.0625 7.9375C0 7.875 0 7.8125 0 7.75V7.25C0 7.1875 0 7.15625 0.0625 7.09375C0.125 7.03125 0.1875 7 0.25 7H7.75C7.8125 7 7.84375 7.03125 7.90625 7.09375C7.96875 7.15625 8 7.1875 8 7.25V7.75ZM8.75 6H1.25C1.1875 6 1.125 6 1.0625 5.9375C1 5.875 1 5.8125 1 5.75V5.25C1 5.1875 1 5.15625 1.0625 5.09375C1.125 5.03125 1.1875 5 1.25 5H8.75C8.8125 5 8.84375 5.03125 8.90625 5.09375C8.96875 5.15625 9 5.1875 9 5.25V5.75C9 5.8125 8.96875 5.875 8.90625 5.9375C8.84375 6 8.8125 6 8.75 6Z" fill="#57606F"/>
</svg>
