<svg width="13" height="13" viewBox="0 0 13 13" fill="none" xmlns="http://www.w3.org/2000/svg">
<path d="M11.9297 4.53125L8.48438 4.01562L6.96094 0.921875C6.88281 0.78125 6.78125 0.679688 6.65625 0.617188C6.54688 0.539063 6.42188 0.5 6.28125 0.5C6.14062 0.5 6.00781 0.539063 5.88281 0.617188C5.77344 0.679688 5.67969 0.78125 5.60156 0.921875L4.07812 4.01562L0.632812 4.50781C0.445312 4.53906 0.289062 4.63281 0.164062 4.78906C0.0546875 4.94531 0 5.11719 0 5.30469C0 5.49219 0.078125 5.65625 0.234375 5.79688L2.71875 8.21094L2.13281 11.6328C2.08594 11.8672 2.14062 12.0703 2.29688 12.2422C2.45312 12.4141 2.64062 12.5 2.85938 12.5C2.98438 12.5 3.10156 12.4688 3.21094 12.4062L6.28125 10.8125L9.35156 12.4062C9.46094 12.4688 9.57812 12.5 9.70312 12.5C9.92188 12.5 10.1094 12.4141 10.2656 12.2422C10.4219 12.0703 10.4766 11.8672 10.4297 11.6328L9.84375 8.21094L12.3281 5.79688C12.4844 5.65625 12.5625 5.49219 12.5625 5.30469C12.5625 5.11719 12.5 4.94531 12.375 4.78906C12.2656 4.63281 12.1172 4.54688 11.9297 4.53125ZM9.07031 7.41406L8.64844 7.8125L9.1875 11.0703L6.28125 9.52344V2.09375L7.73438 5.04688L10.9922 5.51562L9.07031 7.41406Z" fill="#FFBB37"/>
</svg>
