<svg width="14" height="13" viewBox="0 0 14 13" fill="none" xmlns="http://www.w3.org/2000/svg">
<path d="M6.07031 0.921875L4.54688 4.01562L1.125 4.50781C0.921875 4.53906 0.757812 4.63281 0.632812 4.78906C0.523438 4.94531 0.46875 5.11719 0.46875 5.30469C0.484375 5.49219 0.5625 5.65625 0.703125 5.79688L3.1875 8.21094L2.60156 11.6328C2.57031 11.8203 2.60156 11.9922 2.69531 12.1484C2.80469 12.3203 2.95312 12.4297 3.14062 12.4766C3.32812 12.5234 3.50781 12.5 3.67969 12.4062L6.75 10.8125L9.82031 12.4062C9.99219 12.5 10.1719 12.5234 10.3594 12.4766C10.5469 12.4297 10.6875 12.3203 10.7812 12.1484C10.8906 11.9922 10.9297 11.8203 10.8984 11.6328L10.3125 8.21094L12.7969 5.79688C12.9375 5.65625 13.0078 5.49219 13.0078 5.30469C13.0234 5.11719 12.9688 4.94531 12.8438 4.78906C12.7344 4.63281 12.5781 4.53906 12.375 4.50781L8.95312 4.01562L7.42969 0.921875C7.33594 0.734375 7.19531 0.609375 7.00781 0.546875C6.83594 0.484375 6.65625 0.484375 6.46875 0.546875C6.29688 0.609375 6.16406 0.734375 6.07031 0.921875Z" fill="#FFBB37"/>
</svg>
