<svg width="14" height="13" viewBox="0 0 14 13" fill="none" xmlns="http://www.w3.org/2000/svg">
<path d="M12.375 4.50781C12.5625 4.55469 12.7266 4.64844 12.8438 4.78906C12.9609 4.95312 13.0078 5.11719 13.0078 5.30469C13.0078 5.49219 12.9375 5.65625 12.7969 5.79688L10.3125 8.21094L10.8984 11.6328C10.9219 11.8203 10.875 12.0078 10.7812 12.1719C10.6875 12.3359 10.5469 12.4297 10.3594 12.4766C10.1719 12.5234 9.98438 12.5 9.82031 12.4062L6.75 10.8125L3.67969 12.4062C3.49219 12.5 3.32812 12.5234 3.14062 12.4766C2.95312 12.4297 2.78906 12.3359 2.69531 12.1719C2.60156 12.0078 2.55469 11.8203 2.60156 11.6328L3.1875 8.21094L0.703125 5.79688C0.5625 5.65625 0.46875 5.49219 0.46875 5.30469C0.46875 5.11719 0.515625 4.95312 0.632812 4.78906C0.75 4.64844 0.914062 4.55469 1.125 4.50781L4.54688 4.01562L6.07031 0.921875C6.16406 0.734375 6.28125 0.617188 6.46875 0.546875C6.65625 0.5 6.82031 0.5 7.00781 0.546875C7.19531 0.617188 7.33594 0.734375 7.42969 0.921875L8.95312 4.01562L12.375 4.50781ZM9.11719 7.8125L11.4609 5.51562L8.20312 5.04688L6.75 2.09375L5.29688 5.04688L2.03906 5.51562L4.38281 7.8125L3.84375 11.0703L6.75 9.52344L9.65625 11.0703L9.11719 7.8125Z" fill="#FFBB37"/>
</svg>
