<svg width="15" height="15" viewBox="0 0 15 15" fill="none" xmlns="http://www.w3.org/2000/svg">
<path d="M7.5 0C8.83065 0 10.1008 0.362903 11.25 1.02823C12.3992 1.69355 13.3065 2.60081 13.9718 3.75C14.6371 4.89919 15 6.16935 15 7.5C15 8.86089 14.6371 10.1008 13.9718 11.25C13.3065 12.3992 12.3992 13.3367 11.25 14.002C10.1008 14.6673 8.83065 15 7.5 15C6.13911 15 4.89919 14.6673 3.75 14.002C2.60081 13.3367 1.66331 12.3992 0.997984 11.25C0.332661 10.1008 0 8.86089 0 7.5C0 6.16935 0.332661 4.89919 0.997984 3.75C1.66331 2.60081 2.60081 1.69355 3.75 1.02823C4.89919 0.362903 6.13911 0 7.5 0ZM7.5 1.45161C6.41129 1.45161 5.38306 1.72379 4.47581 2.26815C3.53831 2.8125 2.8125 3.56855 2.26815 4.47581C1.72379 5.41331 1.45161 6.41129 1.45161 7.5C1.45161 8.58871 1.72379 9.61694 2.26815 10.5242C2.8125 11.4617 3.53831 12.1875 4.47581 12.7319C5.38306 13.2762 6.41129 13.5484 7.5 13.5484C8.58871 13.5484 9.58669 13.2762 10.5242 12.7319C11.4315 12.1875 12.1875 11.4617 12.7319 10.5242C13.2762 9.61694 13.5484 8.58871 13.5484 7.5C13.5484 6.41129 13.2762 5.41331 12.7319 4.47581C12.1875 3.56855 11.4315 2.8125 10.5242 2.26815C9.58669 1.72379 8.58871 1.45161 7.5 1.45161ZM11.7339 5.38306C11.7944 5.47379 11.8548 5.56452 11.8548 5.65524C11.8548 5.77621 11.7944 5.83669 11.7339 5.89718L6.53226 11.0685C6.44153 11.1593 6.35081 11.1895 6.26008 11.1895C6.13911 11.1895 6.07863 11.1593 6.01815 11.0685L3.26613 8.31653C3.1754 8.25605 3.14516 8.16532 3.14516 8.04435C3.14516 7.95363 3.1754 7.8629 3.26613 7.80242L3.96169 7.10685C4.02218 7.04637 4.08266 7.01613 4.20363 7.01613C4.29435 7.01613 4.38508 7.04637 4.47581 7.10685L6.26008 8.95161L10.5544 4.6875C10.6149 4.62702 10.6754 4.59677 10.7964 4.59677C10.8871 4.59677 10.9778 4.65726 11.0685 4.71774L11.7339 5.38306Z" fill="#808E9B"/>
</svg>
