<?xml version="1.0" standalone="no"?>
<!DOCTYPE svg PUBLIC "-//W3C//DTD SVG 1.1//EN" "http://www.w3.org/Graphics/SVG/1.1/DTD/svg11.dtd" >
<!--
2019-4-26: Created with FontForge (http://fontforge.org)
-->
<svg xmlns="http://www.w3.org/2000/svg" xmlns:xlink="http://www.w3.org/1999/xlink" version="1.1">
<metadata>
Created by FontForge 20170731 at Fri Apr 26 07:23:32 2019
 By root

</metadata>
<defs>
<font id="Flaticon" horiz-adv-x="512" >
  <font-face 
    font-family="Flaticon"
    font-weight="400"
    font-stretch="normal"
    units-per-em="512"
    panose-1="2 0 5 3 0 0 0 0 0 0"
    ascent="448"
    descent="-64"
    bbox="-1.40443 -64.001 513.054 449.011"
    underline-thickness="25.6"
    underline-position="-51.2"
    unicode-range="U+0020-F137"
  />
    <missing-glyph />
    <glyph glyph-name="space" unicode=" " horiz-adv-x="200" 
 />
    <glyph glyph-name="031-shopping-cart-12" unicode="&#xf11c;" 
d="M504.109 355.804c2.75488 -0.0878906 5.32715 -1.41504 6.99512 -3.60742c1.70312 -2.22266 2.33203 -5.08301 1.7207 -7.81641l-40.4541 -175.659c-4.51562 -20.0391 -22.3184 -34.2666 -42.8555 -34.2617h-266.703l9.5459 -59.8174
c0.00878906 -0.0478516 0.0175781 0.0566406 0.0263672 0c0.279297 -2.20898 2.14355 -3.87305 4.37109 -3.90332h13.0957c3.81641 20.1221 20.9385 35.2139 41.4277 35.2139c20.4854 0 37.6074 -15.0918 41.4238 -35.2139h106.804
c3.81641 20.1221 20.9385 35.2002 41.4229 35.2002c23.2842 0 42.2275 -19.5938 42.2275 -43.668s-18.9434 -43.6553 -42.2275 -43.6553c-20.1484 0 -37.0391 14.1143 -41.2227 34.2363h-107.205c-4.18359 -20.1221 -21.0742 -34.2275 -41.2227 -34.2275
c-20.1523 0 -37.0439 14.1055 -41.2227 34.2275h-13.5459c-11.0654 0.113281 -20.3662 8.34473 -21.8252 19.3145l-52.5068 329.921c-2.51465 15.8125 -15.3711 27.498 -30.5674 27.498h-62.668c-4.93945 0 -8.94336 4.00488 -8.94336 8.94336
s4.00391 8.94336 8.94336 8.94336h62.668c24.0391 0 44.3232 -17.8252 48.2314 -42.3799l7.84766 -49.2881h376.419zM420.938 88.0439h-0.00390625c-13.4189 0 -24.3359 -11.5684 -24.3359 -25.7773c0 -14.2139 10.917 -25.7734 24.3398 -25.7734
c13.4199 0 24.3408 11.5596 24.3408 25.7734s-10.9209 25.7773 -24.3408 25.7773zM231.279 88.0439c-13.4238 0 -24.3408 -11.5684 -24.3408 -25.7773c0 -14.2139 10.9219 -25.7734 24.3408 -25.7734c13.4238 0 24.3408 11.5596 24.3408 25.7734
s-10.917 25.7773 -24.3408 25.7773zM454.943 172.935l37.9297 164.982h-362.336l29.4277 -185.572h269.551c12.2314 0.109375 22.7725 8.64648 25.4277 20.5898zM454.943 172.935zM312.585 160.397c-46.3271 0.0527344 -83.8643 37.5898 -83.917 83.917
c0 46.3447 37.5674 83.9131 83.917 83.9131c46.3447 0 83.917 -37.5684 83.917 -83.9131c0 -46.3496 -37.5723 -83.917 -83.917 -83.917zM312.585 310.341v-0.00488281c-36.4492 -0.0390625 -65.9863 -29.5762 -66.0303 -66.0215
c0 -36.4717 29.5586 -66.0352 66.0303 -66.0352c36.4678 0 66.0303 29.5635 66.0303 66.0303c0 36.4678 -29.5625 66.0312 -66.0303 66.0312zM312.585 310.341zM269.078 237.306c-4.93848 0 -8.94238 4.00391 -8.94238 8.94336c0 4.93848 4.00391 8.94336 8.94238 8.94336
h34.4023v34.502c0 4.93848 4 8.94336 8.94336 8.94336c4.93848 0 8.94336 -4.00488 8.94336 -8.94336v-34.502h34.7197c4.94336 0 8.94336 -4.00488 8.94336 -8.94336c0 -4.93945 -4 -8.94336 -8.94336 -8.94336h-34.7197v-34.624
c0 -4.93945 -4.00488 -8.94336 -8.94336 -8.94336c-4.94336 0 -8.94336 4.00391 -8.94336 8.94336v34.624h-34.4023zM269.078 237.306z" />
    <glyph glyph-name="038-supermarket-1" unicode="&#xf123;" 
d="M272.394 217.468l-36.8467 36.7402c-4.96191 4.96289 -4.96191 12.9863 0 17.9482c4.96191 4.96289 12.9863 4.96289 17.9482 0l27.8721 -27.8721l69.0479 69.1533c4.96191 4.96191 12.9854 4.96191 17.9473 0c4.96289 -4.96289 4.96289 -12.9863 0 -17.9482
l-78.0205 -78.0215c-2.53418 -2.42871 -5.70117 -3.69531 -8.97461 -3.69531c-3.27246 0 -6.5459 1.2666 -8.97363 3.69531zM153.092 111.891c-11.6133 0 -22.4883 3.58984 -31.4619 9.60742v-41.7021c0 -17.3145 14.042 -31.4619 31.4619 -31.4619h270.276
c30.9346 0 56.167 -25.2334 56.167 -56.167c0 -30.9346 -25.2324 -56.167 -56.167 -56.167c-30.9336 0 -56.167 25.2324 -56.167 56.167c0 11.4023 3.37891 21.96 9.18555 30.8281h-134.399c5.80664 -8.86816 9.18555 -19.4258 9.18555 -30.8281
c0 -30.9346 -25.2334 -56.167 -56.167 -56.167c-30.9346 0 -56.167 25.2324 -56.167 56.167c0 11.5078 3.48438 22.1709 9.39648 31.0391c-29.1396 2.42871 -52.0498 26.8174 -52.0498 56.5898v89.001v70.4199v78.7598v10.2412v65.7744l-70.208 29.667
c-6.44043 2.74512 -9.50195 10.2412 -6.75684 16.5752c2.74414 6.44043 10.1348 9.50195 16.5752 6.75781l78.0215 -32.7295c0.421875 -0.210938 0.844727 -0.421875 1.2666 -0.632812c0 -0.106445 0.105469 -0.211914 0.210938 -0.211914
c0.210938 -0.210938 0.52832 -0.316406 0.739258 -0.527344c0.210938 -0.105469 0.421875 -0.317383 0.633789 -0.422852l0.316406 -0.316406c0.210938 -0.105469 0.421875 -0.316406 0.633789 -0.52832c0.105469 0 0.210938 -0.105469 0.316406 -0.210938
c0.210938 -0.210938 0.316406 -0.421875 0.52832 -0.632812c0.105469 -0.106445 0.210938 -0.211914 0.316406 -0.317383s0.316406 -0.316406 0.421875 -0.527344c0.105469 -0.105469 0.211914 -0.317383 0.317383 -0.422852
c0.105469 -0.210938 0.210938 -0.316406 0.316406 -0.527344c0.105469 -0.211914 0.210938 -0.422852 0.316406 -0.633789c0.105469 -0.105469 0.105469 -0.316406 0.211914 -0.421875c0.105469 -0.211914 0.210938 -0.52832 0.316406 -0.739258
c0 -0.105469 0.105469 -0.210938 0.105469 -0.317383c0.105469 -0.316406 0.210938 -0.527344 0.316406 -0.84375c0 -0.105469 0.105469 -0.317383 0.105469 -0.422852c0.106445 -0.210938 0.211914 -0.527344 0.211914 -0.739258
c0 -0.210938 0.105469 -0.527344 0.105469 -0.84375v-0.317383c0.105469 -0.421875 0.105469 -0.950195 0.105469 -1.37207v-74.1152v-10.2412v-78.7598v-70.4199c0 -17.3145 14.042 -31.4619 31.4619 -31.4619h283.896c17.3154 0 31.4619 14.042 31.4619 31.4619v119.513
c0 6.96875 5.70117 12.6699 12.6699 12.6699c6.96777 0 12.6689 -5.70117 12.6689 -12.6699v-119.618c0 -31.251 -25.4443 -56.8008 -56.8008 -56.8008h-283.896zM225.834 -7.83301c0 16.998 -13.8301 30.8281 -30.8281 30.8281s-30.8291 -13.8301 -30.8291 -30.8281
s13.8311 -30.8281 30.8291 -30.8281s30.8281 13.8301 30.8281 30.8281zM454.091 -7.83301c0 16.998 -13.8301 30.8281 -30.8281 30.8281s-30.8281 -13.8301 -30.8281 -30.8281s13.8301 -30.8281 30.8281 -30.8281s30.8281 13.8301 30.8281 30.8281z" />
    <glyph glyph-name="022-shopping-cart-6" unicode="&#xf113;" 
d="M156.839 147.436v0c-14.1064 0 -26.1221 -12.0166 -26.123 -26.332c0 -14.1064 11.9121 -26.1221 26.123 -26.1221h294.139v-21.8389h-294.139c-26.123 0 -47.9609 21.8389 -47.9609 47.9609c0 15.9873 7.83691 29.9893 19.749 38.5566l-57.7832 226.116
c-4.38867 16.4053 -18.5996 27.2725 -34.8994 27.2725h-35.9443v21.8379h35.9443c26.2266 0 49.0059 -18.4941 55.5889 -44.6172l13.0605 -52.2451h62.9023l-16.0908 49.0059l117.655 38.1396l29.0488 -87.1455h5.53809l-16.0918 49.0059l117.655 38.1396l28.2119 -87.1455
h78.5762l-53.3936 -190.589h-301.767zM391.105 398.002l-77.3223 -25.0781l12.0166 -33.75h84.9492zM254.955 398.002l-77.3223 -25.0781l12.0156 -33.75h84.9502zM483.684 317.336v0l-373.656 -0.000976562l38.1387 -148.166h294.139zM355.16 40.6465
c25.0781 0 45.7676 -20.6895 45.7666 -45.7666c0 -25.0771 -19.6436 -45.7666 -45.7666 -45.7666c-25.0771 0 -45.7666 20.6895 -45.7666 45.7666s20.6895 45.7666 45.7666 45.7666zM355.16 -30.1973c13.0615 0 25.0781 10.8662 25.0771 25.0771
c0 14.2109 -10.8662 25.0771 -25.0771 25.0771c-13.0605 0 -25.0771 -10.8662 -25.0771 -25.0771c0 -13.0605 10.8672 -25.0771 25.0771 -25.0771zM187.351 40.6465c25.0771 0 45.7666 -20.6895 45.7666 -45.7666s-20.6895 -45.7666 -45.7666 -45.7666
s-45.7666 20.6895 -45.7666 45.7666s20.6895 45.7666 45.7666 45.7666zM187.351 -30.1973c13.0605 0 25.0771 10.8662 25.0771 25.0771s-12.0166 25.0771 -25.0771 25.0771c-13.0615 0 -25.0771 -10.8662 -25.0771 -25.0771c0 -13.0605 10.8662 -25.0771 25.0771 -25.0771z
" />
    <glyph glyph-name="058-clear-button" unicode="&#xf137;" 
d="M512 396.8l-204.8 -204.8l204.8 -204.8l-51.2002 -51.2002l-204.8 204.8l-204.8 -204.8l-51.2002 51.2002l204.8 204.8l-204.8 204.8l51.2002 51.2002l204.8 -204.8l204.8 204.8z" />
    <glyph glyph-name="034-shopping-cart-14" unicode="&#xf11f;" 
d="M405.39 85.3857c35.2012 0 63.8398 -28.6387 63.8398 -63.8398s-28.6387 -63.8408 -63.8398 -63.8408s-63.8408 28.6396 -63.8408 63.8408s28.6387 63.8398 63.8408 63.8398zM405.39 -3.99023c14.083 0 25.5361 11.4531 25.5361 25.5361
s-11.4531 25.5361 -25.5361 25.5361s-25.5361 -11.4531 -25.5361 -25.5361s11.4531 -25.5361 25.5361 -25.5361zM507.93 332.124c3.62598 -4.64062 4.92188 -10.6865 3.5127 -16.4062l-46.6045 -188.33c-2.11328 -8.54199 -9.78613 -14.543 -18.5898 -14.543h-298.137
c-8.86133 0 -16.5674 6.07715 -18.6299 14.7021l-62.2441 260.444h-48.085c-10.5781 0 -19.1523 8.57422 -19.1523 19.1523s8.57422 19.1523 19.1523 19.1514h63.2021c8.86133 0 16.5674 -6.08398 18.6289 -14.7021l17.2373 -72.1201h374.63
c5.89258 0 11.4531 -2.70703 15.0791 -7.34863zM431.264 151.148l37.1162 150.02h-341.005l35.8525 -150.02h268.036zM173.647 85.3857c35.2012 0 63.8398 -28.6387 63.8398 -63.8398s-28.6387 -63.8408 -63.8398 -63.8408s-63.8408 28.6396 -63.8408 63.8408
s28.6377 63.8398 63.8408 63.8398zM173.647 -3.99023c14.083 0 25.5361 11.4531 25.5361 25.5361s-11.4531 25.5361 -25.5361 25.5361c-14.084 0 -25.5361 -11.4531 -25.5361 -25.5361s11.4521 -25.5361 25.5361 -25.5361z" />
    <glyph glyph-name="041-supermarket-2" unicode="&#xf126;" 
d="M291.472 95.9756c-7.87988 27.4014 -18.7119 65.6836 -30.0537 105.845l108.844 -2.03418c5.88477 -33.5605 11.5566 -65.9111 15.9688 -91.126c-4.10938 -0.873047 -8.28809 -1.58691 -12.5283 -2.13086zM187.03 354.396
c8.69727 -30.166 21.4766 -75.376 34.6143 -121.906c-32.4834 0.645508 -62.6064 1.29395 -87.9268 1.94434l-40.3203 109.146l-36.4609 33.3877c-7.36719 -2.94922 -15.7354 -3.54688 -23.9424 -1.14453c-19.5146 5.71191 -30.752 26.1377 -25.04 45.6484
c5.71191 19.5137 26.1367 30.751 45.6484 25.04c20.4932 -5.99902 31.6641 -28.0791 24.2051 -48.1631l32.7529 -29.9922zM365.002 229.782l-112.07 2.09668c-11.6104 41.125 -23.1582 82.0117 -33.0635 116.524l128.452 -23.4482
c4.72461 -26.9834 10.6523 -60.7949 16.6816 -95.1729zM487.713 48.0537c8.28613 0 15.002 -6.7168 15.0029 -15.002c0 -8.28516 -6.7168 -15.002 -15.002 -15.002h-283.592c-35.4756 0 -59.4062 36.5615 -44.1582 68.8428c4.43848 9.39746 11.416 16.9023 20.252 21.6768
l-35.3467 95.6807c25.0234 -0.607422 54.1572 -1.21582 85.2637 -1.82617c11.1045 -39.3271 22.0156 -77.8965 31.334 -110.299l-60.4473 -7.80469c-13.0586 -1.66895 -20.0215 -16.2568 -12.9707 -27.4912c3.60938 -5.75098 9.23145 -8.77539 16.0732 -8.77539h283.591z
M491.912 298.742c7.63867 -0.697266 13.6221 -7.11816 13.6211 -14.9365v-27.5352c0 -10.0361 -0.96875 -19.8535 -2.82324 -29.3584c-30.3252 0.759766 -67.4521 1.52441 -107.167 2.29004c-5.58496 31.8447 -11.1357 63.5 -15.7793 90.0127zM493.666 197.229
c-14.9717 -35.4912 -43.04 -63.9639 -78.6064 -79.3711c-4.04492 23.1006 -9.04199 51.6094 -14.2559 81.3457c33.793 -0.657227 65.6016 -1.31445 92.8623 -1.97461zM434.057 12.6191c20.7578 -5.56055 33.1201 -27.0039 27.5693 -47.7227
c-5.56152 -20.7578 -27.0029 -33.1211 -47.7227 -27.5693c-20.7568 5.56152 -33.1191 27.0029 -27.5684 47.7227c5.56055 20.7578 27.0029 33.1211 47.7217 27.5693zM245.022 12.6191c20.7568 -5.56152 33.1191 -27.0029 27.5684 -47.7227
c-5.56055 -20.7578 -27.0029 -33.1201 -47.7227 -27.5693c-20.7578 5.56055 -33.1211 27.0029 -27.5693 47.7227c5.5625 20.7578 27.0039 33.1201 47.7236 27.5693z" />
    <glyph glyph-name="044-supermarket-5" unicode="&#xf129;" 
d="M116.889 91.6279c0 -12.0938 9.83496 -21.9336 21.9297 -21.9336h336.642v-30.0586h-9.44434c1.18164 -1.89844 2.27832 -3.8584 3.25293 -5.88672c3.96777 -8.23047 6.19141 -17.4629 6.19141 -27.2129c0 -30.3369 -21.5186 -55.6475 -50.125 -61.5029
c-4.08691 -0.833984 -8.32129 -1.27539 -12.6543 -1.27539c-6.50098 0 -12.7666 0.989258 -18.665 2.8252c-25.5537 7.94531 -44.1094 31.7812 -44.1094 59.9531c0 12.1523 3.46387 23.4912 9.44043 33.0996h-157.092c5.97559 -9.6084 9.43945 -20.9473 9.43945 -33.0996
c0 -28.1719 -18.5557 -52.0078 -44.1094 -59.9531c-5.89453 -1.83594 -12.1641 -2.8252 -18.665 -2.8252s-12.7715 0.989258 -18.6689 2.8252c-25.5547 7.94531 -44.1064 31.7812 -44.1064 59.9531c0 17.793 7.41309 33.8438 19.3037 45.2646
c-11.374 9.5459 -18.6182 23.8545 -18.6182 39.8271c0 17.3936 8.59082 32.8066 21.749 42.251l-38.4385 283.562h-70.1406v30.0586h96.3994l7.74121 -57.1191l408.861 -15.3975l-46.4111 -261.421h-327.772c-12.0947 0 -21.9297 -9.83984 -21.9297 -21.9336z
M119.331 278.325l7.0957 -52.3252h61.1191l-2.28906 52.3252h-65.9258zM215.347 278.325l2.28516 -52.3252h56.5674v52.3252h-58.8525zM363.718 226l3.85547 52.3252h-63.3145v-52.3252h59.459zM397.714 278.325l-3.85449 -52.3252h62.1641l9.29199 52.3252h-67.6016z
M361.503 195.941h-57.248v-52.3213h53.3926zM304.259 308.384h65.5303l3.08008 41.7959l-68.6104 2.58398v-44.3799zM274.199 308.384v45.5107l-62.2578 2.34766l2.08984 -47.8584h60.168zM274.199 195.941h-55.252l2.28516 -52.3213h52.9668v52.3213zM387.789 143.62
h53.6084l9.29102 52.3213h-59.0449zM470.649 308.384l6.7207 37.8584l-74.4463 2.80664l-2.99414 -40.665h70.7197zM181.805 357.374l-73.5625 2.77051l7.01465 -51.7607h68.6885zM137.593 143.62h53.5498l-2.28516 52.3213h-58.3604zM137.593 143.62z" />
    <glyph glyph-name="003-garbage" unicode="&#xf102;" 
d="M469.474 374.315c7.89453 0 14.2109 -6.31543 14.2109 -14.21s-6.31641 -14.2109 -14.2109 -14.2109h-25.6846v-333.895c0 -41.8945 -34.1045 -76 -76 -76h-223.578c-41.8955 0 -76 34.1055 -76 76v333.895h-25.6846c-7.89453 0 -14.2109 6.31641 -14.2109 14.2109
s6.31641 14.21 14.2109 14.21h106.526v17.3691c0 31.0527 25.2627 56.3154 56.3154 56.3154h101.264c31.0527 0 56.3154 -25.2627 56.3154 -56.3154v-17.3691h106.526zM177.474 391.685v-17.3691h157.053v17.3691c0 15.3682 -12.5264 27.8945 -27.8945 27.8945h-101.264
c-15.3682 0 -27.8945 -12.5264 -27.8945 -27.8945zM415.368 12h0.105469v333.895h-318.842v-333.895c0 -26.2109 21.3682 -47.5791 47.5791 -47.5791h223.578c26.2109 0 47.5791 21.3682 47.5791 47.5791zM256 15.3682c-7.89453 0 -14.2109 6.4209 -14.2109 14.3164v251.053
c0 7.89453 6.31641 14.21 14.2109 14.21s14.2109 -6.31543 14.2109 -14.21v-251.158c0 -7.89453 -6.31641 -14.2109 -14.2109 -14.2109zM163.263 31.0527c-7.78906 0 -14.21 6.31543 -14.21 14.21v219.896c0 7.89453 6.31543 14.21 14.21 14.21
c7.89551 0 14.2109 -6.31543 14.2109 -14.21v-219.896c0 -7.89453 -6.31543 -14.21 -14.2109 -14.21zM348.737 31.0527c-7.89551 0 -14.2109 6.31543 -14.2109 14.21v219.896c0 7.89453 6.31543 14.21 14.2109 14.21c7.89453 0 14.21 -6.31543 14.21 -14.21v-219.896
c0 -7.89453 -6.31543 -14.21 -14.21 -14.21z" />
    <glyph glyph-name="039-cart-3" unicode="&#xf124;" 
d="M509.045 341.029c2.93066 -4.20312 3.7373 -9.53223 2.16602 -14.4062l-68.4492 -213.561c-2.17578 -6.79688 -8.49707 -11.4121 -15.6406 -11.4121h-247.744l-14.7832 -41.0684h262.528c7.56152 0 13.6904 -6.12793 13.6904 -13.6904
c0 -7.55957 -6.12793 -13.6885 -13.6904 -13.6885h-15.3906c7.83984 -8.72754 12.6523 -20.2197 12.6523 -32.8555c0 -27.1758 -22.1055 -49.2832 -49.2832 -49.2832c-27.1758 0 -49.2822 22.1074 -49.2822 49.2832c0 12.6367 4.8125 24.1279 12.6572 32.8555h-107.448
c7.83984 -8.72754 12.6533 -20.2197 12.6533 -32.8555c0 -27.1758 -22.1123 -49.2832 -49.2822 -49.2832s-49.2832 22.1074 -49.2832 49.2832c0 12.6367 4.81348 24.1279 12.6553 32.8555h-12.6553c-4.45605 0 -8.62988 2.16992 -11.1963 5.81836
c-2.57031 3.64746 -3.19238 8.30957 -1.68164 12.5078l18.042 50.1162h-7.90137c-7.92969 0 -14.7246 5.66309 -16.1602 13.459l-47.6328 259.332l-68.1641 26.7783c-8.44434 3.31836 -12.5938 12.8584 -9.28125 21.3018c3.31836 8.43848 12.8525 12.5889 21.3018 9.28125
l76.6611 -30.1172c5.28906 -2.0752 9.12402 -6.73535 10.1533 -12.3213l46.8066 -254.859h259.08l58.2188 181.647l-296.096 12.7637c-9.06934 0.389648 -16.0928 8.05078 -15.7061 17.1172c0.389648 9.07031 8.00488 16.1055 17.1172 15.7061l317.599 -13.6895
c5.12305 -0.21875 9.83887 -2.81543 12.7695 -7.01562zM194.399 -21.5615c12.0801 0 21.9033 9.82324 21.9033 21.9033s-9.82324 21.9043 -21.9033 21.9043s-21.9043 -9.82422 -21.9043 -21.9043s9.82422 -21.9033 21.9043 -21.9033zM375.101 -21.5615
c12.0801 0 21.9033 9.82324 21.9033 21.9033s-9.82324 21.9043 -21.9033 21.9043s-21.9023 -9.82422 -21.9023 -21.9043s9.82227 -21.9033 21.9023 -21.9033z" />
    <glyph glyph-name="012-shopping-cart-1" unicode="&#xf10b;" 
d="M214.686 45.1709c24.8281 0 45.0283 -20.2002 45.0293 -45.0283c0 -24.8291 -20.2002 -45.0293 -45.0293 -45.0293s-45.0293 20.2002 -45.0293 45.0293c0 24.8281 20.2002 45.0283 45.0293 45.0283zM214.686 -19.7432c10.9648 0 19.8867 8.91992 19.8867 19.8877
c0 10.9648 -8.92188 19.8867 -19.8867 19.8867s-19.8867 -8.9209 -19.8867 -19.8867s8.9209 -19.8877 19.8867 -19.8877zM372.631 45.1709c24.8281 0 45.0283 -20.2002 45.0293 -45.0283c0 -24.8291 -20.2002 -45.0293 -45.0293 -45.0293s-45.0293 20.2002 -45.0293 45.0293
c0 24.8281 20.2002 45.0283 45.0293 45.0283zM372.631 -19.7432c10.9648 0 19.8867 8.91992 19.8867 19.8877c0 10.9648 -8.9209 19.8867 -19.8867 19.8867c-10.9648 0 -19.8867 -8.9209 -19.8867 -19.8867s8.9209 -19.8877 19.8867 -19.8877zM383.717 282.245
c6.94336 0 12.5713 -5.62793 12.5713 -12.5713s-5.62793 -12.5713 -12.5713 -12.5713h-180.149c-6.94238 0 -12.5713 5.62793 -12.5713 12.5713c0 6.94238 5.62793 12.5713 12.5713 12.5713h180.149zM373.912 216.965c6.94141 0 12.5693 -5.62891 12.5693 -12.5713
c0 -6.94336 -5.62793 -12.5713 -12.5703 -12.5713h-160.538c-6.94238 0 -12.5703 5.62793 -12.5703 12.5713s5.62793 12.5713 12.5703 12.5713h160.539zM506.342 338.256c4.79492 -5.88281 6.66699 -13.5225 5.13574 -20.9541l-35.1631 -170.676
c-2.39453 -11.6279 -12.752 -20.0674 -24.624 -20.0674h-310.893l7.39941 -35.916h301.166c6.94238 0 12.5703 -5.62793 12.5703 -12.5713s-5.62793 -12.5713 -12.5703 -12.5713h-301.167c-11.873 0 -22.2295 8.44043 -24.625 20.0684l-60.8262 295.262l-55.1777 23.9512
c-6.36719 2.7627 -9.29004 10.167 -6.52441 16.5371c2.7627 6.36719 10.166 9.29102 16.5361 6.52344l55.1768 -23.9502c7.50098 -3.25684 12.9629 -9.98047 14.6143 -17.9883l7.9082 -38.3896h391.574c7.5918 0 14.6953 -3.37402 19.4893 -9.25781zM451.69 151.698
l35.1611 170.674l-386.394 0.000976562l35.1611 -170.675h316.071z" />
    <glyph glyph-name="043-supermarket-4" unicode="&#xf128;" 
d="M465.119 36.3115v-0.00195312c5.96973 -9.58984 9.41016 -20.9092 9.41016 -33.04c0 -34.5996 -28.0605 -62.6494 -62.6602 -62.6494c-34.6006 0 -62.6504 28.0498 -62.6504 62.6494c0 12.1309 3.44043 23.4502 9.41016 33.04l0.000976562 0.000976562h-156.764
l0.000976562 -0.000976562c5.96973 -9.58984 9.41016 -20.9092 9.41016 -33.04c0 -34.5996 -28.0508 -62.6494 -62.6602 -62.6494c-34.6006 0 -62.6504 28.0498 -62.6504 62.6494c0 17.7607 7.37988 33.79 19.25 45.1904
c0.000976562 0.000976562 0.00292969 0.00195312 0.00390625 0.00292969c-11.3428 9.52734 -18.5693 23.8008 -18.5693 39.7383c0 17.3584 8.57617 32.7432 21.707 42.168l-0.000976562 0.0107422l-38.3604 283h-69.9971v30h96.207l7.72949 -57.0098l408.063 -15.3701
l-46.3203 -260.909h-327.156c-12.0615 -0.00976562 -21.8711 -9.8252 -21.8711 -21.8887c0 -12.0713 9.81934 -21.8906 21.8896 -21.8906h335.984v-30h-9.40723zM126.177 222.312h60.9941l-2.28223 52.2236h-65.791zM214.919 274.535l2.28223 -52.2236h56.457v52.2236
h-58.7393zM211.521 352.29l2.08691 -47.7549h60.0498v45.415zM393.085 222.312h62.0459l9.26953 52.2236h-67.4678zM363.003 222.312l3.84766 52.2236h-63.1924v-52.2236h59.3447zM360.793 192.312h-57.1348v-52.2217h53.2871zM273.658 192.312h-55.1465l2.28223 -52.2217
h52.8643v52.2217zM440.53 140.09l9.26953 52.2197v0.00195312h-58.9248l-3.84766 -52.2217h53.5029zM469.72 304.54l6.70898 37.7803l-74.29 2.7998h-0.00585938l-2.99023 -40.585h70.5762zM372.135 346.25l-68.4756 2.57031h-0.000976562v-44.2852h65.4023zM181.438 353.43
l-73.4102 2.76074l7 -51.6504l0.000976562 -0.00488281h68.5498l-2.13672 48.8945h-0.00390625zM137.318 140.09h1.20605h0.0185547v0h52.2227l-2.28125 52.2217h-58.2461v-0.00195312zM148.618 -29.3799c18.0098 0 32.6602 14.6494 32.6602 32.6494
c0 18.0107 -14.6504 32.6602 -32.6602 32.6602c-18 0 -32.6504 -14.6494 -32.6504 -32.6602c0 -18 14.6504 -32.6494 32.6504 -32.6494zM411.869 -29.3799c18.0098 0 32.6611 14.6494 32.6602 32.6494c0 18.0107 -14.6504 32.6602 -32.6602 32.6602
c-18 0 -32.6504 -14.6494 -32.6504 -32.6602c0 -18 14.6504 -32.6494 32.6504 -32.6494z" />
    <glyph glyph-name="052-shopping-cart-with-product-inside" unicode="&#xf131;" 
d="M177.5 91.0586h284.011v-35.4678h-312.517l-57.5791 261.368h-78.7744v35.4482h107.244zM209.761 31.9951c26.5088 0 47.998 -21.4707 47.998 -47.9795c0 -26.4902 -21.4893 -48.0156 -47.998 -48.0156s-47.9971 21.5254 -47.9971 48.0156
c0 26.5088 21.4883 47.9795 47.9971 47.9795zM407.614 31.9951c26.5273 0 48.0342 -21.4707 48.0156 -47.9795c0 -26.4902 -21.5068 -48.0156 -48.0156 -48.0156c-26.4717 0 -47.9795 21.5254 -47.9795 48.0156c0 26.5088 21.5078 47.9795 47.9795 47.9795zM195.435 117.604
l-42.0986 218.042h68.8828l152.658 112.354l68.3145 -92.7715l-2.9502 -19.583h59.1182l-49.2256 -218.042h-254.699zM432.053 347.663l-16.3408 -12.0176h14.5459zM238.853 335.663h35.8701l-2.14355 2.93164l6.94336 5.11133l5.93555 -8.04297h8.79395l-9.01367 12.2559
l6.96191 5.11133l12.7686 -17.3672h9.96582l-16.3047 22.1123l6.97949 5.11133l20.0605 -27.2236h11.4678l-23.834 32.3896l6.94336 5.12988l27.6084 -37.5195h9.96582l-31.0889 42.2822l6.94336 5.09277l34.8438 -47.375h30.5576l30.0264 22.0752l-56.2422 76.5039z
M398.454 350.813l-6.97949 -5.11133l-38.2705 52.0098l6.99902 5.11133zM385.081 340.921l-6.90625 -5.09277l-38.3252 52.0098l6.94336 5.11133z" />
    <glyph glyph-name="014-shopping-cart-3" unicode="&#xf10d;" 
d="M164.961 147.996c-8.25391 -0.0195312 -14.9609 -6.73828 -14.9609 -14.9961c0 -8.26953 6.73047 -15 15 -15h272c8.28516 0 15 -6.71484 15 -15s-6.71484 -15 -15 -15h-272c-24.8125 0 -45 20.1875 -45 45c0 18.4648 11.1836 34.3594 27.125 41.2891
c-2.84375 12.793 -52.2578 235.16 -54.1562 243.711h-77.9688c-8.28516 0 -15 6.71484 -15 15s6.71484 15 15 15h90c7.03125 0 13.1172 -4.88281 14.6445 -11.7461l10.7227 -48.2539h366.633c4.70703 0 9.14062 -2.21094 11.9766 -5.96875
c2.83203 -3.75781 3.73828 -8.625 2.44531 -13.1523l-60 -210c-1.83984 -6.4375 -7.72656 -10.8789 -14.4219 -10.8789h-271.957c-0.0195312 0 -0.0390625 -0.00390625 -0.0585938 -0.00390625h-0.0234375zM477.113 358h-340.082l40 -180h248.652zM477.113 358zM150 43
c0 24.8125 20.1875 45 45 45s45 -20.1875 45 -45s-20.1875 -45 -45 -45s-45 20.1875 -45 45zM195 58c-8.26953 0 -15 -6.73047 -15 -15s6.73047 -15 15 -15s15 6.73047 15 15s-6.73047 15 -15 15zM195 58zM362 43c0 24.8125 20.1875 45 45 45s45 -20.1875 45 -45
s-20.1875 -45 -45 -45s-45 20.1875 -45 45zM407 58c-8.26953 0 -15 -6.73047 -15 -15s6.73047 -15 15 -15s15 6.73047 15 15s-6.73047 15 -15 15zM407 58z" />
    <glyph glyph-name="042-supermarket-3" unicode="&#xf127;" 
d="M438.341 283.407l-101.406 18.5127l10.1582 -58.209c27.7197 -0.769531 59.8564 -2.15234 87.8096 -2.47266c3.97949 15.8623 3.43848 26.3848 3.43848 42.1689zM307.461 307.298l-81.6562 14.9053l21.9375 -75.7275l70.6797 -1.96484zM352.011 215.535l9.3877 -53.7959
c26.749 8.99512 48.9404 27.5625 62.5127 51.7939zM333.874 155.979l-10.5352 60.3535l-67.4014 1.87402l20.1768 -69.6436zM194.989 327.829l-81.8701 14.9443l34.7695 -94.127c8.21777 0 58.4795 -1.02344 70.4375 -1.35449zM453.698 309.086
c7.16309 -0.655273 12.7725 -6.67773 12.7725 -14.0039v-25.8145c0 -71.5752 -52.4736 -131.258 -123.595 -140.385l-162.949 -20.9502c-12.2422 -1.56348 -18.7744 -15.2354 -12.1602 -25.7725c3.38574 -5.3916 8.65234 -8.22852 15.0664 -8.22852h265.868
c7.76562 0 14.0645 -6.29492 14.0645 -14.0625c0 -7.7666 -6.29883 -14.0654 -14.0645 -14.0654h-265.868c-33.2578 0 -55.6953 34.2773 -41.3984 64.542c4.31738 9.13086 11.1904 16.3662 19.917 20.8096l-81.2637 219.966l-34.1758 31.2979
c-16.1865 -6.47559 -34.7568 0.300781 -43.084 15.5244c-9.15527 16.7461 -2.95605 37.6943 13.7539 46.8301c16.7461 9.16504 37.6943 2.95801 46.834 -13.7461c4.66992 -8.53711 5.65625 -18.8672 2.06152 -28.5615l30.7061 -28.1182
c119.17 -21.7559 238.342 -43.5098 357.515 -65.2617zM247.977 144.953l-21.4609 74.0703l-68.3867 1.90234l30.8643 -83.5391zM222.24 40.8438c19.4609 -5.21484 31.0498 -25.3164 25.8477 -44.7393c-5.21484 -19.4609 -25.3164 -31.0498 -44.7402 -25.8506
c-19.4609 5.21582 -31.0527 25.3184 -25.8477 44.7441c5.21289 19.459 25.3105 31.0479 44.7402 25.8457zM220.127 9.7627c-3.74609 6.48633 -13.5322 5.28809 -15.4854 -2.01562c-1.97559 -7.36914 5.97168 -13.2275 12.3623 -9.53223
c4.02832 2.32715 5.4541 7.52832 3.12305 11.5479zM399.46 40.8438c19.4609 -5.21484 31.0498 -25.3164 25.8447 -44.7393c-5.21387 -19.4609 -25.3164 -31.0498 -44.7383 -25.8506c-19.4629 5.21582 -31.0498 25.3184 -25.8477 44.7441
c5.21289 19.459 25.3203 31.0479 44.7412 25.8457zM397.348 9.7627c-3.74414 6.48633 -13.5303 5.28809 -15.4873 -2.01562c-1.97559 -7.37402 5.97363 -13.2275 12.3662 -9.53223c4.02637 2.32715 5.4502 7.52832 3.12109 11.5479zM38.8037 417.619
c-2.75293 5.03027 -10.2949 4.19531 -11.8945 -1.2793c-1.63965 -5.59961 4.2793 -10.3115 9.34961 -7.53418c3.16602 1.73145 4.25 5.69434 2.54492 8.81348zM38.8037 417.619z" />
    <glyph glyph-name="007-delete" unicode="&#xf106;" 
d="M278.659 262.502c6.62305 0 11.9912 -5.36816 11.9912 -11.9912v-226.622c0 -6.61816 -5.36816 -11.9902 -11.9912 -11.9902c-6.62207 0 -11.9902 5.37207 -11.9902 11.9902v226.622c0 6.62305 5.36816 11.9912 11.9902 11.9912zM278.659 262.502zM137.171 262.502
c6.62305 0 11.9902 -5.36816 11.9902 -11.9912v-226.622c0 -6.61816 -5.36719 -11.9902 -11.9902 -11.9902s-11.9912 5.37207 -11.9912 11.9902v226.622c0 6.62305 5.36816 11.9912 11.9912 11.9912zM137.171 262.502zM34.0518 295.574
c-22.2344 5.90137 -36.6416 27.3818 -33.668 50.1963c2.97949 22.8105 22.4121 39.874 45.4189 39.8779h61.3916v14.9883c-0.0703125 12.6045 4.91309 24.708 13.8359 33.6113c8.92285 8.89941 21.0439 13.8555 33.6484 13.752h106.473
c12.6045 0.103516 24.7256 -4.85254 33.6484 -13.752c8.92285 -8.90332 13.9062 -21.0068 13.8359 -33.6113v-14.9883h61.3916c23.0068 -0.00390625 42.4395 -17.0674 45.4189 -39.8779c2.97363 -22.8145 -11.4336 -44.2949 -33.668 -50.1963v-295.423
c0 -17.4609 -6.40234 -33.8594 -17.5869 -45.625c-11.1289 -11.7988 -26.623 -18.4971 -42.8438 -18.5244h-226.865c-16.2158 0.0273438 -31.71 6.72559 -42.8428 18.5244c-11.1855 11.7656 -17.5879 28.1641 -17.5879 45.625v295.423zM321.348 -40.0176
c20.501 0 36.4502 17.6113 36.4502 40.1689v294.369h-299.766v-294.369c0 -22.5576 15.9492 -40.1689 36.4502 -40.1689h226.865zM131.175 400.637v-14.9883h153.48v14.9883c0.0791016 6.24414 -2.375 12.2578 -6.80566 16.6611
c-4.42676 4.40723 -10.4502 6.8291 -16.6982 6.7207h-106.473c-6.24805 0.108398 -12.2715 -2.31348 -16.6982 -6.7207c-4.43066 -4.4082 -6.88477 -10.417 -6.80566 -16.6611zM45.8027 361.668c-11.9199 0 -21.583 -9.66309 -21.583 -21.583
c0 -11.9209 9.66309 -21.583 21.583 -21.583h324.225c11.9199 0 21.583 9.66211 21.583 21.583c0 11.9199 -9.66309 21.583 -21.583 21.583h-324.225zM45.8027 361.668zM207.915 262.502c6.62305 0 11.9902 -5.36816 11.9902 -11.9912v-226.622
c0 -6.61816 -5.36719 -11.9902 -11.9902 -11.9902s-11.9902 5.37207 -11.9902 11.9902v226.622c0 6.62305 5.36719 11.9912 11.9902 11.9912zM207.915 262.502z" />
    <glyph glyph-name="008-rubbish-bin" unicode="&#xf107;" 
d="M423.445 387.713c19.6123 0 34.9033 -15.2871 34.9033 -34.9053v-25.3838v-31.7285h-29.999v-325.081c0 -19.6182 -15.2852 -34.6152 -34.9033 -34.6152h-274.893c-19.6172 0 -34.6143 14.9971 -34.6143 34.6152v325.081h-30.2881v31.7285v25.3838
c0 19.6182 15.2852 34.9043 34.9033 34.9043h68.6504v44.4238c0 8.94141 6.92285 15.8643 15.8643 15.8643h1.15723h1.15039h160.667c0.289062 0 0.868164 -0.290039 1.15723 -0.578125c0.282227 0.288086 0.861328 0.578125 1.72852 0.578125
c8.94141 0 16.1543 -6.92285 16.1543 -15.8643v-44.4229h68.3613zM188.934 416.271v-28.5586h134.133v28.5586h-134.133zM396.332 -29.3867v325.083h-280.664v-325.083c0 -2.02344 0.868164 -2.88477 2.88574 -2.88477h274.893c2.01855 0 2.88574 0.861328 2.88574 2.88477z
M426.332 327.425v25.3838c0 2.01855 -0.868164 3.17578 -2.88672 3.17578h-334.892c-2.01758 0 -2.88574 -1.15723 -2.88574 -3.17578v-25.3838h340.664zM314.124 -4.00195v262.486h32.0176v-262.486h-32.0176zM240.28 -4.00195v262.486h32.0176v-262.486h-32.0176z
M166.436 -4.00195v262.486h32.0176v-262.486h-32.0176z" />
    <glyph glyph-name="048-supermarket-6" unicode="&#xf12d;" 
d="M197.891 12.458c10.2988 -0.0126953 18.6426 -8.35742 18.6553 -18.6553c0 -10.3027 -8.35254 -18.6553 -18.6553 -18.6553s-18.6553 8.35254 -18.6553 18.6553s8.35254 18.6553 18.6553 18.6553zM197.891 -9.79785c1.9834 0 3.59277 1.6084 3.59668 3.5957
c0 1.98828 -1.60938 3.59668 -3.59668 3.59668s-3.59668 -1.6084 -3.59668 -3.59668c0 -1.9873 1.60938 -3.5957 3.59668 -3.5957zM369.273 12.458h-0.00488281c10.2988 -0.00878906 18.6475 -8.35742 18.6602 -18.6553c0 -10.3027 -8.35352 -18.6553 -18.6553 -18.6553
c-10.3027 0 -18.6562 8.35254 -18.6562 18.6553s8.35352 18.6553 18.6562 18.6553zM369.273 -9.79785h-0.00488281c1.9873 0 3.59668 1.6084 3.60156 3.5957c0 1.98828 -1.60938 3.59668 -3.59668 3.59668s-3.59668 -1.6084 -3.59668 -3.59668
c0 -1.9873 1.60938 -3.5957 3.59668 -3.5957zM512.597 313.693h-0.00390625c-0.0214844 -15.6006 -12.5762 -28.2861 -28.1768 -28.4746v-89.2568v-0.15918v-0.0761719v-0.197266c-0.100586 -16.042 -6.56738 -31.3867 -17.9795 -42.6641
c11.4287 -3.25977 18.9541 -14.1553 17.9541 -26c-1.00391 -11.8438 -10.248 -21.3232 -22.0625 -22.6172l-285.303 -32.0039h237.391c13.8525 0 25.0879 -11.2314 25.0879 -25.0889c0 -13.8525 -11.2354 -25.084 -25.0879 -25.084h-12.3867
c15.126 -17.4834 13.8652 -43.7607 -2.87012 -59.71c-16.7344 -15.9541 -43.0459 -15.9541 -59.7764 0c-16.7354 15.9492 -18 42.2266 -2.87012 59.71h-105.861c15.1299 -17.4834 13.8701 -43.7646 -2.86523 -59.7139c-16.7314 -15.9541 -43.0469 -15.9541 -59.7822 0
c-16.7354 15.9492 -17.9912 42.2305 -2.86133 59.7139h-10.1426c-18.9033 0.550781 -35.7979 11.9248 -43.4248 29.2266c-7.62109 17.3076 -4.61328 37.4502 7.73535 51.7695c-0.894531 2.06738 -1.52441 4.23535 -1.87793 6.4541l-44.4658 282.987h-45.3701
c-15.2393 0 -27.5967 12.3525 -27.5967 27.5967c0 15.2393 12.3574 27.5967 27.5967 27.5967h68.9834c13.6045 0.0537109 25.2012 -9.86133 27.2607 -23.3115l12.9072 -82.2061h347.357c15.7305 -0.0166016 28.4746 -12.7598 28.4912 -28.4912zM197.891 -34.4668
c15.6006 0.0175781 28.248 12.6602 28.2646 28.2646c0 15.6094 -12.6553 28.2656 -28.2646 28.2656s-28.2646 -12.6562 -28.2646 -28.2656c0 -15.6084 12.6553 -28.2646 28.2646 -28.2646zM369.273 -34.4668h-0.00488281c15.6055 0.0175781 28.2529 12.6602 28.2695 28.2646
c0 15.6094 -12.6553 28.2656 -28.2646 28.2656s-28.2646 -12.6562 -28.2646 -28.2656c0 -15.6084 12.6553 -28.2646 28.2646 -28.2646zM270.71 285.202h-54.1641v-32.5723h54.1641v32.5723zM339.933 285.202h-54.1641v-32.5723h54.1641v32.5723zM409.155 285.202h-54.1641
v-32.5723h54.1641v32.5723zM469.391 285.202h-45.1768v-32.5723h45.1768v32.5723zM201.487 125.399l0.0126953 62.7812h-40.29l10.374 -66.0967zM216.546 188.181v-61.1348l54.1641 6.02539v55.1094h-54.1641zM285.769 134.739l17.1348 1.90332l37.0293 4.10547v47.4326
h-54.1641v-53.4414zM354.991 142.412l54.1641 6v39.7686h-54.1641v-45.7686zM354.991 203.239h54.1641v34.332h-54.1641v-34.332zM339.933 203.239v34.332h-54.1641v-34.332h54.1641zM270.71 203.239v34.332h-54.1641v-34.332h54.1641zM201.487 203.239v34.332h-48.0459
l5.39453 -34.332h42.6514zM428.773 150.588c20.1973 2.22754 36.4824 17.5635 39.9111 37.5928h-44.4707v-38.0928zM424.214 203.239h45.1768v34.332h-45.1768v-34.332zM201.487 252.63v32.5723h-55.5332l5.12109 -32.5723h50.4121zM86.8447 401.202l45.1973 -287.585
c0.176758 0.105469 0.365234 0.176758 0.541992 0.277344c0.974609 0.550781 1.9834 1.05957 3.00879 1.53809c0.470703 0.226562 0.932617 0.450195 1.40332 0.655273c0.987305 0.420898 1.99512 0.794922 3.0127 1.15625
c0.516602 0.18457 1.02051 0.385742 1.54199 0.553711c1.05469 0.31543 2.14648 0.592773 3.23926 0.857422c0.478516 0.12207 0.954102 0.269531 1.44141 0.370117c1.57129 0.352539 3.17578 0.604492 4.81055 0.785156l5.30664 0.588867l-31.042 197.542l-2.18457 13.9033
l-14.1729 90.2061c-0.936523 6.1084 -6.20117 10.6133 -12.3818 10.5879h-68.9707c-6.9248 0 -12.5381 -5.61328 -12.5381 -12.5381c0 -6.92383 5.61328 -12.5371 12.5381 -12.5371h5.30664v10.7344c0 4.15625 3.37012 7.53027 7.5293 7.53027
c4.15527 0 7.5293 -3.37402 7.5293 -7.53027v-10.7344h10.9082v10.7344c0 4.15625 3.37402 7.53027 7.5293 7.53027c4.15918 0 7.5293 -3.37402 7.5293 -7.53027v-10.7305h5.47852c3.70996 0 6.86621 -2.70215 7.4375 -6.36523zM460.668 119.202
c4.9668 0.558594 8.71875 4.75977 8.71484 9.75977c0 5.41211 -4.37402 9.80273 -9.78223 9.82812c-0.37793 -0.00390625 -0.751953 -0.0253906 -1.12598 -0.0673828l-305.769 -33.8867c-1.59668 -0.18457 -3.18066 -0.487305 -4.73535 -0.899414
c-0.268555 -0.0664062 -0.545898 -0.125977 -0.811523 -0.205078c-1.49121 -0.420898 -2.95312 -0.945312 -4.37305 -1.57227c-0.202148 -0.0878906 -0.399414 -0.18457 -0.601562 -0.276367c-3.09668 -1.42871 -5.96191 -3.31543 -8.49512 -5.59277l-0.0380859 -0.0341797
c-10.2734 -9.29785 -13.8652 -23.8984 -9.08008 -36.9033c4.78125 -13 16.9834 -21.7939 30.832 -22.2178h259.013c5.53809 0 10.0293 4.4873 10.0293 10.0293c0 5.53809 -4.49121 10.0254 -10.0293 10.0254h-258.799c-7.20508 0.445312 -12.8779 6.32715 -13.0537 13.5459
c-0.180664 7.21875 5.18848 13.374 12.3652 14.1719zM484.126 300.261l0.0126953 -0.00488281c7.41602 0 13.4326 6.01758 13.4326 13.4336c0 7.41992 -6.0166 13.4326 -13.4326 13.4326h-344.996l4.0166 -25.542l0.206055 -1.31934h340.761zM484.126 300.261z" />
    <glyph glyph-name="037-plus" unicode="&#xf122;" 
d="M505.197 355.403c2.4209 -0.0791016 4.67578 -1.24121 6.14453 -3.16211c1.49609 -1.94336 2.04883 -4.44727 1.50879 -6.83789l-40.6309 -176.53c-4.41699 -19.6143 -21.8379 -33.5439 -41.9434 -33.54h-269.185l9.79395 -61.377
c0.00488281 -0.0478516 0.0136719 0.0654297 0.0224609 0.0175781c0.350586 -2.76758 2.69238 -4.85547 5.48633 -4.88574h14.1143c3.38184 20.21 20.3203 35.3682 40.6621 35.3682c20.3379 0 37.2764 -15.1582 40.6621 -35.3682h109.163
c3.38574 20.21 20.3242 35.3555 40.6621 35.3555c22.7627 0 41.2891 -19.1758 41.2891 -42.7373s-18.5215 -42.7275 -41.2891 -42.7275c-20.0049 0 -36.7285 15.3018 -40.4912 34.3896h-109.505c-3.7627 -19.0879 -20.4863 -34.377 -40.4912 -34.377
c-20.0088 0 -36.7275 15.2891 -40.4951 34.377h-14.4961c-10.5654 0.110352 -19.4424 7.96973 -20.8291 18.4434l-52.7363 331.368c-2.61816 16.4385 -15.9961 28.5742 -31.8115 28.5742h-62.9434c-4.3418 0 -7.85938 3.51758 -7.85938 7.86035
c0 4.3418 3.51758 7.85938 7.85938 7.85938h62.9434c23.5918 0 43.4951 -17.5088 47.3379 -41.623l8.03027 -50.4473h379.026zM312.833 161.382c45.9043 0.0527344 83.1055 37.2539 83.1582 83.1621c0 45.9297 -37.2324 83.1621 -83.1621 83.1621
c-45.9258 0 -83.1621 -37.2324 -83.1582 -83.1621c0 -45.9297 37.2324 -83.1621 83.1621 -83.1621zM312.833 161.382zM312.833 311.982c37.2285 -0.0439453 67.3994 -30.2148 67.4385 -67.4434c0 -37.2451 -30.1924 -67.4424 -67.4385 -67.4424
c-37.25 0 -67.4473 30.1924 -67.4424 67.4424c0 37.2461 30.1924 67.4434 67.4424 67.4434zM364.386 246.491c0 4.3418 -3.51758 7.85938 -7.85938 7.85938h-35.9961v35.7725c0 4.3418 -3.52148 7.85938 -7.85938 7.85938c-4.3418 0 -7.85938 -3.51758 -7.85938 -7.85938
v-35.7725h-35.6758c-4.3418 0 -7.85938 -3.51758 -7.85938 -7.85938s3.51758 -7.85938 7.85938 -7.85938h35.6758v-35.8994c0 -4.3418 3.51758 -7.85938 7.85938 -7.85938c4.33789 0 7.85938 3.51758 7.85938 7.85938v35.8994h35.9961
c4.3418 0 7.85938 3.51758 7.85938 7.85938zM364.386 246.491z" />
    <glyph glyph-name="017-shopping-cart-black-shape" unicode="&#xf110;" 
d="M393.842 14.7656c0 10.877 3.85742 20.1553 11.543 27.8496c7.68652 7.68555 16.9727 11.5352 27.8535 11.5352c10.8643 0 20.1514 -3.84961 27.8369 -11.5352c7.69824 -7.69434 11.543 -16.9727 11.543 -27.8496c0 -10.876 -3.84863 -20.1553 -11.543 -27.8408
c-7.68555 -7.69434 -16.9727 -11.543 -27.8369 -11.543c-10.8809 0 -20.167 3.84863 -27.8535 11.543c-7.68555 7.68555 -11.543 16.9648 -11.543 27.8408zM506.151 363.39c3.90137 -3.90332 5.8457 -8.51953 5.84766 -13.8516v-157.542
c0 -4.92578 -1.63672 -9.28418 -4.91992 -13.0752c-3.28125 -3.80078 -7.49023 -5.99805 -12.6123 -6.61719l-321.238 -37.5381c0.205078 -1.4375 0.664062 -3.64355 1.38281 -6.60938c0.717773 -2.97852 1.33203 -5.70117 1.8457 -8.15723
c0.514648 -2.45605 0.771484 -4.71387 0.771484 -6.77051c0 -3.2832 -2.46191 -9.83984 -7.38672 -19.6875h283.069c5.33301 0 9.9502 -1.95508 13.8447 -5.85059c3.90137 -3.89453 5.84863 -8.51172 5.84863 -13.8447c0 -5.33398 -1.94727 -9.9502 -5.84863 -13.8525
c-3.89551 -3.8877 -8.5127 -5.84277 -13.8447 -5.84277h-19.6807h-275.692h-19.6914c-5.33398 0 -9.94727 1.95605 -13.8496 5.84277c-3.89551 3.90332 -5.8457 8.51953 -5.8457 13.8525c0 2.87012 1.12891 6.91895 3.38477 12.1553
c2.25391 5.23047 5.2793 11.3301 9.07422 18.3076c3.7959 6.97852 5.89844 10.8721 6.30664 11.6914l-54.459 253.234h-62.7617c-5.33301 0 -9.94824 1.94727 -13.8486 5.84473c-3.89844 3.89746 -5.84766 8.5127 -5.84766 13.8457
c0 5.33203 1.94922 9.9502 5.84766 13.8477c3.89648 3.89258 8.51172 5.84473 13.8486 5.84473h78.7676c3.28125 0 6.20605 -0.667969 8.76855 -1.99707c2.56445 -1.33691 4.61621 -2.92188 6.15137 -4.77344c1.53809 -1.8418 2.87109 -4.35742 3.99902 -7.53906
c1.13086 -3.17871 1.89648 -5.89941 2.30859 -8.14844c0.411133 -2.25879 0.973633 -5.2832 1.69141 -9.0791c0.717773 -3.79492 1.17871 -6.4082 1.38672 -7.84277h369.535c5.33496 0 9.94727 -1.94922 13.8467 -5.84766zM118.15 14.7656
c0 10.877 3.84863 20.1553 11.5381 27.8496c7.69141 7.68555 16.9746 11.5352 27.8486 11.5352c10.8691 0 20.1514 -3.84961 27.8428 -11.5352c7.69727 -7.69434 11.542 -16.9727 11.542 -27.8496c0 -10.876 -3.84863 -20.1553 -11.542 -27.8408
c-7.69043 -7.69434 -16.9736 -11.543 -27.8428 -11.543c-10.875 0 -20.1523 3.84863 -27.8486 11.543c-7.69336 7.68555 -11.5381 16.9648 -11.5381 27.8408z" />
    <glyph glyph-name="029-shopping-cart-10" unicode="&#xf11a;" 
d="M250.41 12.5117c-0.0283203 -26.9463 -21.8691 -48.7822 -48.8115 -48.8115c-26.9609 0 -48.8164 21.8555 -48.8164 48.8164c0 26.957 21.8555 48.8115 48.8164 48.8115c26.957 0 48.8115 -21.8545 48.8115 -48.8164zM170.097 12.5117
c0.0195312 -17.3857 14.1113 -31.4775 31.502 -31.4971c17.3965 0 31.498 14.1016 31.498 31.502c0 17.3965 -14.1016 31.498 -31.498 31.498c-17.4004 0 -31.502 -14.1016 -31.502 -31.5029zM170.097 12.5117zM382.353 -36.2998
c-26.9463 0.0341797 -48.7773 21.8701 -48.8115 48.8115c0 26.9619 21.8555 48.8164 48.8164 48.8164s48.8164 -21.8545 48.8115 -48.8164c0 -26.9609 -21.8545 -48.8164 -48.8164 -48.8115zM382.353 44.0146c-17.3867 -0.0244141 -31.4785 -14.1162 -31.4971 -31.5029
c0 -17.3955 14.1055 -31.4971 31.502 -31.4971s31.5029 14.1064 31.498 31.502c0 17.3965 -14.1064 31.498 -31.5029 31.498zM382.353 44.0146zM8.65723 430.686c-4.7832 0 -8.65723 3.875 -8.65723 8.65723c0 4.77832 3.87402 8.65723 8.65723 8.65723h52.8066
c25.9082 0.101562 47.9951 -18.7637 51.9424 -44.3672l4.83984 -30.5938h385.097c2.80176 0 5.42969 -1.35742 7.05859 -3.6377c1.62305 -2.28516 2.04297 -5.21289 1.12012 -7.86035l-49.0967 -141.7c-7.34277 -21.1641 -27.2852 -35.3574 -49.6904 -35.3672h-264.633
l7.10645 -44.8936c2.64746 -17.1738 17.4639 -29.8311 34.8398 -29.7637h258.387c4.77832 0 8.65723 -3.87402 8.65723 -8.65723c0 -4.77734 -3.87891 -8.65723 -8.65723 -8.65723h-258.387c-25.9082 -0.100586 -47.9951 18.7637 -51.9414 44.3672l-41.8018 264.054
c-2.64746 17.1787 -17.4639 29.8311 -34.8408 29.7627h-52.8066zM491.179 355.72l-370.193 0.00488281l24.3721 -153.938h267.377c15.0293 0.00488281 28.4053 9.52734 33.333 23.7246zM491.179 355.72z" />
    <glyph glyph-name="045-commerce-and-shopping" unicode="&#xf12a;" 
d="M308 298c0 -5.52344 -4.47656 -10 -10 -10s-10 4.47656 -10 10s4.47656 10 10 10s10 -4.47656 10 -10zM308 298zM482 348c16.543 0 30 -13.457 30 -30c0 -16.4766 -13.3516 -29.8867 -29.8008 -29.9961l-31.1719 -155.887
c-2.79688 -13.9727 -15.1719 -24.1172 -29.4258 -24.1172h-275.602c-11.0273 0 -20 -8.97266 -20 -20c0 -11.0469 8.95312 -20 20 -20h297c5.52344 0 10 -4.47656 10 -10s-4.47656 -10 -10 -10h-15.3828c3.41797 -5.88672 5.38281 -12.7188 5.38281 -20
c0 -22.0547 -17.9453 -40 -40 -40s-40 17.9453 -40 40c0 7.28125 1.96484 14.1211 5.38281 20.0117h-137.766c3.41797 -5.89062 5.38281 -12.7305 5.38281 -20.0117c0 -22.0547 -17.9453 -40 -40 -40s-40 17.9453 -40 40c0 7.28125 1.96484 14.1211 5.38281 20.0117
h-5.38281c-22.1016 0 -40 17.8906 -40 39.9883c0 21.8047 17.5391 39.5781 39.2461 39.9805c-0.6875 1.93359 -1.19141 3.96094 -1.46875 6.0625l-35.3789 265.273c-0.660156 4.95312 -4.91797 8.68359 -9.91016 8.68359h-40.207
c-4.12891 -11.6406 -15.2461 -20 -28.2812 -20c-16.543 0 -30 13.457 -30 30s13.457 30 30 30c13.0352 0 24.1523 -8.35938 28.2812 -20h40.207c14.9805 0 27.7617 -11.1953 29.7344 -26.043l7.19531 -53.957h346.582zM30 408c5.51562 0 10 4.48438 10 10
s-4.48438 10 -10 10s-10 -4.48438 -10 -10s4.48438 -10 10 -10zM206 28c0 11.0273 -8.97266 20.0117 -20 20.0117s-20 -8.98438 -20 -20.0117s8.97266 -20 20 -20s20 8.97266 20 20zM413 28c0 11.0273 -8.97266 20 -20 20s-20 -8.97266 -20 -20s8.97266 -20 20 -20
s20 8.97266 20 20zM482 308c5.51562 0 10 4.48438 10 10s-4.48438 10 -10 10h-343.914l2.66797 -20h117.246c5.52344 0 10 -4.47656 10 -10s-4.47656 -10 -10 -10h-114.578l20.1797 -151.316c0.660156 -4.95312 4.91797 -8.68359 9.91016 -8.68359h248.09
c4.75391 0 8.87891 3.38281 9.8125 8.03906l30.3867 151.961h-123.801c-5.52344 0 -10 4.47656 -10 10s4.47656 10 10 10h144zM482 308zM265 268c5.52344 0 10 -4.47656 10 -10v-100c0 -5.52344 -4.47656 -10 -10 -10s-10 4.47656 -10 10v100c0 5.52344 4.47656 10 10 10z
M265 268zM320 258c0 5.52344 4.47656 10 10 10s10 -4.47656 10 -10v-100c0 -5.52344 -4.47656 -10 -10 -10s-10 4.47656 -10 10v100zM320 258zM394 148c-5.52344 0 -10 4.47656 -10 10v100c0 5.52344 4.47656 10 10 10s10 -4.47656 10 -10v-100
c0 -5.52344 -4.47656 -10 -10 -10zM394 148zM201 268c5.52344 0 10 -4.47656 10 -10v-100c0 -5.52344 -4.47656 -10 -10 -10s-10 4.47656 -10 10v100c0 5.52344 4.47656 10 10 10zM201 268z" />
    <glyph glyph-name="023-shopping-cart-7" unicode="&#xf114;" 
d="M509.867 358.4c2.13281 -2.13379 2.13281 -6.40039 2.13281 -6.40039l-42.667 -170.667c0 -4.26562 -4.26562 -8.5332 -8.5332 -8.5332l-311.467 -42.666c8.53418 -14.9336 25.5996 -23.4668 42.667 -23.4668h243.2c6.39941 0 10.667 -4.2666 10.667 -10.667
s-4.26758 -10.667 -10.667 -10.667h-245.333c-34.1328 0 -66.1328 25.5996 -72.5332 59.7334l-51.2002 260.267h-55.4668c-6.40039 0 -10.667 4.2666 -10.667 10.667s4.2666 10.667 10.666 10.666h64c4.2666 0 10.667 -4.26562 10.667 -8.5332l10.667 -55.4658h405.334
c4.26562 0 6.40039 -2.13379 8.5332 -4.2666zM450.133 192l36.2676 151.467h-386.135l38.4004 -192zM181.333 64c29.8672 0 53.334 -23.4668 53.333 -53.333c0 -29.8662 -23.4658 -53.333 -53.333 -53.333c-29.8662 0 -53.333 23.4658 -53.333 53.333
c0 29.8662 23.4668 53.333 53.333 53.333zM181.333 -21.333c17.0674 0 32 14.9336 32 32s-14.9326 32 -32 32s-32 -14.9336 -32 -32s14.9326 -32 32 -32zM394.667 64c29.8662 0 53.333 -23.4668 53.333 -53.333s-23.4658 -53.333 -53.333 -53.333
c-29.8662 0 -53.333 23.4658 -53.333 53.333c0 29.8662 23.4658 53.333 53.333 53.333zM394.667 -21.333c17.0664 0 32 14.9336 32 32s-14.9326 32 -32 32s-32 -14.9336 -32 -32s14.9326 -32 32 -32z" />
    <glyph glyph-name="035-shopping-cart-15" unicode="&#xf120;" 
d="M504.57 356.717c1.82324 -2.05664 2.67871 -4.7959 2.34961 -7.52539l-26.6699 -221.645c-0.581055 -4.83008 -4.67676 -8.46191 -9.54102 -8.46191h-348.752l5.31934 -44.1953c2.27539 -18.9014 18.3477 -33.1553 37.3848 -33.1553h287.175
c5.30859 0 9.60938 -4.30273 9.60938 -9.61035c0 -5.30664 -4.30078 -9.60938 -9.60938 -9.60938h-7.99219l-8.83984 -16.7412c8.19922 -7.3252 13.3711 -17.9688 13.3711 -29.8018c0 -22.04 -17.9307 -39.9717 -39.9717 -39.9717s-39.9727 17.9316 -39.9727 39.9717
c0 22.041 17.9316 39.9727 39.9727 39.9727c3.31641 0 6.53418 -0.413086 9.61719 -1.17773l4.09082 7.74805h-198.271l-8.83984 -16.7412c8.19922 -7.3252 13.3721 -17.9688 13.3721 -29.8018c0 -22.04 -17.9316 -39.9717 -39.9727 -39.9717
c-22.04 0 -39.9707 17.9316 -39.9707 39.9717c0 22.041 17.9307 39.9727 39.9707 39.9727c3.31641 0 6.53516 -0.413086 9.61719 -1.17773l4.0918 7.74805h-37.4463c-28.7539 0 -53.0293 21.5293 -56.4658 50.0791l-39.1055 324.981
c-2.13965 17.791 -17.2666 31.2061 -35.1855 31.2061h-19.2861c-5.30762 0 -9.60938 4.30176 -9.60938 9.60938c0 5.30664 4.30176 9.60938 9.60938 9.60938h19.2861c27.6357 0 50.9658 -20.6914 54.2656 -48.1289l4.80371 -39.9219h404.406
c2.74805 0 5.36426 -1.17676 7.18945 -3.23242zM209.152 -24.0283c0 4.36719 -1.36328 8.41895 -3.6748 11.7666l-8.58008 -16.251c-1.72266 -3.26172 -5.05762 -5.125 -8.50684 -5.125c-1.51367 0 -3.04688 0.357422 -4.47852 1.11328
c-4.69336 2.47852 -6.48926 8.29199 -4.00977 12.9854l8.58594 16.2607c-0.0292969 0 -0.0595703 0.00292969 -0.0888672 0.00292969c-11.4414 0 -20.751 -9.30957 -20.751 -20.7529c0 -11.4424 9.30762 -20.7529 20.751 -20.7529s20.7529 9.31055 20.7529 20.7529z
M429.157 -24.0283c0 4.36719 -1.36328 8.41895 -3.6748 11.7666l-8.58008 -16.251c-1.72266 -3.26172 -5.05762 -5.125 -8.50684 -5.125c-1.5127 0 -3.04688 0.357422 -4.47754 1.11328c-4.69336 2.47852 -6.49023 8.29199 -4.01074 12.9854l8.58594 16.2607
c-0.0292969 0 -0.0595703 0.00292969 -0.0888672 0.00292969c-11.4424 0 -20.7529 -9.30957 -20.7529 -20.7529c0 -11.4424 9.31055 -20.7529 20.7529 -20.7529c11.4434 0 20.7529 9.31055 20.7529 20.7529zM252.547 340.729l5.69434 -202.426h65.3525l5.69336 202.426
h-76.7402zM239.014 138.304l-5.69336 202.426h-65.6201l15.7627 -202.426h55.5508zM348.514 340.729l-5.69434 -202.426h55.5518l15.7617 202.426h-65.6191zM95.2891 340.729l24.3574 -202.426h44.5381l-15.7627 202.426h-53.1328zM462.188 138.304l24.3574 202.426
h-53.1338l-15.7617 -202.426h44.5381z" />
    <glyph glyph-name="028-cart-1" unicode="&#xf119;" 
d="M99.6475 341.306l412.344 0.101562v-204.866c0 -23.4619 -19.085 -42.5469 -42.5547 -42.5469l-34.3311 -0.0078125v-0.00878906l-92.6094 -0.0175781l-60.957 -0.0166016v-0.00878906l-92.5068 -0.0341797l-52.2812 -0.0166016h-0.511719h-6.66309
c-13.8809 0 -25.7734 -10.0762 -27.0703 -22.9502c-0.742188 -7.29395 1.56934 -14.3066 6.49219 -19.7588c4.87988 -5.38281 11.791 -8.47168 18.9746 -8.47168h20.04c7.04688 19.8525 25.9609 34.126 48.2031 34.126c22.2412 0 41.1553 -14.2734 48.2031 -34.126h99.8184
c7.04688 19.8525 25.9609 34.126 48.2021 34.126c22.2422 0 41.1562 -14.2734 48.2031 -34.126h37.1123c4.71777 0 8.53125 -3.81348 8.53125 -8.53125s-3.81348 -8.53125 -8.53125 -8.53125h-34.126c0 -28.2314 -22.958 -51.1895 -51.1895 -51.1895
c-28.2305 0 -51.1885 22.958 -51.1885 51.1895h-93.8467c0 -28.2314 -22.958 -51.1895 -51.1885 -51.1895s-51.1895 22.958 -51.1895 51.1895h-17.0625c-11.9951 0 -23.5303 5.13574 -31.626 14.0938c-8.08789 8.92383 -12.0293 20.9277 -10.8184 32.9141
c2.07324 20.3994 19.6221 36.5918 40.6777 38.1787l-11.4492 59.8486h-0.0078125l-8.90723 46.5986l-21.832 114.101v0v0.0253906l-1.89355 9.90527h0.238281l-4.26562 25.5938h-11.04c-3.81348 -14.6738 -17.0537 -25.5938 -32.9141 -25.5938
c-18.8203 0 -34.126 15.3047 -34.126 34.126c0 18.8203 15.3057 34.126 34.126 34.126c15.8604 0 29.1006 -10.9209 32.9141 -25.5947h25.5098zM34.126 358.368c9.41016 0 17.0625 7.65234 17.0625 17.0635c0 9.41016 -7.65234 17.0625 -17.0625 17.0625
s-17.0635 -7.65234 -17.0635 -17.0625c0 -9.41113 7.65332 -17.0635 17.0635 -17.0635zM392.448 59.7666c-18.8203 0 -34.126 -15.3057 -34.126 -34.126s15.3057 -34.126 34.126 -34.126s34.126 15.3057 34.126 34.126s-15.3057 34.126 -34.126 34.126zM196.225 59.7666
c-18.8213 0 -34.126 -15.3057 -34.126 -34.126s15.3047 -34.126 34.126 -34.126c18.8203 0 34.125 15.3057 34.125 34.126s-15.3047 34.126 -34.125 34.126zM494.938 264.521v59.832l-59.832 -0.0175781v-59.8145h59.832zM358.322 111.023l59.7207 0.0166016v59.627
h-59.7207v-59.6436zM358.322 187.738h59.7207v59.7207h-59.7207v-59.7207zM204.756 110.98l59.7197 0.0175781v59.6777h-59.7197v-59.6953zM204.756 187.738h59.7197v59.7207h-59.7197v-59.7207zM117.436 247.459l11.4326 -59.7207h58.8242v59.7207h-70.2568z
M418.043 264.521v59.7207h-59.7207v-59.7207h59.7207zM341.26 264.521v59.7891l-59.7207 -0.0166016v-59.7725h59.7207zM264.476 324.242h-59.7197v-59.7207h59.7197v59.7207zM281.539 247.459v-59.7207h59.7207v59.7207h-59.7207zM435.105 247.459v-59.7207h59.7207
v59.7207h-59.7207zM187.692 324.26l-84.9561 -0.0263672l11.4316 -59.7197h73.5244v59.7461zM132.127 170.676l11.4326 -59.7119l44.1328 0.0166016v59.6953h-55.5654zM281.539 170.676v-59.6689l59.7207 0.0166016v59.6523h-59.7207zM469.437 111.058
c14.0596 0 25.501 11.4316 25.501 25.4922v34.126h-59.832v-59.627z" />
    <glyph glyph-name="005-waste-bin" unicode="&#xf104;" 
d="M120.372 -29.25l-35.0391 340.716h341.334l-35.041 -340.716s-7.62598 -34.75 -46.8789 -34.75h-177.494c-39.2549 0 -46.8809 34.75 -46.8809 34.75zM324.267 260.266l-17.0654 -256c0 -9.4248 7.6416 -17.0664 17.0654 -17.0664
c9.4248 0 17.0664 7.63965 17.0664 17.0664l17.0684 256c0 9.42578 -7.6416 17.0654 -17.0684 17.0654s-17.0664 -7.63965 -17.0664 -17.0654zM238.934 260.266v-256c0 -9.4248 7.63965 -17.0664 17.0664 -17.0664s17.0664 7.63965 17.0664 17.0664v256
c0 9.42578 -7.63965 17.0654 -17.0664 17.0654c-9.4248 0 -17.0664 -7.63965 -17.0664 -17.0654zM170.667 277.333c-9.4248 0 -17.0664 -7.6416 -17.0664 -17.0674l17.0664 -255.999c0 -9.42383 7.6416 -17.0654 17.0664 -17.0654
c9.42578 0 17.0674 7.63965 17.0674 17.0654l-17.0674 256c0 9.42676 -7.63965 17.0664 -17.0664 17.0664zM416.426 379.706c15.0928 0 27.3076 -11.457 27.3076 -25.6133c0 -14.1582 -12.2148 -25.6143 -27.3076 -25.6143h-320.852
c-15.0928 0 -27.3076 11.4561 -27.3076 25.6143c0 14.1562 12.2148 25.6113 27.3076 25.6113h75.0928v34.1611c0 22.6904 10.5059 34.1348 34.1318 34.1348h102.402c25.7578 0 34.1318 -8.24219 34.1318 -34.1348v-34.1592h75.0928zM307.201 379.706h0.00195312v34.1611
h-102.4l-0.00195312 -34.1611h102.4z" />
    <glyph glyph-name="004-garbage-1" unicode="&#xf103;" 
d="M256 5.42383c-4.79004 0 -8.67773 3.87891 -8.67773 8.67773v286.373c0 4.79883 3.8877 8.67773 8.67773 8.67773s8.67773 -3.87891 8.67773 -8.67773v-286.373c0 -4.79883 -3.8877 -8.67773 -8.67773 -8.67773zM169.221 5.42383
c-4.79102 0 -8.67871 3.87891 -8.67871 8.67773v286.373c0 4.79883 3.8877 8.67773 8.67871 8.67773c4.79004 0 8.67773 -3.87891 8.67773 -8.67773v-286.373c0 -4.79883 -3.8877 -8.67773 -8.67773 -8.67773zM342.779 5.42383
c-4.79004 0 -8.67773 3.87891 -8.67773 8.67773v286.373c0 4.79883 3.8877 8.67773 8.67773 8.67773c4.79102 0 8.67871 -3.87891 8.67871 -8.67773v-286.373c0 -4.79883 -3.8877 -8.67773 -8.67871 -8.67773zM455.593 395.933c4.79102 0 8.67871 -3.87988 8.67871 -8.67871
s-3.8877 -8.67773 -8.67871 -8.67773h-17.7109l-16.627 -399.551c-0.3125 -14.7617 -9.61523 -43.0254 -42.583 -43.0254h-245.344c-32.9678 0 -42.2705 28.2637 -42.5918 43.208l-16.6182 399.368h-17.7109c-4.79102 0 -8.67871 3.87891 -8.67871 8.67773
s3.8877 8.67871 8.67871 8.67871h104.508c0.955078 10.8467 4.2959 29.1406 15.7334 40.8818c7.2373 7.41895 16.4189 11.1855 27.2842 11.1855h86.7705c10.8652 0 20.0459 -3.7666 27.2832 -11.1855c11.4375 -11.7412 14.7793 -30.0352 15.7334 -40.8818h121.873z
M189.11 424.734c-6.97754 -7.1416 -9.78027 -19.708 -10.752 -28.8018h137.928c-0.972656 9.09375 -3.77539 21.6602 -10.7607 28.8018c-3.8877 3.97461 -8.73926 5.91016 -14.8223 5.91016h-86.7705c-6.08398 0 -10.9346 -1.93555 -14.8223 -5.91016zM403.907 -20.4277
l16.6006 399.004h-329.024l16.6006 -398.822c0.0957031 -2.82031 1.51855 -26.3984 25.2441 -26.3984h245.344c23.9854 0 25.1836 23.5352 25.2354 26.2168z" />
    <glyph glyph-name="047-cart-6" unicode="&#xf12c;" 
d="M375.758 136.078l11.7344 97.0781h93.8008l-39.9844 -153.023c-1.77344 -6.78906 -7.90625 -11.5195 -14.9219 -11.5195h-21.9648c15.5547 -28.8516 -7.52734 -62.9062 -39.2422 -62.9062c-31.7109 0 -54.793 34.0586 -39.2383 62.9062h-53.0547
c15.5547 -28.8516 -7.52734 -62.9062 -39.2383 -62.9062c-31.7148 0 -54.793 34.0586 -39.2422 62.9062h-22.2578c-19.8984 0 -19.8398 30.8359 0 30.8359h242.332l9.57031 36.6289h-48.293zM375.758 136.078zM241.82 233.156h114.609l-11.7305 -97.0781h-91.1484z
M241.82 233.156zM116.957 233.156h93.8008l11.7305 -97.0781h-68.1406c-6.98047 -0.0625 -13.2734 4.78516 -15.0312 11.5234c0 0 -10.6484 40.7422 -22.3594 85.5547zM116.957 233.156zM489.348 263.992h-98.1289l12.582 104.09h92.7812
c4.77734 0 9.28125 -2.21484 12.2031 -5.99609c2.91797 -3.78125 3.92188 -8.69922 2.71484 -13.3203zM489.348 263.992zM360.156 263.992h-122.066l-12.5781 104.09h147.227zM360.156 263.992zM194.449 368.082l12.582 -104.09h-98.1328
c-11.6289 44.5039 -22.1484 84.7734 -22.1484 84.7734l-16.7461 64.082l-50.168 -16.4414c-18.9062 -6.20703 -28.457 23.1289 -9.60156 29.3047l65.7422 21.543c8.3125 2.72656 17.5078 -2.28906 19.7188 -10.7539l17.8789 -68.418h80.875zM194.449 368.082z" />
    <glyph glyph-name="056-supermarket" unicode="&#xf135;" 
d="M162.909 -23.2734c0 12.8535 10.4199 23.2734 23.2725 23.2734c12.8535 0 23.2734 -10.4199 23.2734 -23.2734c0 -12.8525 -10.4199 -23.2725 -23.2734 -23.2725c-12.8525 0 -23.2725 10.4199 -23.2725 23.2725zM372.363 -23.2734
c0 12.8535 10.4189 23.2734 23.2725 23.2734s23.2734 -10.4199 23.2734 -23.2734c0 -12.8525 -10.4199 -23.2725 -23.2734 -23.2725s-23.2725 10.4199 -23.2725 23.2725zM509.673 333.964c1.16309 -3.49121 2.32715 -6.98145 2.32715 -9.30859l-30.2549 -203.638
c-3.49023 -23.2725 -23.2725 -39.5635 -46.5449 -39.5635h-283.927c-12.8008 0 -23.2734 -10.4727 -23.2734 -23.2734c0 -12.7998 10.4727 -23.2725 23.2734 -23.2725h302.543c6.98047 0 11.6357 -4.65527 11.6357 -11.6357c0 -6.98145 -4.6543 -11.6367 -11.6357 -11.6367
h-302.545c-25.6006 0 -46.5459 20.9453 -46.5459 46.5449c0 16.291 9.30957 31.418 22.1094 39.5645l-53.5273 300.218c-1.16309 5.81836 -5.81738 9.30957 -11.6357 9.30957h-26.7637c-6.98145 0 -11.6357 -4.65527 -11.6357 -11.6367
c0 -6.98047 -4.65527 -11.6357 -11.6367 -11.6357c-6.98047 0 -11.6357 4.65527 -11.6357 11.6357c0 19.7822 15.127 34.9092 34.9092 34.9102h26.7637c17.4541 0 31.418 -11.6357 34.9092 -29.0908l52.3633 -296.728h286.255c11.6367 0 22.1084 8.14648 23.2725 19.7822
l27.9277 189.673h-335.127c-6.98145 0 -11.6367 4.65527 -11.6367 11.6367c0 6.98047 4.6543 11.6357 11.6367 11.6357h349.091c3.49121 0 6.98145 -1.16406 9.30859 -3.49121zM430.545 186.182c6.98242 0 11.6367 -4.6543 11.6357 -11.6367
c0 -6.98047 -4.65332 -11.6357 -11.6357 -11.6357h-46.5449v-23.2734c0 -6.98047 -4.65527 -11.6338 -11.6357 -11.6338c-6.98145 0 -11.6367 4.6543 -11.6367 11.6357v23.2734h-46.5449v-23.2734c0 -6.98047 -4.6543 -11.6357 -11.6357 -11.6357
c-6.98047 0 -11.6357 4.6543 -11.6357 11.6357v23.2734h-46.5449v-23.2734c0 -6.98047 -4.65527 -11.6357 -11.6357 -11.6357c-6.98145 0 -11.6367 4.6543 -11.6367 11.6357v23.2734h-46.5449c-6.98047 0 -11.6357 4.6543 -11.6357 11.6357s4.6543 11.6357 11.6357 11.6357
h46.5449v46.5449h-46.5449c-6.98047 0 -11.6357 4.65527 -11.6357 11.6367c0 6.98047 4.6543 11.6357 11.6357 11.6357h46.5449v23.2734c0 6.98047 4.65527 11.6357 11.6367 11.6357c6.98047 0 11.6357 -4.6543 11.6357 -11.6357v-23.2734h46.5449v23.2734
c0 6.98047 4.65527 11.6357 11.6357 11.6357c6.98145 0 11.6357 -4.6543 11.6357 -11.6357v-23.2734h46.5449v23.2734c0 6.98047 4.65527 11.6357 11.6367 11.6357c6.98047 0 11.6357 -4.6543 11.6357 -11.6357v-23.2734h46.5449
c6.98242 0 11.6357 -4.65625 11.6357 -11.6367c0 -6.98145 -4.65332 -11.6367 -11.6357 -11.6367h-46.5449v-46.5449h46.5449zM290.909 186.182v46.5449h-46.5449v-46.5449h46.5449zM360.727 186.182v46.5449h-46.5449v-46.5449h46.5449z" />
    <glyph glyph-name="024-empty-shopping-cart" unicode="&#xf115;" 
d="M501.438 335.258c7.83984 0 12.2812 -6.05957 9.93457 -13.5352l-41.1621 -141.624c-2.30664 -7.46582 -10.5312 -13.5146 -18.3506 -13.5146h-195.744c-7.81934 0 -16.0537 6.04883 -18.3809 13.5146l-47.2314 138.356
c-2.88281 9.28613 2.65039 16.8027 12.3721 16.8027h298.562zM185.214 7.19629c0 24.666 19.9951 44.6621 44.6611 44.6621c24.667 0 44.6621 -19.9961 44.6621 -44.6621s-19.9951 -44.6621 -44.6621 -44.6621c-24.666 0 -44.6611 19.9961 -44.6611 44.6621zM374.2 6.63965
c0 24.666 19.9961 44.6621 44.6621 44.6621s44.6621 -19.9961 44.6621 -44.6621s-19.9961 -44.6621 -44.6621 -44.6621s-44.6621 19.9961 -44.6621 44.6621zM472.487 121.133c13.9697 0 25.29 -11.3203 25.29 -25.29c0 -13.9707 -11.3203 -25.29 -25.29 -25.29h-297.178
l-104.568 300.89h-45.4512c-13.9707 0 -25.29 11.3193 -25.29 25.29c0 13.9697 11.3193 25.29 25.29 25.29h81.4238l104.568 -300.89h261.205z" />
    <glyph glyph-name="010-dustbin" unicode="&#xf109;" 
d="M413.334 292.233c0 4.41699 3.58203 8 7.99902 8s8.00098 -3.59961 8.00098 -8v-306.9c0 -13.5498 -5.56738 -25.8838 -14.501 -34.833c-8.93262 -8.93359 -21.2832 -14.5 -34.833 -14.5h-248c-13.5498 0 -25.916 5.56641 -34.833 14.5
c-8.93359 8.93262 -14.5 21.2656 -14.5 34.833v306.9c0 4.41699 3.58301 8 8 8c4.41602 0 8 -3.59961 8 -8v-306.9c0 -9.13379 3.7666 -17.4834 9.7998 -23.5166s14.3838 -9.81641 23.5166 -9.81641h248.001c9.13379 0 17.4658 3.78418 23.5 9.81641
c6.0498 6.05078 9.81543 14.3838 9.81543 23.5v306.917h0.0341797zM196.333 6c0 -4.41699 -3.58301 -8 -8 -8s-8 3.58301 -8 8v284.167c0 4.41602 3.58301 8 8 8s8 -3.58398 8 -8v-284.167zM264 6c0 -4.41699 -3.58203 -8 -7.99902 -8s-8 3.58301 -8 8v284.167
c0 4.41602 3.58301 8 8 8s7.99902 -3.58398 7.99902 -8v-284.167zM331.684 6c0 -4.41699 -3.58203 -8 -7.99902 -8c-4.41797 0 -8 3.58301 -8 8v284.167c0 4.41602 3.58203 8 8 8c4.41699 0 7.99902 -3.58398 7.99902 -8v-284.167v0zM191.667 398.667
c0 -4.41699 -3.58398 -8.00098 -8.00098 -8.00098c-4.41602 0 -7.99902 3.58398 -7.99902 8.00098c0 13.583 5.5498 25.916 14.4834 34.8496s21.2666 14.4834 34.8496 14.4834h62c13.5674 0 25.9004 -5.56641 34.833 -14.5c8.93262 -8.93262 14.5 -21.2998 14.5 -34.833
c0 -4.41699 -3.58301 -8.00098 -7.99902 -8.00098c-4.41699 0 -8 3.58398 -8 8.00098c0 9.13281 -3.7666 17.4834 -9.7998 23.5166c-6.03516 6.0332 -14.3838 9.81641 -23.5166 9.81641h-62c-9.14941 0 -17.4834 -3.7666 -23.5332 -9.7998
c-6.05176 -6.0498 -9.81738 -14.3838 -9.81738 -23.5332zM70 375.667h372c7.84863 0 15.0156 -3.2168 20.2158 -8.41699l0.0332031 -0.0332031c5.2002 -5.2002 8.41699 -12.3672 8.41699 -20.2168v-20.667c0 -4.41602 -3.58301 -7.99902 -8 -7.99902h-0.216797h-413.116
c-4.41602 0 -8 3.58301 -8 7.99902v0.200195v20.4668c0 7.83301 3.2168 15.0166 8.41699 20.2168l0.0341797 0.0332031c5.19922 5.2002 12.3818 8.41699 20.2158 8.41699v0zM442 359.667h-372c-3.4834 0 -6.66699 -1.41699 -8.93359 -3.7002l-0.0332031 -0.0332031
c-2.28418 -2.2666 -3.7002 -5.43359 -3.7002 -8.93359v-12.667h397.316v12.667c0 3.4834 -1.41699 6.66699 -3.69922 8.93359l-0.0341797 0.0332031c-2.26562 2.2832 -5.43262 3.7002 -8.91602 3.7002z" />
    <glyph glyph-name="055-buy" unicode="&#xf134;" 
d="M247.323 4.40137c0 -23.4834 -19.0371 -42.5205 -42.5205 -42.5205s-42.5205 19.0371 -42.5205 42.5205s19.0371 42.5205 42.5205 42.5205s42.5205 -19.0371 42.5205 -42.5205zM376.971 46.9219c23.4834 0 42.5195 -19.0371 42.5205 -42.5205
c0 -23.4834 -19.0371 -42.5205 -42.5205 -42.5205s-42.5205 19.0371 -42.5205 42.5205s19.0371 42.5205 42.5205 42.5205zM508.957 246.53l-52.3203 -155.508s-4.33105 -23.0771 -26.3975 -23.0771h-264.195s-27.4404 28.9258 -27.4404 28.9258
s-28.0723 208.271 -29.4639 220.853c-1.39062 12.582 -17.4824 21.9082 -17.4824 21.9082l-69.2334 32.3408c-37.9053 19.8223 -20.6758 57.5371 0 48.875c87.791 -41.4141 128.572 -61.8047 131.196 -78.1172c2.65625 -16.3447 7.27148 -55.7031 7.27148 -55.7031v-0.25293
c0.537109 0.158203 0.916992 0.25293 0.916992 0.25293h323.597c39.0742 0 23.5518 -40.5605 23.5518 -40.4971zM433.274 159.94l-0.538086 -0.03125h-256.133l5.2793 -41.8564h238.936zM458.218 244.349h-292.205l5.62695 -44.7334h273.363z" />
    <glyph glyph-name="033-shopping-cart-13" unicode="&#xf11e;" 
d="M166 147.996c-8.26172 0 -15 -6.72266 -15 -15s6.73828 -15 15 -15h271.004c8.29297 0 15 -6.71094 15 -15c0 -8.29297 -6.70703 -15 -15 -15h-271.004c-24.8125 0 -45 20.1875 -45 45c0 18.4609 11.1914 34.3242 27.1289 41.2539l-54.168 243.75h-78.9609
c-8.28906 0 -15 6.70703 -15 15c0 8.28906 6.71094 15 15 15h91c7.03125 0 13.125 -4.87891 14.6484 -11.75l10.7227 -48.25h365.633c4.71875 0 9.14062 -2.21484 11.9844 -5.96484c2.83984 -3.76172 3.72266 -8.625 2.43359 -13.1523l-60.0039 -210.004
c-1.81641 -6.44531 -7.70312 -10.8828 -14.4141 -10.8828h-271.004zM166 147.996zM151 42.9961c0 24.8125 20.1875 45 45.0039 45c24.8125 0 45 -20.1875 45 -45c0 -24.8164 -20.1875 -45 -45 -45c-24.8164 0 -45.0039 20.1836 -45.0039 45zM151 42.9961zM362.004 42.9961
c0 24.8125 20.1875 45 45 45c24.8164 0 45 -20.1875 45 -45c0 -24.8164 -20.1836 -45 -45 -45c-24.8125 0 -45 20.1836 -45 45zM362.004 42.9961z" />
    <glyph glyph-name="025-shopping-cart-8" unicode="&#xf116;" 
d="M396 8c-5.51953 0 -10 4.48047 -10 10s4.48047 10 10 10s10 -4.48047 10 -10s-4.48047 -10 -10 -10zM396 8zM230 8c-5.51953 0 -10 4.48047 -10 10s4.48047 10 10 10s10 -4.48047 10 -10s-4.48047 -10 -10 -10zM230 8zM509.883 324.152
c1.89453 -2.42578 2.56641 -5.58984 1.82031 -8.57812l-36.2109 -144.848c-3.35156 -13.3828 -15.3242 -22.7266 -29.1094 -22.7266h-57.3477h-0.0195312h-0.0195312h-145.992h-0.015625h-0.0195312h-58.6211l9.41406 -40h242.238c16.543 0 30 -13.457 30 -30
s-13.457 -30 -30 -30h-0.0273438c6.29297 -8.36328 10.0273 -18.7539 10.0273 -30c0 -27.5703 -22.4297 -50 -50 -50s-50 22.4297 -50 50c0 11.2461 3.73438 21.6367 10.0273 30h-86.0547c6.29297 -8.36328 10.0273 -18.7539 10.0273 -30c0 -27.5703 -22.4297 -50 -50 -50
s-50 22.4297 -50 50c0 11.2461 3.73438 21.6367 10.0273 30h-20.0273c-13.9805 0 -25.9922 9.50781 -29.2031 23.125l-74.5586 316.875h-36.2383c-16.543 0 -30 13.457 -30 30s13.457 30 30 30h60c13.9805 0 25.9922 -9.50781 29.2031 -23.125l22.793 -96.875h360.004
c3.07812 0 5.98828 -1.41797 7.88281 -3.84766zM474.191 248l15 60h-71.3633l-7.5 -60h63.8633zM356 228c-5.52344 0 -10 4.47656 -10 10s4.47656 10 10 10h34.1719l7.5 60h-71.6719v-30c0 -5.52344 -4.47656 -10 -10 -10s-10 4.47656 -10 10v30h-71.6719l7.5 -60h34.1719
c5.52344 0 10 -4.47656 10 -10s-4.47656 -10 -10 -10h-31.6719l7.5 -60h54.1719v30c0 5.52344 4.47656 10 10 10s10 -4.47656 10 -10v-30h54.1719l7.5 60h-31.6719zM179.641 168h52.0312l-7.5 60h-58.6484zM214.172 308h-67.4688l14.1133 -60h60.8555zM260 18
c0 16.543 -13.457 30 -30 30s-30 -13.457 -30 -30s13.457 -30 30 -30s30 13.457 30 30zM426 18c0 16.543 -13.457 30 -30 30s-30 -13.457 -30 -30s13.457 -30 30 -30s30 13.457 30 30zM436 88h-258.078l-15.9883 67.9453
c-0.00390625 0.0195312 -0.0078125 0.0351562 -0.0117188 0.0507812l-62.1875 264.293c-1.07031 4.53906 -5.07422 7.71094 -9.73438 7.71094h-60c-5.51562 0 -10 -4.48438 -10 -10s4.48438 -10 10 -10h52.0781l78.1875 -332.289
c1.07031 -4.53906 5.07422 -7.71094 9.73438 -7.71094h266c5.51562 0 10 4.48438 10 10s-4.48438 10 -10 10zM456.09 175.582l13.1055 52.418h-61.3672l-7.5 -60h46.0508c4.60156 0 8.59375 3.11719 9.71094 7.58203zM456.09 175.582zM316 248c5.51953 0 10 -4.48047 10 -10
s-4.48047 -10 -10 -10s-10 4.48047 -10 10s4.48047 10 10 10zM316 248z" />
    <glyph glyph-name="026-cart-of-ecommerce" unicode="&#xf117;" 
d="M450.028 128.543c-3.02051 -8.22266 -6.37695 -14.4316 -23.4258 -14.4316h-226.189l2.06445 -10.9912c14.9014 -0.586914 29.6348 -5.78906 40.4248 -22.5703h148.661c8.5918 12.5859 27.085 20.9766 42.6738 20.9766c37.4883 0 56.3672 -27.5371 56.3672 -58.5986
c0 -31.2295 -25.4229 -58.3135 -56.6855 -58.3135c-34.2998 0 -52.541 28.8125 -56.1992 45.5938h-120.99c-3.6582 -16.7812 -26.1777 -44.9229 -56.2148 -44.9229c-31.8174 0 -56.7197 28.8301 -56.7197 60.1094c0 14.2129 5.37012 29.4502 15.2373 39.9043
l-62.123 263.744h-81.1689c-10.3369 0 -15.7402 2.34961 -15.7402 11.3613v25.0029c0 9.31348 5.41992 13.9785 15.3877 13.9785h96.1377c14.6836 0 21.9658 -9.74902 24.4326 -19.9688l9.12891 -43.3115l342.077 -0.0673828c2.50098 0 15.4053 -0.0839844 21.6807 -8.92676
c2.4502 -3.45703 4.74902 -8.69336 1.71191 -17.4023zM434.338 64.9268c-11.7627 0 -21.3115 -9.54785 -21.3281 -21.3115c0 -11.7803 9.56543 -21.3115 21.3281 -21.3115c11.7637 0 21.3125 9.54883 21.3125 21.3115c0 11.7637 -9.54883 21.3115 -21.3125 21.3115z
M221.591 43.6152c0 11.8975 -9.66602 21.5801 -21.5293 21.5801c-11.8984 0 -21.5811 -9.68262 -21.5811 -21.5801s9.68262 -21.5459 21.5811 -21.5801c11.8633 0 21.5293 9.68262 21.5293 21.5801z" />
    <glyph glyph-name="051-shopping-cart-16" unicode="&#xf130;" 
d="M510.355 336.971c1.27441 -1.59277 1.84668 -3.63574 1.58105 -5.65918l-21.5117 -164.928c-1.92773 -14.7803 -14.1162 -26.2979 -28.9805 -27.3848l-283.494 -20.7441c-0.996094 -0.0722656 -1.98926 -0.108398 -2.97266 -0.108398
c-17.3984 0 -32.6855 11.2256 -37.79 28.1299l-62.6875 207.577c-2.20117 -0.668945 -4.5127 -1.01562 -6.87793 -1.01562c-6.28613 0 -12.1963 2.44824 -16.6396 6.89258l-44.0898 44.0889c-4.44434 4.44434 -6.89258 10.3535 -6.89258 16.6396
s2.44824 12.1963 6.89258 16.6406s10.3535 6.89355 16.6396 6.89355s12.1963 -2.44922 16.6396 -6.89355l44.0889 -44.0898c4.34277 -4.3418 6.60352 -9.97461 6.83496 -15.6748l414.083 -37.583c2.03125 -0.18457 3.90137 -1.18945 5.17676 -2.78125zM73.6543 370.338
c3.32715 3.32617 3.32715 8.73926 0 12.0664l-44.0889 44.0889c-1.6123 1.61035 -3.75391 2.49902 -6.0332 2.49902s-4.4209 -0.888672 -6.0332 -2.49902c-1.6123 -1.6123 -2.49902 -3.75586 -2.49902 -6.03418s0.886719 -4.4209 2.49902 -6.03223l44.0889 -44.0889
c1.6123 -1.6123 3.75391 -2.49902 6.0332 -2.49902s4.4209 0.887695 6.0332 2.49902zM258.275 347.1l-77.792 7.06055l11.0625 -59.3789l70.1113 -2.55371zM87.5283 362.598l19.5498 -64.7393l69.1064 -2.51758l-11.2217 60.2275zM133.115 211.645l58.4209 1.29785
l-12.5361 67.2861l-67.3379 2.45312zM176.854 133.217l29.1387 2.13086l-11.6729 62.6533l-56.7041 -1.26074l13.9297 -46.127c3.34961 -11.0879 13.748 -18.2402 25.3086 -17.3965zM194.362 279.669l12.3691 -66.3887l59.71 1.32715l-3.85645 62.5762zM221.046 136.449
l49.9854 3.6582l-3.66797 59.5176l-57.8486 -1.28613zM339.041 145.083l1.49512 56.168l-58.1641 -1.29199l3.62109 -58.7568zM340.936 216.263l1.54395 58.0107l-64.832 2.36133l3.80176 -61.6943zM342.879 289.27l1.33105 50.0303l-70.8213 6.42773l3.33105 -54.0479z
M411.194 150.363l4.22949 52.5508l-59.873 -1.33008l-1.47461 -55.4004zM416.633 217.944l4.30273 53.4717l-63.4648 2.31152l-1.52148 -57.1309zM422.14 286.382l3.66211 45.5117l-66.6221 6.04688l-1.30957 -49.2178zM475.551 168.323l4.7002 36.0322l-49.752 -1.10547
l-4.16602 -51.7793l34.0166 2.48828c7.79688 0.571289 14.1914 6.6123 15.2012 14.3643zM482.214 219.402l6.46289 49.5449l-52.7363 1.92188l-4.23145 -52.5898zM490.625 283.888l5.42969 41.6299l-55.3135 5.02148l-3.59766 -44.7031zM439.855 2.19531
c13.7861 -3.375 24.0488 -15.8291 24.0488 -30.6406c0 -17.3955 -14.1523 -31.5488 -31.5488 -31.5488c-17.3955 0 -31.5479 14.1533 -31.5479 31.5488c0 14.8115 10.2617 27.2656 24.0479 30.6406v17.9727h-257.548v-17.9727
c13.7861 -3.375 24.0479 -15.8291 24.0479 -30.6406c0 -17.3955 -14.1523 -31.5488 -31.5479 -31.5488c-17.3965 0 -31.5488 14.1533 -31.5488 31.5488c0 14.8115 10.2627 27.2656 24.0488 30.6406v17.9727h-8.26758c-7.93457 0 -15.2783 3.95508 -19.6455 10.5781
c-4.36719 6.62402 -5.10938 14.9316 -1.98438 22.2256l21.1855 49.4307c1.63184 3.80762 6.04102 5.57129 9.84766 3.93945c3.80664 -1.63281 5.57129 -6.04102 3.93848 -9.84863l-21.1846 -49.4316c-1.15039 -2.68457 -0.886719 -5.62012 0.719727 -8.05859
c1.60742 -2.43652 4.2041 -3.83496 7.12305 -3.83496h312.364c4.1416 0 7.5 -3.35742 7.5 -7.5c0 -4.1416 -3.3584 -7.5 -7.5 -7.5v0h-16.5488v-17.9727zM176.355 -28.4443c0 9.12402 -7.42285 16.5488 -16.5479 16.5488s-16.5479 -7.42383 -16.5479 -16.5488
s7.42285 -16.5488 16.5479 -16.5488s16.5479 7.42383 16.5479 16.5488zM432.355 -44.9932c9.125 0 16.5488 7.42383 16.5488 16.5488c0 9.12402 -7.42383 16.5488 -16.5488 16.5488s-16.5479 -7.42383 -16.5479 -16.5488s7.42285 -16.5488 16.5479 -16.5488z" />
    <glyph glyph-name="001-rubbish-bin-delete-button" unicode="&#xf100;" 
d="M85.333 -7.11133v341.334h341.334v-341.334c0 -31.2891 -25.6006 -56.8887 -56.8896 -56.8887h-227.555c-31.2891 0 -56.8896 25.5996 -56.8896 56.8887zM455.111 419.556v-56.8887h-398.223v56.8887h99.5557l28.4443 28.4443h142.223l28.4443 -28.4443h99.5557z" />
    <glyph glyph-name="046-cart-5" unicode="&#xf12b;" 
d="M509.781 361.413c2.92285 -3.78516 3.92871 -8.7168 2.71582 -13.3428l-52.665 -201.554l-17.6602 -67.5967c-1.77637 -6.79883 -7.9209 -11.542 -14.9473 -11.542h-13.6553c2.83008 -5.95312 4.41504 -12.6582 4.41504 -19.9258
c0 -28.0234 -23.3662 -50.8262 -52.0859 -50.8262c-28.7168 0 -52.082 22.8027 -52.082 50.8262c0 7.27148 1.58105 13.9727 4.41406 19.9258h-36.4492c2.83301 -5.95312 4.41406 -12.6582 4.41406 -19.9258c0 -28.0234 -23.3613 -50.8262 -52.082 -50.8262
c-28.7197 0 -52.0859 22.8027 -52.0859 50.8262c0 7.27148 1.58496 13.9727 4.41504 19.9258h-13.9453c-8.53223 0 -15.4521 6.91602 -15.4521 15.4482s6.91992 15.4482 15.4521 15.4482h242.799l9.58887 36.7002h-77.4639
c-0.015625 0 -0.0273438 -0.00390625 -0.0429688 -0.00390625c-0.0234375 0 -0.046875 0.00390625 -0.0664062 0.00390625h-95.1865c-0.0234375 0 -0.046875 -0.00390625 -0.0664062 -0.00390625c-0.015625 0 -0.03125 0.00390625 -0.0429688 0.00390625h-97.3545
c-6.99414 -0.0625 -13.2988 4.79492 -15.0605 11.542l-52.6689 201.554l-16.7754 64.2041l-50.2656 -16.4697c-18.9316 -6.21582 -28.5557 23.1582 -9.62012 29.3574l65.8701 21.585c8.35645 2.74023 17.5381 -2.28125 19.7578 -10.7744l17.9141 -68.5518h383.741
c4.78711 0 9.2998 -2.21582 12.2275 -6.00391c-0.732422 0.947266 -1.46387 1.89062 0 -0.00390625c1.45898 -1.89062 0.731445 -0.947266 0 0zM255.3 47.4521c0 10.9863 -9.50293 19.9258 -21.1865 19.9258c-11.6826 0 -21.1895 -8.93945 -21.1895 -19.9258
s9.50684 -19.9297 21.1895 -19.9297c11.6836 0 21.1865 8.94336 21.1865 19.9297zM387.088 47.4521c0 10.9863 -9.50684 19.9258 -21.1855 19.9258c-11.6836 0 -21.1904 -8.93945 -21.1904 -19.9258s9.50684 -19.9297 21.1904 -19.9297
c11.6787 0 21.1855 8.94336 21.1855 19.9297zM458.372 263.135l19.1777 73.3896h-92.1406l-8.86914 -73.3896h81.832zM432.955 165.871l17.3467 66.3672h-77.4951l-8.01953 -66.3672h68.168zM265.77 165.871h67.8936l8.02344 66.3672h-83.9375zM254.016 263.135h91.4053
l8.86914 73.3896h-109.147zM214.023 336.524h-92.1406l19.1777 -73.3896h81.832zM159.809 191.386l6.66504 -25.5146h68.1758l-8.02344 66.3672h-77.4912zM159.809 191.386z" />
    <glyph glyph-name="040-cart-4" unicode="&#xf125;" 
d="M42.4678 53.085c-9.12793 0 -16.2725 7.14453 -16.2725 16.6699v63.9014v197.259v75.0137c0 9.12891 7.14453 16.2725 16.2725 16.2725c9.12891 0 16.2734 -7.14355 16.2734 -16.2725v-59.1377h411.188c4.7627 0 9.52539 -2.38184 12.7012 -6.35059
c3.1748 -3.96875 3.96875 -9.12891 2.77832 -13.8916l-53.9785 -197.259c-1.98438 -7.14453 -8.33496 -11.9072 -15.4795 -11.9072h-357.209v-31.752h314.344c9.12891 0 16.2734 -7.14355 16.2734 -16.2725s-7.14453 -16.2734 -16.2734 -16.2734h-20.6387
c5.16016 -9.12793 7.93848 -19.0508 7.93848 -29.7676c0 -16.6689 -6.35059 -32.1484 -17.8604 -43.6582c-11.9072 -11.5107 -26.9893 -17.8604 -43.6592 -17.8604s-32.1494 6.34961 -43.6592 17.8604c-19.8447 19.8447 -23.0195 50.0088 -9.92188 73.4258h-76.6016
c5.15918 -9.12793 7.9375 -19.0508 7.9375 -29.7676c0 -16.6689 -6.35059 -32.1484 -17.8604 -43.6582c-11.9072 -11.5107 -26.9893 -17.8604 -43.6592 -17.8604s-32.1484 6.34961 -43.6592 17.8604c-19.8447 19.8447 -23.0195 50.0088 -9.92188 73.4258h-19.0518z
M277.829 43.957c-11.5098 -11.5107 -11.5098 -29.7676 0 -41.2783c11.1133 -11.1133 30.165 -11.1133 41.2783 0c5.55566 5.55664 8.73145 12.7012 8.73145 20.6387c0 7.93848 -3.17578 15.083 -8.73145 20.6396c-5.55664 5.55566 -12.7012 8.73145 -20.6396 8.73145
c-7.9375 0 -15.082 -3.17578 -20.6387 -8.73145zM94.4619 43.957c-11.5098 -11.5107 -11.5098 -29.7676 0 -41.2783c11.1133 -11.1133 30.1641 -11.1133 41.2773 0c5.55664 5.55664 8.73242 12.7012 8.73242 20.6387c0 7.93848 -3.17578 15.083 -8.73242 20.6396
c-5.55664 5.55566 -12.7002 8.73145 -20.6387 8.73145c-7.9375 0 -15.082 -3.17578 -20.6387 -8.73145zM58.7412 314.642v-165.109h344.509l45.2461 165.109h-389.755z" />
    <glyph glyph-name="011-shopping-cart" unicode="&#xf10a;" 
d="M153.703 110.887c-10.8379 0 -21.0449 2.94629 -29.6738 7.99707v-38.5127c0 -16.3105 13.2588 -29.6738 29.6738 -29.6738h268.328c31.5684 0 57.3486 -25.7812 57.3486 -57.3486c0 -31.5684 -25.7803 -57.3486 -57.3486 -57.3486s-57.3486 25.6748 -57.3486 57.3486
c0 10.5225 2.84082 20.4141 7.89258 28.9375h-127.745c5.05078 -8.41797 7.8916 -18.415 7.8916 -28.9375c0 -31.5684 -25.7803 -57.3486 -57.3486 -57.3486c-31.5674 0 -57.3486 25.6748 -57.3486 57.3486c0 10.7334 3.05176 20.835 8.20801 29.4629
c-28.5166 3.68359 -50.6143 28.0957 -50.6143 57.5596v88.3906v69.9756v78.2881v10.207v64.3984l-68.8184 29.043c-7.26074 3.05176 -10.6279 11.3643 -7.57617 18.625s11.3643 10.6279 18.625 7.57617l77.5527 -32.6201
c0.420898 -0.210938 0.946289 -0.420898 1.36719 -0.631836c0.105469 -0.104492 0.210938 -0.104492 0.316406 -0.209961c0.209961 -0.105469 0.525391 -0.31543 0.841797 -0.526367c0.209961 -0.209961 0.420898 -0.31543 0.630859 -0.526367
c0.105469 -0.104492 0.31543 -0.209961 0.420898 -0.31543c0.31543 -0.209961 0.526367 -0.420898 0.736328 -0.630859l0.316406 -0.316406l0.630859 -0.630859l0.31543 -0.31543c0.105469 -0.210938 0.316406 -0.420898 0.420898 -0.631836
c0.105469 -0.209961 0.210938 -0.31543 0.316406 -0.526367c0.104492 -0.209961 0.209961 -0.31543 0.31543 -0.525391c0.209961 -0.210938 0.31543 -0.420898 0.420898 -0.631836c0.105469 -0.105469 0.105469 -0.31543 0.209961 -0.420898
c0.210938 -0.31543 0.316406 -0.526367 0.420898 -0.841797c0 -0.105469 0.105469 -0.31543 0.105469 -0.420898c0.105469 -0.31543 0.210938 -0.630859 0.31543 -0.947266c0 -0.209961 0.105469 -0.31543 0.105469 -0.525391
c0.105469 -0.316406 0.105469 -0.526367 0.210938 -0.841797c0 -0.316406 0.104492 -0.631836 0.104492 -0.947266c0.105469 -0.210938 0.105469 -0.31543 0.105469 -0.420898c0.105469 -0.420898 0.105469 -0.947266 0.105469 -1.47363v-49.877l357.56 -49.3516
c0.210938 0 0.316406 -0.105469 0.420898 -0.105469c0.316406 0 0.526367 0 0.841797 -0.104492c0.105469 0 0.316406 -0.105469 0.526367 -0.105469c0.210938 0 0.526367 -0.105469 0.736328 -0.210938c0.210938 -0.104492 0.420898 -0.104492 0.631836 -0.209961
c0.209961 -0.105469 0.420898 -0.210938 0.630859 -0.31543c0.210938 -0.105469 0.420898 -0.210938 0.631836 -0.316406c0.210938 -0.104492 0.420898 -0.209961 0.631836 -0.31543c0.209961 -0.209961 0.420898 -0.31543 0.630859 -0.420898
c0.210938 -0.105469 0.31543 -0.209961 0.526367 -0.31543c0.209961 -0.105469 0.420898 -0.31543 0.630859 -0.420898c0.210938 -0.105469 0.316406 -0.31543 0.526367 -0.420898l0.526367 -0.526367c0.105469 -0.105469 0.31543 -0.210938 0.420898 -0.420898
c0.105469 -0.210938 0.31543 -0.31543 0.420898 -0.526367c0.105469 -0.209961 0.31543 -0.31543 0.420898 -0.526367c0.209961 -0.209961 0.31543 -0.31543 0.420898 -0.525391c0.105469 -0.210938 0.31543 -0.420898 0.420898 -0.631836
c0.105469 -0.209961 0.209961 -0.31543 0.31543 -0.526367c0.105469 -0.209961 0.210938 -0.420898 0.31543 -0.630859c0.105469 -0.105469 0.210938 -0.31543 0.316406 -0.526367c0.104492 -0.31543 0.209961 -0.526367 0.31543 -0.736328
c0.105469 -0.210938 0.105469 -0.420898 0.209961 -0.631836c0.105469 -0.209961 0.105469 -0.420898 0.210938 -0.630859c0.105469 -0.31543 0.105469 -0.526367 0.209961 -0.736328c0 -0.210938 0.105469 -0.420898 0.105469 -0.631836
c0 -0.209961 0.105469 -0.526367 0.105469 -0.736328c0.105469 -0.210938 0.105469 -0.420898 0.105469 -0.631836v-0.841797v-0.420898v-118.695c0 -31.9893 -26.0967 -58.085 -58.085 -58.085h-282.113zM224.416 -6.5459c0 15.9941 -13.0488 28.9365 -28.9375 28.9365
c-15.8896 0 -28.9375 -13.0479 -28.9375 -28.9365c0 -15.8896 13.0479 -28.9375 28.9375 -28.9375c15.8887 0 28.9375 12.9424 28.9375 28.9375zM451.074 -6.5459c0 15.9941 -13.0488 28.9365 -28.9375 28.9365c-15.8896 0 -28.9375 -13.0479 -28.9375 -28.9365
c0 -15.8896 13.0479 -28.9375 28.9375 -28.9375c15.8887 0 28.9375 12.9424 28.9375 28.9375zM435.816 139.298c16.3096 0 29.6738 13.2588 29.6738 29.7793v106.384l-341.461 47.0361v-5.26074v-78.2891v-69.9756c0 -16.3105 13.2588 -29.6738 29.6738 -29.6738h282.113z
" />
    <glyph glyph-name="054-sell" unicode="&#xf133;" 
d="M188.827 136.166c-14.6699 0 -23.6016 15.5977 -26.6748 29.9541l-38.6484 181.102h388.496l-38.6592 -181.102c-4.11816 -14.1875 -11.999 -29.9541 -26.6758 -29.9541h-257.838zM405.942 182.401c-1.52441 -7.20605 3.06836 -14.2842 10.2754 -15.8125
c0.931641 -0.196289 1.86426 -0.293945 2.78027 -0.293945c6.16699 0 11.7002 4.29785 13.0332 10.5674l26.6758 125.584c1.52832 7.20215 -3.07324 14.2852 -10.2744 15.8145c-7.22266 1.5332 -14.2861 -3.07422 -15.8145 -10.2754zM339.002 180.574
c-0.520508 -7.3457 5.01367 -13.7227 12.3604 -14.2539c0.324219 -0.0205078 0.638672 -0.0302734 0.957031 -0.0302734c6.93848 0 12.792 5.36914 13.2861 12.3955l8.89551 125.584c0.519531 7.35059 -5.01367 13.7285 -12.3604 14.248
c-7.37207 0.514648 -13.7285 -5.01367 -14.2432 -12.3594zM271.346 318.522c-7.34668 -0.519531 -12.8857 -6.90332 -12.3584 -14.25l8.88965 -125.578c0.494141 -7.02637 6.34766 -12.3955 13.2861 -12.3955c0.318359 0 0.632812 0.00976562 0.957031 0.03125
c7.34082 0.525391 12.8848 6.90234 12.3594 14.249l-8.88965 125.583c-0.515625 7.34668 -6.95508 12.8906 -14.2441 12.3604zM185.055 318.261c-7.20703 -1.5293 -11.8086 -8.60742 -10.2803 -15.8154l26.6758 -125.583
c1.33301 -6.26953 6.87207 -10.5684 13.0342 -10.5684c0.916992 0 1.84766 0.0927734 2.7793 0.293945c7.21289 1.5293 11.8096 8.6123 10.2803 15.8135l-26.6758 125.584c-1.53418 7.20215 -8.60156 11.8037 -15.8135 10.2754zM205.701 63.4951
c25.1572 0 45.5527 -20.3945 45.5518 -45.5518c0 -25.1562 -20.3955 -45.5518 -45.5518 -45.5518s-45.5518 20.3955 -45.5518 45.5518s20.3945 45.5518 45.5518 45.5518zM205.701 0.863281c9.43652 0 17.0859 7.64453 17.0801 17.0801
c0 9.43066 -7.64355 17.0801 -17.0801 17.0801c-9.43555 0 -17.0791 -7.64941 -17.0791 -17.0801c0 -9.43555 7.64355 -17.0801 17.0791 -17.0801zM422.075 63.4951c25.1562 0 45.5518 -20.3945 45.5518 -45.5518c0 -25.1562 -20.3945 -45.5518 -45.5518 -45.5518
c-25.1621 0 -45.5576 20.3955 -45.5576 45.5518s20.3955 45.5518 45.5576 45.5518zM422.075 0.863281c9.43066 0 17.085 7.64453 17.0801 17.0801c0 9.43066 -7.64844 17.0801 -17.0801 17.0801c-9.43555 0 -17.0801 -7.64941 -17.0801 -17.0801
c0 -9.43555 7.64453 -17.0801 17.0801 -17.0801zM491.069 82.0732h-344.771c-12.4062 0 -23.0254 8.44238 -25.8213 20.5244l-64.5 278.124h-40.5332c-8.5293 0 -15.4434 6.91406 -15.4434 15.4443c0 8.5293 6.91406 15.4424 15.4424 15.4424h44.0186
c12.3955 0 23.0156 -8.4375 25.8203 -20.5088l64.5059 -278.14h341.287c8.53027 0 15.4424 -6.91406 15.4424 -15.4443c-0.00390625 -8.53418 -6.91211 -15.4424 -15.4473 -15.4424z" />
    <glyph glyph-name="019-shopping-cart-of-checkered-design" unicode="&#xf111;" 
d="M508.846 341.321c3.09082 -4.23828 3.97266 -9.69824 2.36719 -14.6992l-68.4502 -213.564c-2.17578 -6.79688 -8.49707 -11.4111 -15.6406 -11.4111h-240.939c-2.22852 0 -4.35742 0.490234 -6.32812 1.31934l-15.2617 -42.3906h262.533
c7.56055 0 13.6895 -6.12793 13.6895 -13.6885c0 -7.56152 -6.12793 -13.6904 -13.6895 -13.6904h-15.3916c7.84082 -8.72656 12.6533 -20.2188 12.6533 -32.8564c0 -27.1768 -22.1074 -49.2842 -49.2842 -49.2842c-27.1777 0 -49.2852 22.1074 -49.2852 49.2842
c0 12.6377 4.81348 24.1299 12.6592 32.8564h-107.45c7.8418 -8.72656 12.6543 -20.2188 12.6543 -32.8564c0 -27.1768 -22.1113 -49.2842 -49.2832 -49.2842s-49.2842 22.1074 -49.2842 49.2842c0 12.6377 4.8125 24.1299 12.6543 32.8564h-12.6543
c-4.45703 0 -8.63184 2.1709 -11.1982 5.81836c-2.57031 3.64746 -3.19238 8.31055 -1.68164 12.5078l24.6416 68.4502c1.45215 4.03711 4.63965 6.92383 8.40137 8.23438l-85.2275 245.662l-69.6289 27.3525c-8.44434 3.31836 -12.5938 12.8584 -9.28125 21.3018
c3.31836 8.43945 12.8535 12.5898 21.3027 9.28125l76.6641 -30.1162c4.46191 -1.75684 7.93359 -5.37207 9.50977 -9.90723l15.2119 -43.8496c0.688477 0.0927734 1.4043 0.135742 2.12012 0.135742h369.624c5.24609 0 10.1816 -2.50781 13.2734 -6.74609z
M194.398 -21.5635c12.0801 0 21.9033 9.82324 21.9033 21.9033s-9.82324 21.9043 -21.9033 21.9043c-12.0811 0 -21.9043 -9.82422 -21.9043 -21.9043s9.82324 -21.9033 21.9043 -21.9033zM375.103 -21.5635c12.0791 0 21.9033 9.82324 21.9033 21.9033
s-9.82422 21.9043 -21.9033 21.9043c-12.0801 0 -21.9043 -9.82422 -21.9043 -21.9043s9.82422 -21.9033 21.9043 -21.9033zM461.214 278.248l11.8457 36.9629h-95.6748v-36.9629h83.8291zM437.075 202.954l13.6045 42.4395h-73.2949v-42.4395h59.6904zM268.775 202.954
h75.7529v42.4395h-75.7529v-42.4395zM344.528 170.096h-75.7529v-35.5938h75.7529v35.5938zM159.4 245.394l14.7246 -42.4395h61.7979v42.4395h-76.5225zM268.775 278.248h75.7529v36.9629h-75.7529v-36.9629zM235.921 315.211h-100.745l12.8223 -36.9629h87.9229v36.9629z
M185.526 170.096l12.3467 -35.5938h38.0479v35.5938h-50.3945zM377.385 134.501h37.7598l11.4062 35.5938h-49.166v-35.5938z" />
    <glyph glyph-name="002-trash" unicode="&#xf101;" 
d="M487.669 359.671c1.99414 -2 3.00098 -4.55664 2.99902 -7.66699v-21.3359c0 -3.11035 -1.00684 -5.66797 -3.00098 -7.66406c-1.99609 -1.99805 -4.55469 -2.99805 -7.66211 -2.99805h-32.0039v-316.009c0 -18.4434 -5.21875 -34.3848 -15.6621 -47.835
c-10.4453 -13.4404 -22.999 -20.1611 -37.6709 -20.1611h-277.34c-14.668 0 -27.2236 6.49609 -37.6689 19.502c-10.4443 12.9971 -15.666 28.7148 -15.666 47.166v317.337h-31.998c-3.10938 0 -5.66602 1 -7.66699 2.99805c-2 1.99707 -2.99805 4.55371 -2.99805 7.66406
v21.3359c0 3.11035 1.00293 5.66699 2.99805 7.66699c2.00098 1.99512 4.55371 2.99805 7.66699 2.99805h103.001l23.333 55.6641c3.33398 8.22559 9.33398 15.2246 18.002 21.0029c8.66699 5.77637 17.4463 8.66406 26.333 8.66406h106.67
c8.88574 0 17.668 -2.8877 26.3379 -8.66406c8.66211 -5.77832 14.6641 -12.7793 17.9961 -21.0029l23.333 -55.6641h103.005c3.1084 0 5.66504 -1.00293 7.66309 -2.99805zM197.666 401.675l-16.334 -39.001h149.34l-16.0059 39.001
c-1.55176 1.99609 -3.44531 3.2207 -5.66699 3.66602h-105.667c-2.22168 -0.441406 -4.1123 -1.66797 -5.66602 -3.66602zM405.338 3.99512h-0.000976562v316.011h-298.674v-316.011c0 -4.88281 0.777344 -9.38965 2.33105 -13.498
c1.55664 -4.10742 3.16895 -7.10742 4.83789 -8.99707c1.66992 -1.89355 2.83105 -2.83301 3.49707 -2.83301h277.34c0.671875 0 1.83008 0.939453 3.50098 2.83301c1.66211 1.88965 3.27734 4.88965 4.83398 8.99707c1.55957 4.1084 2.33398 8.61035 2.33398 13.498z
M160 42.6631c-3.11426 0 -5.66797 0.999023 -7.66797 2.99707c-2.00098 2.00488 -2.99805 4.55469 -2.99805 7.6709v192.006c0 3.10938 1.00098 5.66602 2.99805 7.66797c2 1.99609 4.55371 2.99414 7.66797 2.99414h21.332c3.11426 0 5.66602 -0.999023 7.66699 -2.99414
c1.99512 -2.00195 2.99805 -4.55859 2.99805 -7.66797v-192.006c0 -3.11621 -1.00293 -5.66504 -2.99805 -7.6709c-1.99512 -1.99902 -4.55371 -2.99707 -7.66699 -2.99707h-21.332zM245.334 42.6631c-3.11035 0 -5.66797 0.999023 -7.66699 2.99707
c-2.00098 2.00488 -2.99805 4.55469 -2.99805 7.6709v192.006c0 3.10938 0.99707 5.66602 2.99805 7.66797c2 1.99609 4.55664 2.99414 7.66699 2.99414h21.332c3.1123 0 5.66992 -0.999023 7.66406 -2.99414c2.00391 -2.00195 2.99902 -4.55859 2.99902 -7.66797v-192.006
c0 -3.11621 -0.993164 -5.66504 -2.99902 -7.6709c-1.99414 -1.99902 -4.55176 -2.99707 -7.66406 -2.99707h-21.332zM330.671 42.6631c-3.11719 0 -5.66602 0.999023 -7.67188 2.99707c-1.99805 2.00488 -2.99609 4.55469 -2.99609 7.6709v192.006
c0 3.10938 0.998047 5.66602 2.99609 7.66797c2.00586 1.99609 4.55469 2.99414 7.67188 2.99414h21.3281c3.11621 0 5.67285 -0.999023 7.6709 -2.99414c1.99609 -2.00195 2.99121 -4.55859 2.99121 -7.66797v-192.006c0 -3.11621 -0.993164 -5.66504 -2.99121 -7.6709
c-1.99805 -1.99902 -4.55469 -2.99707 -7.6709 -2.99707h-21.3281z" />
    <glyph glyph-name="030-shopping-cart-11" unicode="&#xf11b;" 
d="M207.82 11.1631c20.7227 0 37.582 -16.8594 37.582 -37.582s-16.8594 -37.582 -37.582 -37.582s-37.582 16.8594 -37.582 37.582s16.8594 37.582 37.582 37.582zM207.82 -48.7939c12.3359 0 22.375 10.0391 22.375 22.375s-10.0352 22.375 -22.375 22.375
c-12.3359 0 -22.3711 -10.0391 -22.3711 -22.375s10.0352 -22.375 22.3711 -22.375zM207.82 -48.7939zM365.333 11.1631c20.7227 0 37.582 -16.8594 37.582 -37.582s-16.8594 -37.582 -37.582 -37.582s-37.582 16.8594 -37.582 37.582s16.8594 37.582 37.582 37.582z
M365.333 -48.7939c12.3359 0 22.3711 10.0391 22.3711 22.375s-10.0352 22.375 -22.3711 22.375c-12.3398 0 -22.375 -10.0391 -22.375 -22.375s10.0352 -22.375 22.375 -22.375zM365.333 -48.7939zM491.114 377.145c11.418 0 20.707 -9.28906 20.7031 -20.7109
c0 -11.418 -9.28906 -20.707 -20.707 -20.707h-3.44531l-19.1602 -103.418c-0.00390625 -0.0078125 -16.2422 -87.665 -16.2422 -87.665c-3 -16.1797 -17.1172 -27.9219 -33.5703 -27.9219h-246.024l5.29297 -28.5625c1.75781 -9.48828 10.0391 -16.375 19.6875 -16.375
h206.962c15.375 0 27.8828 -12.5078 27.8828 -27.8828s-12.5078 -27.8789 -27.8828 -27.8789h-206.962c-36.5234 0 -67.8594 26.0625 -74.5156 61.9766l-13.793 74.4414c-0.765625 4.12891 1.96094 8.09766 6.09375 8.85938
c4.12891 0.765625 8.09375 -1.96094 8.85938 -6.08984l13.793 -74.4375c5.32031 -28.707 30.3711 -49.543 59.5625 -49.543h206.962c6.98828 0 12.6758 5.68359 12.6758 12.6719s-5.6875 12.6758 -12.6758 12.6758h-206.958c-16.9805 0 -31.5508 12.1172 -34.6445 28.8125
l-54.2422 292.767h-25.7773l35.1523 -189.731c0.765625 -4.12891 -1.96094 -8.09766 -6.09375 -8.86328c-4.13281 -0.761719 -8.09375 1.96094 -8.85938 6.08984l-36.7852 198.532c-0.0117188 0.046875 -0.0195312 0.0976562 -0.0273438 0.148438l-0.0078125 0.0429688
c-0.84375 4.55469 -4.82031 7.86328 -9.45312 7.86328h-28.5352c-15.3711 0 -27.8789 12.5078 -27.8789 27.8789c0 15.375 12.5078 27.8828 27.8789 27.8828h28.5352c31.5078 0 58.543 -22.4844 64.2812 -53.4648l3.22266 -17.3906h266.868
c4.19922 0 7.60156 -3.40625 7.60156 -7.60547s-3.40234 -7.60547 -7.60156 -7.60547h-264.048l2.03516 -11h361.841c3.03125 0 5.5 2.46875 5.5 5.5c0 3.03516 -2.46875 5.5 -5.5 5.5h-69.4102c-4.20312 0 -7.60547 3.40625 -7.60547 7.60547
s3.40234 7.60547 7.60547 7.60547h69.4102zM389.321 241.43l10.3398 94.293h-52.9062l-3.64844 -94.293h46.2148zM132.094 335.723l17.4688 -94.293h49.7656l-10.3398 94.293h-56.8945zM204.285 335.723l10.3398 -94.293h46.2158l-3.64844 94.293h-52.9072zM272.411 335.723
l3.64844 -94.293h51.8281l3.64844 94.293h-59.125zM56.9141 407.445c9.72656 0 18.332 -5.64453 22.3789 -14.082h26.6172c-5.02344 22.9414 -25.3633 39.4297 -48.9961 39.4297h-28.5352c-6.98438 0 -12.6719 -5.6875 -12.6719 -12.6758s5.68359 -12.6719 12.6719 -12.6719
h28.5352zM152.383 226.223l17.4688 -94.2939h41.4844l-10.3398 94.2939h-48.6133zM216.297 226.223l10.3398 -94.2939h38.4424l-3.64844 94.2939h-45.1338zM280.298 131.929h43.3516l3.65234 94.2939h-50.6523zM338.872 131.929h38.4414l10.3398 94.2939h-45.1328z
M437.31 147.413l14.6016 78.8096h-48.957l-10.3438 -94.2939h26.0859c9.12109 0 16.9492 6.51172 18.6133 15.4844zM454.728 241.43l17.4727 94.293h-57.2383l-10.3398 -94.293h50.1055zM454.728 241.43zM372.353 -23.5049
c1.43359 -3.46094 0.0625 -7.58203 -3.17969 -9.47266c-2.71875 -1.58203 -6.22656 -1.3125 -8.66406 0.679688c-2.5625 2.09766 -3.46875 5.74219 -2.19922 8.79297c2.55078 6.12891 11.4766 6.08984 14.043 0zM372.353 -23.5049zM214.836 -23.5166
c1.47266 -3.49219 0.015625 -7.65625 -3.26953 -9.51562c-2.94141 -1.66016 -6.72656 -1.14844 -9.12109 1.23438c-2.10938 2.10156 -2.78125 5.33594 -1.71484 8.10938c1.08984 2.84375 3.85547 4.78516 6.90234 4.86719
c3.07031 0.0820312 6.07422 -1.81641 7.20312 -4.69531zM214.836 -23.5166z" />
    <glyph glyph-name="053-grocery-trolley" unicode="&#xf132;" 
d="M20.3115 343.163c-11.2178 0 -20.3115 9.09375 -20.3115 20.3115s9.09375 20.3125 20.3115 20.3125h92.9883c8.86816 0 16.7148 -5.75586 19.376 -14.2266l7.99219 -25.4453h338.996c10.0996 0 19.3584 -4.31738 25.4102 -11.833
c6.05078 -7.52539 8.2793 -17.4951 6.12012 -27.3516l-23.3896 -106.693c-3.80469 -17.3906 -20.1035 -30.498 -37.9023 -30.498h-253.862l15.8555 -50.499h232.423c11.2178 0 20.3125 -9.09375 20.3125 -20.3115s-9.09473 -20.3125 -20.3125 -20.3125h-247.335
c-8.87695 0 -16.7227 5.75684 -19.3838 14.2266l-79.2207 252.32h-78.0674zM448.662 208.354l5.91309 27.2559h-279.75l8.90332 -27.0918c-0.00878906 0.078125 0.0175781 0.113281 0.0693359 0.113281c0.164062 0 0.572266 -0.268555 0.823242 -0.34668zM153.42 303.483
h-0.892578l8.95605 -27.248h0.493164h301.423l5.91309 27.248h-315.893zM195.128 29.0391c0 15.9199 12.9053 28.8262 28.8262 28.8262c15.9199 0 28.8252 -12.9062 28.8252 -28.8262s-12.9053 -28.8262 -28.8252 -28.8262c-15.9209 0 -28.8262 12.9062 -28.8262 28.8262z
M373.655 29.0391c0 15.9199 12.9053 28.8262 28.8262 28.8262c15.9199 0 28.8252 -12.9062 28.8252 -28.8262s-12.9053 -28.8262 -28.8252 -28.8262c-15.9209 0 -28.8262 12.9062 -28.8262 28.8262z" />
    <glyph glyph-name="027-shopping-cart-9" unicode="&#xf118;" 
d="M508.92 334.978c2.79297 -3.61133 3.75488 -8.31641 2.60254 -12.7344l-57.8008 -222.216c-1.69043 -6.50098 -7.55957 -11.0391 -14.2773 -11.0391h-271.098c-6.7168 0 -12.5869 4.53809 -14.2764 11.0391l-57.793 222.212
c-0.00195312 0.00195312 -0.00195312 0.00195312 -0.00195312 0.00390625l-16.3906 63.0527h-65.1318c-8.14746 0 -14.7529 6.60449 -14.7529 14.752s6.60547 14.7529 14.7529 14.7529h76.54c6.71973 0 12.5889 -4.53809 14.2783 -11.041l16.3916 -63.0527h375.284
c4.56738 0 8.87988 -2.11621 11.6729 -5.72949zM231.865 118.492v44.5566h-63.6992l11.5898 -44.5566h52.1094zM231.865 192.556v44.5859h-82.9678l11.5947 -44.5859h71.373zM231.865 266.647v44.5547h-102.231l11.5879 -44.5547h90.6436zM346.429 118.492v44.5566h-85.0576
v-44.5566h85.0576zM346.429 192.556v44.5859h-85.0576v-44.5859h85.0576zM346.429 266.647v44.5547h-85.0576v-44.5547h85.0576zM428.04 118.492l11.5898 44.5566h-63.6963v-44.5566h52.1064zM447.305 192.556l11.5977 44.5859h-82.9688v-44.5859h71.3711zM466.578 266.647
l11.5908 44.5547h-102.233v-44.5547h90.6426zM207.484 76.9814c29.7139 0 53.8867 -24.1738 53.8867 -53.8857c0 -29.7178 -24.1748 -53.8965 -53.8867 -53.8965c-29.7139 0 -53.8877 24.1787 -53.8877 53.8965c0 29.7119 24.1738 53.8857 53.8877 53.8857zM207.484 -1.2959
c13.4443 0 24.3809 10.9404 24.3809 24.3916c0 13.4424 -10.9385 24.3809 -24.3809 24.3809c-13.4443 0 -24.3828 -10.9365 -24.3828 -24.3809c0 -13.4482 10.9385 -24.3916 24.3828 -24.3916zM400.311 76.9814c29.7139 0 53.8887 -24.1738 53.8887 -53.8857
c0 -29.7178 -24.1729 -53.8965 -53.8887 -53.8965c-29.709 0 -53.8799 24.1787 -53.8799 53.8965c0 29.7119 24.1709 53.8857 53.8799 53.8857zM400.311 -1.2959c13.4453 0 24.3838 10.9404 24.3838 24.3916c0 13.4424 -10.9365 24.3809 -24.3838 24.3809
c-13.4404 0 -24.375 -10.9365 -24.375 -24.3809c0 -13.4482 10.9346 -24.3916 24.375 -24.3916z" />
    <glyph glyph-name="032-shopping-store-cart" unicode="&#xf11d;" 
d="M506.578 296.258c4.51855 -5.64844 6.21094 -12.4268 5.08301 -20.335l-21.4639 -123.136c-0.75293 -6.40332 -3.67188 -11.6738 -8.75488 -15.8154c-5.08398 -4.14258 -10.8252 -6.21387 -17.2275 -6.21387h-312.922l-6.21289 -35.0195h298.236
c7.1543 0 13.3643 -2.54199 18.6387 -7.62598c5.27344 -5.08301 7.90625 -11.3906 7.90625 -18.9219s-2.63379 -13.8389 -7.90625 -18.9219c-5.27441 -5.08398 -11.4844 -7.625 -18.6387 -7.625h-329.867c-7.9082 0 -14.6865 3.2002 -20.335 9.59863
c-5.27148 6.4043 -7.34277 13.748 -6.21289 22.0293l14.1211 76.8184l-21.4639 215.771l-61.0029 19.2051c-7.1543 2.25879 -12.332 6.59082 -15.5332 12.9912c-3.2002 6.40234 -3.85938 13.1797 -1.97656 20.334c2.25879 7.1543 6.68359 12.332 13.2734 15.5332
s13.2734 3.85938 20.0518 1.97656l77.9482 -24.8525c4.89551 -1.50684 8.94336 -4.33008 12.1436 -8.47266c3.20117 -4.14258 5.17773 -8.85059 5.93164 -14.1221l4.51855 -42.9277l353.59 -39.5391c7.90723 -1.12695 13.9326 -4.7041 18.0752 -10.7285zM153.554 27.957
c11.2969 0 20.8984 -3.9541 28.8066 -11.8633c7.9082 -7.90527 11.8613 -17.5098 11.8613 -28.8066c0 -11.2939 -3.95312 -20.9932 -11.8613 -29.0898c-7.9082 -8.0957 -17.5098 -12.1436 -28.8066 -12.1436s-20.8994 4.04785 -28.8066 12.1436
c-7.9082 8.0957 -11.8623 17.793 -11.8623 29.0898s3.9541 20.9004 11.8623 28.8066c7.90625 7.90918 17.5088 11.8633 28.8066 11.8633zM394.739 27.957c11.2949 0 20.9004 -3.9541 28.8076 -11.8633c7.9043 -7.90527 11.8623 -17.5098 11.8623 -28.8066
c0 -11.2939 -3.95508 -20.9932 -11.8623 -29.0898c-7.90723 -8.0957 -17.5127 -12.1436 -28.8076 -12.1436c-11.2969 0 -20.9004 4.04785 -28.8057 12.1436c-7.9082 8.0957 -11.8643 17.793 -11.8643 29.0898s3.9541 20.9004 11.8643 28.8066
c7.90625 7.90918 17.5088 11.8633 28.8057 11.8633z" />
    <glyph glyph-name="006-delete-button" unicode="&#xf105;" 
d="M404.526 386.658c32.251 0 58.4893 -26.2441 58.4893 -58.4961v-3.00195c0 -24.6455 -15.3467 -45.7402 -36.9648 -54.3369v-276.328c0 -32.25 -26.2373 -58.4951 -58.4893 -58.4951h-223.122c-32.251 0 -58.4902 26.2422 -58.4902 58.4951v276.329
c-21.6191 8.5957 -36.9648 29.6904 -36.9648 54.3369v3.00195c0 32.251 26.2363 58.4951 58.4893 58.4951h79.7012c3.97559 34.4746 33.3018 61.3418 68.8242 61.3418c35.5244 0 64.8555 -26.8682 68.8311 -61.3418h79.6963zM255.999 420.259
c-20.1963 0 -37.0615 -14.4805 -40.792 -33.6006h81.5918c-3.73145 19.1191 -20.5957 33.6006 -40.7998 33.6006zM398.31 -5.50488v272.171h-284.62v-272.171c0 -16.9561 13.7969 -30.7549 30.749 -30.7549h223.122c16.9521 0 30.749 13.7979 30.749 30.7549z
M435.274 325.161h0.000976562v3.00195c0 16.957 -13.7969 30.7549 -30.749 30.7549h-297.053c-16.9521 0 -30.749 -13.7979 -30.749 -30.7549v-3.00195c0 -16.957 13.7969 -30.7549 30.749 -30.7549h297.052c16.9521 0 30.749 13.7979 30.749 30.7549zM181.635 -0.783203
c-7.66113 0 -13.8711 6.20996 -13.8701 13.8691v156.174c0 7.6582 6.20996 13.8711 13.8701 13.8711c7.65918 0 13.8701 -6.21289 13.8701 -13.8711v-156.174c0 -7.65723 -6.20996 -13.8691 -13.8701 -13.8691zM255.999 -0.783203
c-7.66016 0 -13.8701 6.20996 -13.8701 13.8691v156.174c0 7.6582 6.21094 13.8711 13.8701 13.8711s13.8721 -6.21289 13.8721 -13.8711v-156.174c0 -7.65723 -6.21094 -13.8691 -13.8721 -13.8691zM330.364 -0.783203c-7.65918 0 -13.8721 6.20996 -13.8711 13.8691
v156.174c0 7.6582 6.20996 13.8711 13.8711 13.8711c7.6582 0 13.8691 -6.21289 13.8691 -13.8711v-156.174c0 -7.65723 -6.20996 -13.8691 -13.8691 -13.8691z" />
    <glyph glyph-name="057-cart-7" unicode="&#xf136;" 
d="M508.846 341.321c3.09082 -4.23828 3.97266 -9.69824 2.36719 -14.6992l-68.4502 -213.564c-2.17578 -6.79688 -8.49707 -11.4111 -15.6406 -11.4111h-240.939c-2.22852 0 -4.35742 0.490234 -6.32812 1.31934l-15.2617 -42.3906h262.533
c7.56055 0 13.6895 -6.12793 13.6895 -13.6885c0 -7.56152 -6.12793 -13.6904 -13.6895 -13.6904h-15.3916c7.84082 -8.72656 12.6533 -20.2188 12.6533 -32.8564c0 -27.1768 -22.1074 -49.2842 -49.2842 -49.2842c-27.1777 0 -49.2852 22.1074 -49.2852 49.2842
c0 12.6377 4.81348 24.1299 12.6592 32.8564h-107.45c7.8418 -8.72656 12.6543 -20.2188 12.6543 -32.8564c0 -27.1768 -22.1113 -49.2842 -49.2832 -49.2842s-49.2842 22.1074 -49.2842 49.2842c0 12.6377 4.8125 24.1299 12.6543 32.8564h-12.6543
c-4.45703 0 -8.63184 2.1709 -11.1982 5.81836c-2.57031 3.64746 -3.19238 8.31055 -1.68164 12.5078l24.6416 68.4502c1.45215 4.03711 4.63965 6.92383 8.40137 8.23438l-85.2275 245.662l-69.6289 27.3525c-8.44434 3.31836 -12.5938 12.8584 -9.28125 21.3018
c3.31836 8.43945 12.8535 12.5898 21.3027 9.28125l76.6641 -30.1162c4.46191 -1.75684 7.93359 -5.37207 9.50977 -9.90723l89.2568 -257.277h217.271l11.4062 35.5928h-193.367c-9.07422 0 -16.4268 7.35352 -16.4268 16.4277c0 9.07812 7.35254 16.4316 16.4268 16.4316
h203.896l13.5977 42.4385h-236.66c-9.07422 0 -16.4277 7.35254 -16.4277 16.4277c0 9.07422 7.35352 16.4277 16.4277 16.4277h247.196l11.8457 36.9629h-295.09c-9.0752 0 -16.4277 7.35254 -16.4277 16.4268c0 9.0752 7.35254 16.4277 16.4277 16.4277h317.603
c5.24609 0 10.1816 -2.50781 13.2734 -6.74609zM194.398 -21.5635c12.0801 0 21.9033 9.82324 21.9033 21.9033s-9.82324 21.9043 -21.9033 21.9043c-12.0811 0 -21.9043 -9.82422 -21.9043 -21.9043s9.82324 -21.9033 21.9043 -21.9033zM375.103 -21.5635
c12.0791 0 21.9033 9.82324 21.9033 21.9033s-9.82422 21.9043 -21.9033 21.9043c-12.0801 0 -21.9043 -9.82422 -21.9043 -21.9043s9.82422 -21.9033 21.9043 -21.9033z" />
    <glyph glyph-name="016-shopping-cart-5" unicode="&#xf10f;" 
d="M505.51 369.006c5.02734 -5.79883 7.31445 -13.5381 6.22461 -21.1982l-26.5977 -186.182c-1.8623 -13.0859 -13.0859 -22.8203 -26.3311 -22.8203h-301.057l4.41504 -26.5977h270.044c14.708 0 26.5977 -11.8896 26.5977 -26.5977s-11.8896 -26.5977 -26.5977 -26.5977
h-292.599c-3.43066 0 -6.67578 0.745117 -9.76074 1.99512c-1.09082 0.425781 -1.96875 1.16992 -2.97949 1.72852c-1.80859 1.01074 -3.58984 2.02148 -5.13281 3.45801c-0.958008 0.904297 -1.70215 1.94141 -2.52637 2.97852
c-1.19727 1.5166 -2.34082 3.00586 -3.19238 4.76172c-0.665039 1.27637 -1.01074 2.60645 -1.43555 4.01562c-0.373047 1.11719 -0.984375 2.10156 -1.19727 3.29785l-49.4717 296.934h-37.3154c-14.709 0 -26.5977 11.8896 -26.5977 26.5977
s11.8887 26.5977 26.5977 26.5977h59.8438c13.0059 0 24.0977 -9.41602 26.2256 -22.2354l5.18652 -30.96h367.549c7.71387 0 15.0273 -3.35156 20.1074 -9.17578zM454.735 324.987h-102.319v-53.1953h94.7393zM325.818 324.987h-79.792v-53.1953h79.792v53.1953z
M325.818 245.194h-79.792v-53.1943h79.792v53.1943zM219.429 324.987h-92.7188l8.99023 -53.9932c1.25 0.399414 2.52637 0.797852 3.93652 0.797852h79.792v53.1953zM140.009 245.194l8.85645 -53.1943h70.5635v53.1943h-79.4199zM352.416 192h83.3291l7.58008 53.1943
h-90.9092v-53.1943zM139.637 -7.48047c0 22.0342 17.8613 39.8965 39.8955 39.8965s39.8965 -17.8623 39.8965 -39.8965s-17.8623 -39.8965 -39.8965 -39.8965s-39.8955 17.8623 -39.8955 39.8965zM379.013 -7.48047c0 22.0342 17.8623 39.8965 39.8965 39.8965
s39.8965 -17.8623 39.8965 -39.8965s-17.8623 -39.8965 -39.8965 -39.8965s-39.8965 17.8623 -39.8965 39.8965z" />
    <glyph glyph-name="020-online-shopping-cart" unicode="&#xf112;" 
d="M18.9414 386.463c-10.418 0 -18.9414 8.52344 -18.9414 18.9404c0 10.418 8.52344 18.9414 18.9414 18.9414h68.5039c8.52344 0 16.1006 -5.68262 18.3096 -13.8906l77.3428 -279.697h210.878l70.082 161h-233.607c-10.418 0 -18.9414 8.52344 -18.9414 18.9414
c0 10.417 8.52344 18.9404 18.9414 18.9404h262.648c6.31445 0 12.3125 -3.15625 15.7852 -8.52344c3.47266 -5.36621 4.10449 -11.9961 1.5791 -17.9941l-86.498 -198.882c-3.15625 -6.94434 -9.78613 -11.3643 -17.3623 -11.3643h-237.711
c-8.52344 0 -16.1006 5.68262 -18.3096 13.8906l-77.3438 279.697h-54.2969zM150.897 -40.3447c-23.6768 0 -42.9326 19.2578 -42.9326 42.9336c0 23.6768 19.2559 42.9316 42.9326 42.9316s42.9326 -19.2559 42.9326 -42.9326
c0 -23.6758 -19.2559 -42.9326 -42.9326 -42.9326zM419.23 -40.3447c-22.4141 0 -41.0391 17.6787 -42.6172 40.0928c-1.5791 23.3604 16.0996 44.1953 39.7764 45.7744c23.6768 1.57812 44.1953 -16.416 45.7744 -39.7764
c0.630859 -11.6807 -2.8418 -22.7295 -10.418 -31.2529c-7.57617 -8.83984 -17.9941 -13.8906 -29.3584 -14.8379h-3.15723z" />
    <glyph glyph-name="049-commerce" unicode="&#xf12e;" 
d="M93.1719 336.086h353.211v-147.504c0 -61.3867 -49.9414 -111.328 -111.328 -111.328h-219.453l0.8125 -9.375v-0.648438c0 -15.043 12.2383 -27.2812 27.2852 -27.2812h207.484c28.6602 0 51.9766 -23.3164 51.9766 -51.9766
c0 -28.6562 -23.3164 -51.9727 -51.9766 -51.9727c-28.6562 0 -51.9727 23.3164 -51.9727 51.9727c0 7.84375 1.75391 15.2812 4.87891 21.9531h-74.0039c3.125 -6.67188 4.87891 -14.1094 4.87891 -21.9531c0 -28.6562 -23.3164 -51.9727 -51.9727 -51.9727
c-28.6602 0 -51.9727 23.3164 -51.9727 51.9727c0 8.04297 1.83594 15.6641 5.10938 22.4688c-27.8047 3.6875 -49.3867 27.375 -49.7305 56.0898l-30.4609 351.445h-55.9375v30.0234h83.4688zM93.1719 336.086z" />
    <glyph glyph-name="009-delete-1" unicode="&#xf108;" 
d="M353.574 271.474l-8.68945 -237.277l-40.0781 1.46387l8.68945 237.284zM235.948 34.9238v237.285h40.1035v-237.285h-40.1035zM207.186 35.666l-40.0762 -1.46973l-8.69043 237.284l40.0781 1.4707zM17.3789 371.133h477.242v-40.1035h-42.4639l-33.1533 -376.729
c-0.902344 -10.3535 -9.57812 -18.3008 -19.9717 -18.3008h-286.74c-10.3926 0 -19.0635 7.94141 -19.9717 18.2939l-33.1523 376.735h-41.7891v40.1035zM380.665 -23.8965l31.2354 354.926h-312.475l31.2285 -354.926h250.011zM321.504 448
c18.4277 0 33.4199 -14.9922 33.4199 -33.4199v-63.499h-40.1035v56.8154h-117.641v-56.8154h-40.1035v63.499c0 18.4277 14.9922 33.4199 33.4199 33.4199h131.008z" />
    <glyph glyph-name="036-cart-2" unicode="&#xf121;" 
d="M99.6689 337.066h412.331v-196.377c0 -23.4668 -19.0889 -42.5557 -42.5645 -42.5645h-332.749h-0.332031h-6.75c-13.8838 0 -25.7793 -10.0781 -27.0762 -22.9551c-0.743164 -7.2959 1.56934 -14.3105 6.49316 -19.7627
c4.88184 -5.38477 11.793 -8.47363 18.9785 -8.47363h20.0537c7.04785 19.8564 25.9668 34.1328 48.2129 34.1328s41.165 -14.2764 48.2139 -34.1328h99.8398c7.04785 19.8564 25.9668 34.1328 48.2129 34.1328s41.165 -14.2764 48.2139 -34.1328h37.1191
c4.71973 0 8.53418 -3.81445 8.53418 -8.5332c0 -4.71973 -3.81445 -8.53418 -8.53418 -8.53418h-34.1328c0 -28.2363 -22.9629 -51.1992 -51.2002 -51.1992c-28.2363 0 -51.2002 22.9629 -51.2002 51.1992h-93.8662c0 -28.2363 -22.9629 -51.1992 -51.2002 -51.1992
c-28.2363 0 -51.2002 22.9629 -51.2002 51.1992h-17.0664c-11.998 0 -23.5352 5.14648 -31.6328 14.0977c-8.08984 8.92578 -12.0322 20.9326 -10.8203 32.9219c2.06445 20.377 19.584 36.5732 40.6182 38.1777l-44.126 222.003h0.324219l-4.2666 25.6006h-11.042
c-3.81445 -14.6777 -17.0576 -25.6006 -32.9209 -25.6006c-18.8252 0 -34.1338 15.3086 -34.1338 34.1338c0 18.8242 15.3086 34.1328 34.1338 34.1328c15.8633 0 29.1064 -10.9219 32.9131 -25.5996h25.5146zM34.1338 354.134c9.41211 0 17.0664 7.6543 17.0664 17.0664
s-7.6543 17.0664 -17.0664 17.0664c-9.41309 0 -17.0674 -7.6543 -17.0674 -17.0664s7.6543 -17.0664 17.0674 -17.0664zM392.533 64c-18.8242 0 -34.1328 -15.3086 -34.1328 -34.1338c0 -18.8242 15.3086 -34.1328 34.1328 -34.1328s34.1338 15.3086 34.1338 34.1328
c0 18.8252 -15.3096 34.1338 -34.1338 34.1338zM196.267 64c-18.8242 0 -34.1328 -15.3086 -34.1328 -34.1338c0 -18.8242 15.3086 -34.1328 34.1328 -34.1328s34.1338 15.3086 34.1338 34.1328c0 18.8252 -15.3096 34.1338 -34.1338 34.1338zM494.934 140.689v179.311
h-392.099l40.7041 -204.8h325.905c14.0547 0 25.4893 11.4346 25.4893 25.4893z" />
    </font>
</defs>
</svg>
